# Blender v2.78 (sub 0) OBJ File: 'ARMADA_MASTER.blend'
# www.blender.org
o Command_Base_Cylinder.004
v -0.000000 0.005460 -2.186240
v -0.000000 1.214047 -1.474974
v 0.426514 0.005460 -2.144233
v 0.287753 1.214047 -1.446633
v 0.836638 0.005460 -2.019823
v 0.564448 1.214047 -1.362699
v 1.214610 0.005460 -1.817792
v 0.819452 1.214047 -1.226396
v 1.545906 0.005460 -1.545905
v 1.042964 1.214047 -1.042964
v 1.817793 0.005460 -1.214610
v 1.226396 1.214047 -0.819452
v 2.019823 0.005460 -0.836638
v 1.362699 1.214047 -0.564448
v 2.144233 0.005460 -0.426514
v 1.446633 1.214047 -0.287753
v 2.186241 0.005460 0.000000
v 1.474974 1.214047 -0.000000
v 2.144233 0.005460 0.426514
v 1.446633 1.214047 0.287753
v 2.019823 0.005460 0.836638
v 1.362699 1.214047 0.564448
v 1.817793 0.005460 1.214610
v 1.226396 1.214047 0.819452
v 1.545906 0.005460 1.545906
v 1.042964 1.214047 1.042964
v 1.214610 0.005460 1.817793
v 0.819452 1.214047 1.226396
v 0.836638 0.005460 2.019824
v 0.564448 1.214047 1.362699
v 0.426514 0.005460 2.144233
v 0.287753 1.214047 1.446633
v -0.000001 0.005460 2.186241
v -0.000000 1.214047 1.474974
v -0.426515 0.005460 2.144233
v -0.287754 1.214047 1.446633
v -0.836639 0.005460 2.019823
v -0.564449 1.214047 1.362698
v -1.214612 0.005460 1.817792
v -0.819453 1.214047 1.226396
v -1.545907 0.005460 1.545905
v -1.042965 1.214047 1.042964
v -1.817794 0.005460 1.214609
v -1.226397 1.214047 0.819451
v -2.019824 0.005460 0.836637
v -1.362699 1.214047 0.564447
v -2.144233 0.005460 0.426513
v -1.446633 1.214047 0.287752
v -2.186241 0.005460 -0.000002
v -1.474974 1.214047 -0.000001
v -2.144233 0.005460 -0.426517
v -1.446633 1.214047 -0.287755
v -2.019822 0.005460 -0.836640
v -1.362698 1.214047 -0.564450
v -1.817791 0.005460 -1.214612
v -1.226395 1.214047 -0.819453
v -1.545904 0.005460 -1.545907
v -1.042963 1.214047 -1.042966
v -1.214608 0.005460 -1.817794
v -0.819450 1.214047 -1.226397
v -0.836635 0.005460 -2.019824
v -0.564446 1.214047 -1.362699
v -0.426511 0.005460 -2.144233
v -0.287751 1.214047 -1.446633
v 0.261272 1.214047 -1.313503
v 0.000000 1.214047 -1.339236
v 0.512504 1.214047 -1.237293
v 0.744040 1.214047 -1.113534
v 0.946983 1.214047 -0.946983
v 1.113534 1.214047 -0.744040
v 1.237293 1.214047 -0.512503
v 1.313503 1.214047 -0.261272
v 1.339236 1.214047 -0.000000
v 1.313503 1.214047 0.261272
v 1.237293 1.214047 0.512503
v 1.113534 1.214047 0.744040
v 0.946983 1.214047 0.946983
v 0.744040 1.214047 1.113534
v 0.512503 1.214047 1.237293
v 0.261272 1.214047 1.313503
v -0.000000 1.214047 1.339236
v -0.261273 1.214047 1.313503
v -0.512504 1.214047 1.237293
v -0.744040 1.214047 1.113534
v -0.946984 1.214047 0.946982
v -1.113535 1.214047 0.744039
v -1.237293 1.214047 0.512502
v -1.313503 1.214047 0.261271
v -1.339236 1.214047 -0.000001
v -1.313503 1.214047 -0.261273
v -1.237292 1.214047 -0.512505
v -1.113533 1.214047 -0.744041
v -0.946982 1.214047 -0.946984
v -0.744038 1.214047 -1.113535
v -0.512502 1.214047 -1.237294
v -0.261270 1.214047 -1.313503
v 0.261272 0.724793 -1.313503
v 0.000000 0.724793 -1.339236
v 0.512504 0.724793 -1.237293
v 0.744040 0.724793 -1.113534
v 0.946983 0.724793 -0.946983
v 1.113534 0.724793 -0.744040
v 1.237293 0.724793 -0.512503
v 1.313503 0.724793 -0.261272
v 1.339236 0.724793 -0.000000
v 1.313503 0.724793 0.261272
v 1.237293 0.724793 0.512503
v 1.113534 0.724793 0.744040
v 0.946983 0.724793 0.946983
v 0.744040 0.724793 1.113534
v 0.512503 0.724793 1.237293
v 0.261272 0.724793 1.313503
v -0.000000 0.724793 1.339236
v -0.261273 0.724793 1.313503
v -0.512504 0.724793 1.237293
v -0.744040 0.724793 1.113534
v -0.946984 0.724793 0.946982
v -1.113535 0.724793 0.744039
v -1.237293 0.724793 0.512502
v -1.313503 0.724793 0.261271
v -1.339236 0.724793 -0.000001
v -1.313503 0.724793 -0.261273
v -1.237292 0.724793 -0.512505
v -1.113533 0.724793 -0.744041
v -0.946982 0.724793 -0.946984
v -0.744038 0.724793 -1.113535
v -0.512502 0.724793 -1.237294
v -0.261270 0.724793 -1.313503
v -0.000000 0.005460 -2.186240
v 0.426514 0.005460 -2.144233
v 0.287753 1.214047 -1.446633
v -0.000000 1.214047 -1.474974
v 0.836638 0.005460 -2.019823
v 0.564448 1.214047 -1.362699
v 1.214610 0.005460 -1.817792
v 0.819452 1.214047 -1.226396
v 1.545906 0.005460 -1.545905
v 1.042964 1.214047 -1.042964
v 1.817793 0.005460 -1.214610
v 1.226396 1.214047 -0.819452
v 2.019823 0.005460 -0.836638
v 1.362699 1.214047 -0.564448
v 2.144233 0.005460 -0.426514
v 1.446633 1.214047 -0.287753
v 2.186241 0.005460 0.000000
v 1.474974 1.214047 -0.000000
v 2.144233 0.005460 0.426514
v 1.446633 1.214047 0.287753
v 2.019823 0.005460 0.836638
v 1.362699 1.214047 0.564448
v 1.817793 0.005460 1.214610
v 1.226396 1.214047 0.819452
v 1.545906 0.005460 1.545906
v 1.042964 1.214047 1.042964
v 1.214610 0.005460 1.817793
v 0.819452 1.214047 1.226396
v 0.836638 0.005460 2.019824
v 0.564448 1.214047 1.362699
v 0.426514 0.005460 2.144233
v 0.287753 1.214047 1.446633
v -0.000001 0.005460 2.186241
v -0.000000 1.214047 1.474974
v -0.426515 0.005460 2.144233
v -0.287754 1.214047 1.446633
v -0.836639 0.005460 2.019823
v -0.564449 1.214047 1.362698
v -1.214612 0.005460 1.817792
v -0.819453 1.214047 1.226396
v -1.545907 0.005460 1.545905
v -1.042965 1.214047 1.042964
v -1.817794 0.005460 1.214609
v -1.226397 1.214047 0.819451
v -2.019824 0.005460 0.836637
v -1.362699 1.214047 0.564447
v -2.144233 0.005460 0.426513
v -1.446633 1.214047 0.287752
v -2.186241 0.005460 -0.000002
v -1.474974 1.214047 -0.000001
v -2.144233 0.005460 -0.426517
v -1.446633 1.214047 -0.287755
v -2.019822 0.005460 -0.836640
v -1.362698 1.214047 -0.564450
v -1.817791 0.005460 -1.214612
v -1.226395 1.214047 -0.819453
v -1.545904 0.005460 -1.545907
v -1.042963 1.214047 -1.042966
v -1.214608 0.005460 -1.817794
v -0.819450 1.214047 -1.226397
v -0.836635 0.005460 -2.019824
v -0.564446 1.214047 -1.362699
v -0.426511 0.005460 -2.144233
v -0.287751 1.214047 -1.446633
v 0.261272 1.214047 -1.313503
v 0.000000 1.214047 -1.339236
v 0.512504 1.214047 -1.237293
v 0.744040 1.214047 -1.113534
v 0.946983 1.214047 -0.946983
v 1.113534 1.214047 -0.744040
v 1.237293 1.214047 -0.512503
v 1.313503 1.214047 -0.261272
v 1.339236 1.214047 -0.000000
v 1.313503 1.214047 0.261272
v 1.237293 1.214047 0.512503
v 1.113534 1.214047 0.744040
v 0.946983 1.214047 0.946983
v 0.744040 1.214047 1.113534
v 0.512503 1.214047 1.237293
v 0.261272 1.214047 1.313503
v -0.000000 1.214047 1.339236
v -0.261273 1.214047 1.313503
v -0.512504 1.214047 1.237293
v -0.744040 1.214047 1.113534
v -0.946984 1.214047 0.946982
v -1.113535 1.214047 0.744039
v -1.237293 1.214047 0.512502
v -1.313503 1.214047 0.261271
v -1.339236 1.214047 -0.000001
v -1.313503 1.214047 -0.261273
v -1.237292 1.214047 -0.512505
v -1.113533 1.214047 -0.744041
v -0.946982 1.214047 -0.946984
v -0.744038 1.214047 -1.113535
v -0.512502 1.214047 -1.237294
v -0.261270 1.214047 -1.313503
v 0.261272 0.724793 -1.313503
v 0.000000 0.724793 -1.339236
v 0.512504 0.724793 -1.237293
v 0.744040 0.724793 -1.113534
v 0.946983 0.724793 -0.946983
v 1.113534 0.724793 -0.744040
v 1.237293 0.724793 -0.512503
v 1.313503 0.724793 -0.261272
v 1.339236 0.724793 -0.000000
v 1.313503 0.724793 0.261272
v 1.237293 0.724793 0.512503
v 1.113534 0.724793 0.744040
v 0.946983 0.724793 0.946983
v 0.744040 0.724793 1.113534
v 0.512503 0.724793 1.237293
v 0.261272 0.724793 1.313503
v -0.000000 0.724793 1.339236
v -0.261273 0.724793 1.313503
v -0.512504 0.724793 1.237293
v -0.744040 0.724793 1.113534
v -0.946984 0.724793 0.946982
v -1.113535 0.724793 0.744039
v -1.237293 0.724793 0.512502
v -1.313503 0.724793 0.261271
v -1.339236 0.724793 -0.000001
v -1.313503 0.724793 -0.261273
v -1.237292 0.724793 -0.512505
v -1.113533 0.724793 -0.744041
v -0.946982 0.724793 -0.946984
v -0.744038 0.724793 -1.113535
v -0.512502 0.724793 -1.237294
v -0.261270 0.724793 -1.313503
vn 0.0846 0.5054 -0.8587
vn 0.2505 0.5054 -0.8257
vn 0.4068 0.5054 -0.7610
vn 0.5474 0.5054 -0.6670
vn 0.6670 0.5054 -0.5474
vn 0.7610 0.5054 -0.4068
vn 0.8257 0.5054 -0.2505
vn 0.8587 0.5054 -0.0846
vn 0.8587 0.5054 0.0846
vn 0.8257 0.5054 0.2505
vn 0.7610 0.5054 0.4068
vn 0.6670 0.5054 0.5474
vn 0.5474 0.5054 0.6670
vn 0.4068 0.5054 0.7610
vn 0.2505 0.5054 0.8257
vn 0.0846 0.5054 0.8587
vn -0.0846 0.5054 0.8587
vn -0.2505 0.5054 0.8257
vn -0.4068 0.5054 0.7610
vn -0.5474 0.5054 0.6670
vn -0.6670 0.5054 0.5474
vn -0.7610 0.5054 0.4068
vn -0.8257 0.5054 0.2505
vn -0.8587 0.5054 0.0846
vn -0.8587 0.5054 -0.0846
vn -0.8257 0.5054 -0.2505
vn -0.7610 0.5054 -0.4068
vn -0.6670 0.5054 -0.5474
vn -0.5474 0.5054 -0.6670
vn -0.4068 0.5054 -0.7610
vn 0.0000 1.0000 0.0000
vn -0.2505 0.5054 -0.8257
vn -0.0846 0.5054 -0.8587
vn 0.0000 -1.0000 0.0000
vn 0.6344 0.0000 0.7730
vn -0.0980 0.0000 -0.9952
vn -0.4714 0.0000 0.8819
vn 0.4714 0.0000 0.8819
vn 0.0980 0.0000 -0.9952
vn -0.6344 0.0000 0.7730
vn 0.2903 0.0000 0.9569
vn 0.2903 0.0000 -0.9569
vn -0.7730 0.0000 0.6344
vn 0.0980 0.0000 0.9952
vn 0.4714 0.0000 -0.8819
vn -0.8819 0.0000 0.4714
vn 0.6344 0.0000 -0.7730
vn -0.9569 0.0000 0.2903
vn 0.7730 0.0000 -0.6344
vn -0.9952 0.0000 0.0980
vn 0.8819 0.0000 -0.4714
vn -0.9952 0.0000 -0.0980
vn 0.9569 0.0000 -0.2903
vn -0.9569 0.0000 -0.2903
vn 0.9952 0.0000 -0.0980
vn -0.8819 0.0000 -0.4714
vn 0.9952 0.0000 0.0980
vn -0.7730 0.0000 -0.6344
vn 0.9569 0.0000 0.2903
vn -0.6344 0.0000 -0.7730
vn 0.8819 0.0000 0.4714
vn -0.4714 0.0000 -0.8819
vn -0.0980 0.0000 0.9952
vn 0.7730 0.0000 0.6344
vn -0.2903 0.0000 -0.9569
vn -0.2903 0.0000 0.9569
s off
f 2//1 130//1 129//1
f 130//2 6//2 133//2
f 6//3 135//3 133//3
f 8//4 137//4 135//4
f 137//5 12//5 139//5
f 12//6 141//6 139//6
f 141//7 144//7 143//7
f 143//8 18//8 145//8
f 145//9 20//9 147//9
f 147//10 22//10 149//10
f 149//11 24//11 151//11
f 151//12 26//12 153//12
f 153//13 28//13 155//13
f 155//14 30//14 157//14
f 30//15 159//15 157//15
f 160//16 161//16 159//16
f 161//17 36//17 163//17
f 36//18 165//18 163//18
f 165//19 168//19 167//19
f 168//20 169//20 167//20
f 170//21 171//21 169//21
f 44//22 173//22 171//22
f 174//23 175//23 173//23
f 176//24 177//24 175//24
f 178//25 179//25 177//25
f 52//26 181//26 179//26
f 182//27 183//27 181//27
f 184//28 185//28 183//28
f 186//29 187//29 185//29
f 188//30 189//30 187//30
f 140//31 71//31 142//31
f 190//32 191//32 189//32
f 192//33 129//33 191//33
f 31//34 47//34 63//34
f 93//35 254//35 222//35
f 32//31 79//31 208//31
f 50//31 216//31 217//31
f 131//31 67//31 134//31
f 150//31 76//31 152//31
f 42//31 212//31 213//31
f 60//31 221//31 94//31
f 16//31 71//31 200//31
f 32//31 81//31 162//31
f 50//31 90//31 180//31
f 134//31 68//31 136//31
f 152//31 77//31 154//31
f 42//31 86//31 172//31
f 62//31 94//31 223//31
f 16//31 73//31 146//31
f 162//31 82//31 164//31
f 54//31 90//31 219//31
f 136//31 69//31 138//31
f 154//31 78//31 156//31
f 46//31 86//31 215//31
f 64//31 223//31 224//31
f 146//31 74//31 148//31
f 38//31 82//31 211//31
f 56//31 219//31 220//31
f 138//31 70//31 140//31
f 156//31 79//31 158//31
f 48//31 215//31 216//31
f 132//31 65//31 131//31
f 132//31 224//31 66//31
f 148//31 75//31 150//31
f 40//31 211//31 212//31
f 58//31 220//31 221//31
f 243//31 235//31 227//31
f 80//36 113//36 209//36
f 195//37 100//37 196//37
f 222//38 127//38 95//38
f 209//39 114//39 210//39
f 196//40 101//40 197//40
f 95//41 128//41 96//41
f 210//42 115//42 83//42
f 197//43 102//43 198//43
f 96//44 98//44 194//44
f 83//45 116//45 84//45
f 198//46 103//46 199//46
f 84//47 117//47 85//47
f 199//48 104//48 72//48
f 85//49 118//49 214//49
f 72//50 105//50 201//50
f 214//51 119//51 87//51
f 201//52 106//52 202//52
f 87//53 120//53 88//53
f 202//54 107//54 203//54
f 88//55 121//55 89//55
f 203//56 108//56 204//56
f 89//57 122//57 218//57
f 204//58 109//58 205//58
f 218//59 123//59 91//59
f 205//60 110//60 206//60
f 91//61 124//61 92//61
f 206//62 111//62 207//62
f 194//63 97//63 193//63
f 92//64 125//64 93//64
f 207//65 112//65 80//65
f 193//66 99//66 195//66
f 2//1 4//1 130//1
f 130//2 4//2 6//2
f 6//3 8//3 135//3
f 8//4 10//4 137//4
f 137//5 10//5 12//5
f 12//6 14//6 141//6
f 141//7 14//7 144//7
f 143//8 144//8 18//8
f 145//9 18//9 20//9
f 147//10 20//10 22//10
f 149//11 22//11 24//11
f 151//12 24//12 26//12
f 153//13 26//13 28//13
f 155//14 28//14 30//14
f 30//15 160//15 159//15
f 160//16 34//16 161//16
f 161//17 34//17 36//17
f 36//18 166//18 165//18
f 165//19 166//19 168//19
f 168//20 170//20 169//20
f 170//21 44//21 171//21
f 44//22 174//22 173//22
f 174//23 176//23 175//23
f 176//24 178//24 177//24
f 178//25 52//25 179//25
f 52//26 182//26 181//26
f 182//27 184//27 183//27
f 184//28 186//28 185//28
f 186//29 188//29 187//29
f 188//30 190//30 189//30
f 140//31 70//31 71//31
f 190//32 192//32 191//32
f 192//33 2//33 129//33
f 63//34 1//34 3//34
f 3//34 5//34 63//34
f 7//34 9//34 11//34
f 11//34 13//34 7//34
f 15//34 17//34 19//34
f 19//34 21//34 15//34
f 23//34 25//34 31//34
f 27//34 29//34 31//34
f 31//34 33//34 35//34
f 35//34 37//34 31//34
f 39//34 41//34 43//34
f 43//34 45//34 47//34
f 47//34 49//34 51//34
f 51//34 53//34 47//34
f 55//34 57//34 63//34
f 59//34 61//34 63//34
f 63//34 5//34 7//34
f 7//34 13//34 15//34
f 15//34 21//34 23//34
f 25//34 27//34 31//34
f 31//34 37//34 39//34
f 39//34 43//34 47//34
f 47//34 53//34 55//34
f 57//34 59//34 63//34
f 63//34 7//34 15//34
f 15//34 23//34 63//34
f 31//34 39//34 47//34
f 47//34 55//34 63//34
f 63//34 23//34 31//34
f 93//35 125//35 254//35
f 32//31 158//31 79//31
f 50//31 48//31 216//31
f 131//31 65//31 67//31
f 150//31 75//31 76//31
f 42//31 40//31 212//31
f 60//31 58//31 221//31
f 16//31 142//31 71//31
f 32//31 208//31 81//31
f 50//31 217//31 90//31
f 134//31 67//31 68//31
f 152//31 76//31 77//31
f 42//31 213//31 86//31
f 62//31 60//31 94//31
f 16//31 200//31 73//31
f 162//31 81//31 82//31
f 54//31 180//31 90//31
f 136//31 68//31 69//31
f 154//31 77//31 78//31
f 46//31 172//31 86//31
f 64//31 62//31 223//31
f 146//31 73//31 74//31
f 38//31 164//31 82//31
f 56//31 54//31 219//31
f 138//31 69//31 70//31
f 156//31 78//31 79//31
f 48//31 46//31 215//31
f 132//31 66//31 65//31
f 132//31 64//31 224//31
f 148//31 74//31 75//31
f 40//31 38//31 211//31
f 58//31 56//31 220//31
f 227//31 225//31 226//31
f 226//31 256//31 255//31
f 255//31 126//31 253//31
f 253//31 252//31 251//31
f 251//31 250//31 249//31
f 249//31 248//31 247//31
f 247//31 246//31 245//31
f 245//31 244//31 243//31
f 243//31 242//31 241//31
f 241//31 240//31 239//31
f 239//31 238//31 237//31
f 237//31 236//31 235//31
f 235//31 234//31 233//31
f 233//31 232//31 235//31
f 231//31 230//31 229//31
f 229//31 228//31 227//31
f 227//31 226//31 251//31
f 255//31 253//31 251//31
f 251//31 249//31 243//31
f 247//31 245//31 243//31
f 243//31 241//31 235//31
f 239//31 237//31 235//31
f 235//31 232//31 231//31
f 231//31 229//31 235//31
f 226//31 255//31 251//31
f 249//31 247//31 243//31
f 241//31 239//31 235//31
f 235//31 229//31 227//31
f 227//31 251//31 243//31
f 80//36 112//36 113//36
f 195//37 99//37 100//37
f 222//38 254//38 127//38
f 209//39 113//39 114//39
f 196//40 100//40 101//40
f 95//41 127//41 128//41
f 210//42 114//42 115//42
f 197//43 101//43 102//43
f 96//44 128//44 98//44
f 83//45 115//45 116//45
f 198//46 102//46 103//46
f 84//47 116//47 117//47
f 199//48 103//48 104//48
f 85//49 117//49 118//49
f 72//50 104//50 105//50
f 214//51 118//51 119//51
f 201//52 105//52 106//52
f 87//53 119//53 120//53
f 202//54 106//54 107//54
f 88//55 120//55 121//55
f 203//56 107//56 108//56
f 89//57 121//57 122//57
f 204//58 108//58 109//58
f 218//59 122//59 123//59
f 205//60 109//60 110//60
f 91//61 123//61 124//61
f 206//62 110//62 111//62
f 194//63 98//63 97//63
f 92//64 124//64 125//64
f 207//65 111//65 112//65
f 193//66 97//66 99//66
