# Blender v2.78 (sub 0) OBJ File: 'ARMADA_MASTER.blend'
# www.blender.org
o Command_Collider_Cylinder.001
v -0.000000 0.005460 -2.186240
v -0.000000 0.735595 -1.762844
v 0.426514 0.005460 -2.144233
v 0.343914 0.735595 -1.728972
v 0.836638 0.005460 -2.019823
v 0.674611 0.735595 -1.628656
v 1.214610 0.005460 -1.817792
v 0.979384 0.735595 -1.465751
v 1.545906 0.005460 -1.545905
v 1.246519 0.735595 -1.246519
v 1.817793 0.005460 -1.214610
v 1.465752 0.735595 -0.979384
v 2.019823 0.005460 -0.836638
v 1.628656 0.735595 -0.674611
v 2.144233 0.005460 -0.426514
v 1.728972 0.735595 -0.343914
v 2.186241 0.005460 0.000000
v 1.762844 0.735595 -0.000000
v 2.144233 0.005460 0.426514
v 1.728972 0.735595 0.343914
v 2.019823 0.005460 0.836638
v 1.628656 0.735595 0.674611
v 1.817793 0.005460 1.214610
v 1.465752 0.735595 0.979384
v 1.545906 0.005460 1.545906
v 1.246519 0.735595 1.246519
v 1.214610 0.005460 1.817793
v 0.979384 0.735595 1.465752
v 0.836638 0.005460 2.019824
v 0.674611 0.735595 1.628656
v 0.426514 0.005460 2.144233
v 0.343913 0.735595 1.728972
v -0.000001 0.005460 2.186241
v -0.000001 0.735595 1.762845
v -0.426515 0.005460 2.144233
v -0.343915 0.735595 1.728972
v -0.836639 0.005460 2.019823
v -0.674612 0.735595 1.628656
v -1.214612 0.005460 1.817792
v -0.979385 0.735595 1.465751
v -1.545907 0.005460 1.545905
v -1.246520 0.735595 1.246519
v -1.817794 0.005460 1.214609
v -1.465752 0.735595 0.979383
v -2.019824 0.005460 0.836637
v -1.628656 0.735595 0.674610
v -2.144233 0.005460 0.426513
v -1.728972 0.735595 0.343912
v -2.186241 0.005460 -0.000002
v -1.762844 0.735595 -0.000002
v -2.144233 0.005460 -0.426517
v -1.728972 0.735595 -0.343916
v -2.019822 0.005460 -0.836640
v -1.628655 0.735595 -0.674613
v -1.817791 0.005460 -1.214612
v -1.465750 0.735595 -0.979386
v -1.545904 0.005460 -1.545907
v -1.246518 0.735595 -1.246521
v -1.214608 0.005460 -1.817794
v -0.979382 0.735595 -1.465753
v -0.836635 0.005460 -2.019824
v -0.674609 0.735595 -1.628657
v -0.426511 0.005460 -2.144233
v -0.343911 0.735595 -1.728972
vn 0.0849 0.4998 -0.8620
vn 0.2514 0.4998 -0.8288
vn 0.4083 0.4998 -0.7639
vn 0.5495 0.4998 -0.6695
vn 0.6695 0.4998 -0.5495
vn 0.7639 0.4998 -0.4083
vn 0.8288 0.4998 -0.2514
vn 0.8620 0.4998 -0.0849
vn 0.8620 0.4998 0.0849
vn 0.8288 0.4998 0.2514
vn 0.7639 0.4998 0.4083
vn 0.6695 0.4998 0.5495
vn 0.5495 0.4998 0.6695
vn 0.4083 0.4998 0.7639
vn 0.2514 0.4998 0.8288
vn 0.0849 0.4998 0.8620
vn -0.0849 0.4998 0.8620
vn -0.2514 0.4998 0.8288
vn -0.4083 0.4998 0.7639
vn -0.5495 0.4998 0.6695
vn -0.6695 0.4998 0.5495
vn -0.7639 0.4998 0.4083
vn -0.8288 0.4998 0.2514
vn -0.8620 0.4998 0.0849
vn -0.8620 0.4998 -0.0849
vn -0.8288 0.4998 -0.2514
vn -0.7639 0.4998 -0.4083
vn -0.6695 0.4998 -0.5495
vn -0.5495 0.4998 -0.6695
vn -0.4083 0.4998 -0.7639
vn 0.0000 1.0000 -0.0000
vn -0.2514 0.4998 -0.8288
vn -0.0849 0.4998 -0.8620
vn 0.0000 -1.0000 -0.0000
s off
f 1//1 2//1 4//1 3//1
f 3//2 4//2 6//2 5//2
f 5//3 6//3 8//3 7//3
f 7//4 8//4 10//4 9//4
f 9//5 10//5 12//5 11//5
f 11//6 12//6 14//6 13//6
f 13//7 14//7 16//7 15//7
f 15//8 16//8 18//8 17//8
f 17//9 18//9 20//9 19//9
f 19//10 20//10 22//10 21//10
f 21//11 22//11 24//11 23//11
f 23//12 24//12 26//12 25//12
f 25//13 26//13 28//13 27//13
f 27//14 28//14 30//14 29//14
f 29//15 30//15 32//15 31//15
f 31//16 32//16 34//16 33//16
f 33//17 34//17 36//17 35//17
f 35//18 36//18 38//18 37//18
f 37//19 38//19 40//19 39//19
f 39//20 40//20 42//20 41//20
f 41//21 42//21 44//21 43//21
f 43//22 44//22 46//22 45//22
f 45//23 46//23 48//23 47//23
f 47//24 48//24 50//24 49//24
f 49//25 50//25 52//25 51//25
f 51//26 52//26 54//26 53//26
f 53//27 54//27 56//27 55//27
f 55//28 56//28 58//28 57//28
f 57//29 58//29 60//29 59//29
f 59//30 60//30 62//30 61//30
f 4//31 2//31 64//31 62//31 60//31 58//31 56//31 54//31 52//31 50//31 48//31 46//31 44//31 42//31 40//31 38//31 36//31 34//31 32//31 30//31 28//31 26//31 24//31 22//31 20//31 18//31 16//31 14//31 12//31 10//31 8//31 6//31
f 61//32 62//32 64//32 63//32
f 63//33 64//33 2//33 1//33
f 1//34 3//34 5//34 7//34 9//34 11//34 13//34 15//34 17//34 19//34 21//34 23//34 25//34 27//34 29//34 31//34 33//34 35//34 37//34 39//34 41//34 43//34 45//34 47//34 49//34 51//34 53//34 55//34 57//34 59//34 61//34 63//34
