# Blender v2.78 (sub 0) OBJ File: 'ARMADA_MASTER.blend'
# www.blender.org
o Datacard_Plane.024
v -1.086884 0.000000 1.479782
v 1.086884 0.000000 1.479782
v -1.086884 0.000000 -1.434048
v 1.086884 0.000000 -1.434048
v 0.895819 0.000000 -1.556361
v 0.696748 0.000000 -1.652617
v 0.497677 0.000000 -1.710228
v 0.298606 0.000000 -1.750113
v 0.099535 0.000000 -1.776703
v -0.099535 0.000000 -1.776703
v -0.298606 0.000000 -1.750113
v -0.497677 0.000000 -1.710228
v -0.696748 0.000000 -1.652617
v -0.895819 0.000000 -1.556361
v -1.086884 0.238760 1.479782
v 1.086884 0.238760 1.479782
v -1.086884 0.238760 -1.434048
v 1.086884 0.238760 -1.434048
v 0.895819 0.238760 -1.556361
v 0.696748 0.238760 -1.652617
v 0.497677 0.238760 -1.710228
v 0.298606 0.238760 -1.750113
v 0.099535 0.238760 -1.776703
v -0.099535 0.238760 -1.776703
v -0.298606 0.238760 -1.750113
v -0.497677 0.238760 -1.710228
v -0.696748 0.238760 -1.652617
v -0.895819 0.238760 -1.556361
v -1.086884 0.000000 1.760572
v 1.086884 0.000000 1.760572
v -1.086884 0.238760 1.760572
v 1.086884 0.238760 1.760572
v -1.086884 0.322961 1.529539
v 1.086884 0.322961 1.529539
v -1.086884 0.322961 1.710815
v 1.086884 0.322961 1.710815
v -1.086884 0.000000 -1.434048
v -1.086884 0.000000 -1.434048
v -1.086884 0.000000 1.479782
v 1.086884 0.000000 1.479782
v 1.086884 0.000000 -1.434048
v 1.086884 0.000000 -1.434048
v -0.895819 0.000000 -1.556361
v 0.895819 0.000000 -1.556361
v 0.696748 0.000000 -1.652617
v 0.497677 0.000000 -1.710228
v 0.298606 0.000000 -1.750113
v 0.099535 0.000000 -1.776703
v -0.099535 0.000000 -1.776703
v -0.298606 0.000000 -1.750113
v -0.497677 0.000000 -1.710228
v -0.696748 0.000000 -1.652617
v -1.086884 0.238760 -1.434048
v -1.086884 0.238760 -1.434048
v -1.086884 0.238760 1.479782
v -1.086884 0.238760 1.479782
v 1.086884 0.238760 1.479782
v 1.086884 0.238760 1.479782
v 1.086884 0.238760 -1.434048
v 1.086884 0.238760 -1.434048
v -0.895819 0.238760 -1.556361
v 0.895819 0.238760 -1.556361
v 0.696748 0.238760 -1.652617
v 0.497677 0.238760 -1.710228
v 0.298606 0.238760 -1.750113
v 0.099535 0.238760 -1.776703
v -0.099535 0.238760 -1.776703
v -0.298606 0.238760 -1.750113
v -0.497677 0.238760 -1.710228
v -0.696748 0.238760 -1.652617
v -1.086884 0.000000 1.760572
v -1.086884 0.000000 1.760572
v 1.086884 0.000000 1.760572
v 1.086884 0.000000 1.760572
v -1.086884 0.238760 1.760572
v -1.086884 0.238760 1.760572
v 1.086884 0.238760 1.760572
v 1.086884 0.238760 1.760572
v -1.086884 0.322961 1.529539
v -1.086884 0.322961 1.529539
v 1.086884 0.322961 1.529539
v 1.086884 0.322961 1.529539
v -1.086884 0.322961 1.710815
v -1.086884 0.322961 1.710815
v 1.086884 0.322961 1.710815
v 1.086884 0.322961 1.710815
vt 0.3626 0.9925
vt 0.6374 0.9925
vt 1.0000 0.0794
vt 0.6374 0.9925
vt 0.3626 0.9925
vt 1.0000 0.0794
vt 0.0000 0.0794
vt 0.0000 0.9031
vt 0.0000 0.9031
vt 0.5458 1.0000
vt 0.6374 0.9925
vt 0.6374 0.9925
vt 0.0000 0.0000
vt 0.0000 0.0794
vt 0.4542 1.0000
vt 0.5458 1.0000
vt 1.0000 0.9031
vt 1.0000 0.0794
vt 1.0000 0.0794
vt 0.3626 0.9925
vt 0.4542 1.0000
vt 0.0000 0.9031
vt 0.0879 0.9377
vt 0.0879 0.9377
vt 0.2711 0.9812
vt 0.3626 0.9925
vt 0.9121 0.9377
vt 1.0000 0.9031
vt 1.0000 0.9031
vt 0.1795 0.9649
vt 0.2711 0.9812
vt 0.8205 0.9649
vt 0.9121 0.9377
vt 0.1795 0.9649
vt 0.7289 0.9812
vt 0.8205 0.9649
vt 0.7289 0.9812
vt 1.0000 0.0000
vt 0.0000 0.0000
vt 0.0000 0.0000
vt 1.0000 0.0000
vt 0.0000 0.0000
vt 0.0000 0.0794
vt 1.0000 0.0000
vt 0.0000 0.0141
vt 0.0000 0.0000
vt 0.0000 0.0653
vt 1.0000 0.0141
vt 1.0000 0.0653
vt 0.0000 0.0794
vt 1.0000 0.0653
vt 1.0000 0.0794
vt 1.0000 0.0141
vt 1.0000 0.0000
vt 0.0000 0.0653
vt 0.0000 0.9031
vt 0.0879 0.9377
vt 0.2711 0.9812
vt 0.1795 0.9649
vt 0.4542 1.0000
vt 0.5458 1.0000
vt 0.7289 0.9812
vt 0.8205 0.9649
vt 0.9121 0.9377
vt 1.0000 0.9031
vt 0.0000 0.9031
vt 0.0000 0.0794
vt 1.0000 0.9031
vt 0.9121 0.9377
vt 0.8205 0.9649
vt 0.7289 0.9812
vt 0.5458 1.0000
vt 0.4542 1.0000
vt 0.2711 0.9812
vt 0.1795 0.9649
vt 0.0879 0.9377
vt 1.0000 0.0000
vt 1.0000 0.9031
vt 0.0000 0.9031
vt 1.0000 0.0000
vt 0.0000 0.0000
vt 1.0000 0.0141
vt 0.0000 0.0141
vt 0.0000 0.0653
vt 1.0000 0.0653
vt 0.0000 0.0141
vn 0.0000 -1.0000 0.0000
vn 0.0000 1.0000 0.0000
vn -1.0000 0.0000 0.0000
vn 0.1324 0.0000 -0.9912
vn 0.0000 0.0000 -1.0000
vn 1.0000 0.0000 0.0000
vn -0.1324 0.0000 -0.9912
vn -0.5392 0.0000 -0.8422
vn -0.1965 0.0000 -0.9805
vn 0.5392 0.0000 -0.8422
vn -0.2780 0.0000 -0.9606
vn 0.4353 0.0000 -0.9003
vn -0.4353 0.0000 -0.9003
vn 0.2780 0.0000 -0.9606
vn 0.1965 0.0000 -0.9805
vn 0.0000 0.0000 1.0000
vn 0.0000 0.5087 0.8609
vn 0.0000 0.5087 -0.8609
s off
f 11/1/1 8/2/1 40/3/1
f 65/4/2 68/5/2 58/6/2
f 39/7/3 54/8/3 37/9/3
f 48/10/4 22/11/4 47/12/4
f 40/3/1 72/13/1 1/14/1
f 49/15/5 23/16/5 48/10/5
f 41/17/6 16/18/6 2/19/6
f 50/20/7 24/21/7 49/15/7
f 38/22/8 28/23/8 43/24/8
f 51/25/9 25/26/9 50/20/9
f 44/27/10 60/28/10 42/29/10
f 52/30/11 26/31/11 51/25/11
f 45/32/12 19/33/12 44/27/12
f 43/24/13 27/34/13 52/30/13
f 46/35/14 20/36/14 45/32/14
f 47/12/15 21/37/15 46/35/15
f 73/38/16 76/39/16 71/40/16
f 16/18/6 74/41/6 2/19/6
f 39/7/3 31/42/3 15/43/3
f 77/44/17 83/45/17 75/46/17
f 79/47/2 86/48/2 81/49/2
f 56/50/18 82/51/18 57/52/18
f 16/18/6 36/53/6 32/54/6
f 31/42/3 80/55/3 15/43/3
f 40/3/1 1/14/1 11/1/1
f 3/56/1 14/57/1 12/58/1
f 13/59/1 12/58/1 14/57/1
f 11/1/1 10/60/1 9/61/1
f 9/61/1 8/2/1 11/1/1
f 7/62/1 6/63/1 5/64/1
f 5/64/1 4/65/1 7/62/1
f 1/14/1 3/56/1 11/1/1
f 12/58/1 11/1/1 3/56/1
f 8/2/1 4/65/1 40/3/1
f 4/65/1 8/2/1 7/62/1
f 53/66/2 55/67/2 68/5/2
f 58/6/2 59/68/2 65/4/2
f 62/69/2 63/70/2 64/71/2
f 64/71/2 65/4/2 59/68/2
f 66/72/2 67/73/2 68/5/2
f 68/5/2 69/74/2 53/66/2
f 70/75/2 61/76/2 69/74/2
f 55/67/2 58/6/2 68/5/2
f 62/69/2 64/71/2 59/68/2
f 66/72/2 68/5/2 65/4/2
f 61/76/2 53/66/2 69/74/2
f 39/7/3 15/43/3 54/8/3
f 48/10/4 23/16/4 22/11/4
f 40/3/1 30/77/1 72/13/1
f 49/15/5 24/21/5 23/16/5
f 41/17/6 18/78/6 16/18/6
f 50/20/7 25/26/7 24/21/7
f 38/22/8 17/79/8 28/23/8
f 51/25/9 26/31/9 25/26/9
f 44/27/10 19/33/10 60/28/10
f 52/30/11 27/34/11 26/31/11
f 45/32/12 20/36/12 19/33/12
f 43/24/13 28/23/13 27/34/13
f 46/35/14 21/37/14 20/36/14
f 47/12/15 22/11/15 21/37/15
f 73/38/16 78/80/16 76/39/16
f 16/18/6 32/54/6 74/41/6
f 39/7/3 29/81/3 31/42/3
f 77/44/17 85/82/17 83/45/17
f 79/47/2 84/83/2 86/48/2
f 56/50/18 33/84/18 82/51/18
f 16/18/6 34/85/6 36/53/6
f 31/42/3 35/86/3 80/55/3
o Datacard_Contact_Circle.004
v 0.000000 0.185066 -1.328043
v -0.182945 0.185066 -1.310024
v -0.358860 0.185066 -1.256661
v -0.520983 0.185066 -1.170004
v -0.663086 0.185066 -1.053384
v -0.779707 0.185066 -0.911281
v -0.866364 0.185066 -0.749157
v -0.919727 0.185066 -0.573243
v -0.937745 0.185066 -0.390298
v -0.919727 0.185066 -0.207353
v -0.866364 0.185066 -0.031438
v -0.779707 0.185066 0.130686
v -0.663086 0.185066 0.272788
v -0.520983 0.185066 0.389409
v -0.358859 0.185066 0.476066
v -0.182945 0.185066 0.529429
v 0.000000 0.185066 0.547448
v 0.182945 0.185066 0.529429
v 0.358860 0.185066 0.476066
v 0.520984 0.185066 0.389409
v 0.663086 0.185066 0.272788
v 0.779707 0.185066 0.130685
v 0.866364 0.185066 -0.031439
v 0.919727 0.185066 -0.207353
v 0.937745 0.185066 -0.390299
v 0.919726 0.185066 -0.573244
v 0.866363 0.185066 -0.749158
v 0.779706 0.185066 -0.911282
v 0.663085 0.185066 -1.053384
v 0.520982 0.185066 -1.170005
v 0.358858 0.185066 -1.256662
v 0.182944 0.185066 -1.310024
v -0.182945 0.268026 -1.310024
v -0.000000 0.268026 -1.328043
v -0.358860 0.268026 -1.256661
v -0.520983 0.268026 -1.170004
v -0.663086 0.268026 -1.053384
v -0.779707 0.268026 -0.911281
v -0.866364 0.268026 -0.749157
v -0.919727 0.268026 -0.573243
v -0.937745 0.268026 -0.390298
v -0.919727 0.268026 -0.207353
v -0.866364 0.268026 -0.031438
v -0.779707 0.268026 0.130686
v -0.663086 0.268026 0.272788
v -0.520983 0.268026 0.389409
v -0.358859 0.268026 0.476066
v -0.182945 0.268026 0.529429
v 0.000000 0.268026 0.547448
v 0.182945 0.268026 0.529429
v 0.358860 0.268026 0.476066
v 0.520984 0.268026 0.389409
v 0.663086 0.268026 0.272788
v 0.779707 0.268026 0.130685
v 0.866364 0.268026 -0.031439
v 0.919727 0.268026 -0.207353
v 0.937745 0.268026 -0.390299
v 0.919726 0.268026 -0.573244
v 0.866363 0.268026 -0.749158
v 0.779706 0.268026 -0.911282
v 0.663085 0.268026 -1.053384
v 0.520982 0.268026 -1.170005
v 0.358858 0.268026 -1.256662
v 0.182944 0.268026 -1.310024
v -0.169600 0.319079 -1.242935
v -0.000000 0.319079 -1.259640
v -0.332683 0.319079 -1.193465
v -0.482980 0.319079 -1.113129
v -0.614717 0.319079 -1.005015
v -0.722831 0.319079 -0.873278
v -0.803167 0.319079 -0.722980
v -0.852638 0.319079 -0.559898
v -0.869342 0.319079 -0.390298
v -0.852638 0.319079 -0.220698
v -0.803167 0.319079 -0.057615
v -0.722831 0.319079 0.092683
v -0.614717 0.319079 0.224420
v -0.482980 0.319079 0.332534
v -0.332683 0.319079 0.412869
v -0.169600 0.319079 0.462340
v 0.000000 0.319079 0.479044
v 0.169601 0.319079 0.462340
v 0.332683 0.319079 0.412869
v 0.482981 0.319079 0.332533
v 0.614718 0.319079 0.224419
v 0.722832 0.319079 0.092682
v 0.803167 0.319079 -0.057616
v 0.852638 0.319079 -0.220698
v 0.869342 0.319079 -0.390299
v 0.852637 0.319079 -0.559899
v 0.803167 0.319079 -0.722981
v 0.722831 0.319079 -0.873279
v 0.614717 0.319079 -1.005016
v 0.482979 0.319079 -1.113130
v 0.332682 0.319079 -1.193465
v 0.169599 0.319079 -1.242936
v -0.182945 0.185066 -1.310024
v 0.000000 0.185066 -1.328043
v -0.358860 0.185066 -1.256661
v -0.520983 0.185066 -1.170004
v -0.663086 0.185066 -1.053384
v -0.779707 0.185066 -0.911281
v -0.866364 0.185066 -0.749157
v -0.919727 0.185066 -0.573243
v -0.937745 0.185066 -0.390298
v -0.919727 0.185066 -0.207353
v -0.866364 0.185066 -0.031438
v -0.779707 0.185066 0.130686
v -0.663086 0.185066 0.272788
v -0.520983 0.185066 0.389409
v -0.358859 0.185066 0.476066
v -0.182945 0.185066 0.529429
v 0.000000 0.185066 0.547448
v 0.182945 0.185066 0.529429
v 0.358860 0.185066 0.476066
v 0.520984 0.185066 0.389409
v 0.663086 0.185066 0.272788
v 0.779707 0.185066 0.130685
v 0.866364 0.185066 -0.031439
v 0.919727 0.185066 -0.207353
v 0.937745 0.185066 -0.390299
v 0.919726 0.185066 -0.573244
v 0.866363 0.185066 -0.749158
v 0.779706 0.185066 -0.911282
v 0.663085 0.185066 -1.053384
v 0.520982 0.185066 -1.170005
v 0.358858 0.185066 -1.256662
v 0.182944 0.185066 -1.310024
v -0.182945 0.268026 -1.310024
v -0.000000 0.268026 -1.328043
v -0.358860 0.268026 -1.256661
v -0.520983 0.268026 -1.170004
v -0.663086 0.268026 -1.053384
v -0.779707 0.268026 -0.911281
v -0.866364 0.268026 -0.749157
v -0.919727 0.268026 -0.573243
v -0.937745 0.268026 -0.390298
v -0.919727 0.268026 -0.207353
v -0.866364 0.268026 -0.031438
v -0.779707 0.268026 0.130686
v -0.663086 0.268026 0.272788
v -0.520983 0.268026 0.389409
v -0.358859 0.268026 0.476066
v -0.182945 0.268026 0.529429
v 0.000000 0.268026 0.547448
v 0.182945 0.268026 0.529429
v 0.358860 0.268026 0.476066
v 0.520984 0.268026 0.389409
v 0.663086 0.268026 0.272788
v 0.779707 0.268026 0.130685
v 0.866364 0.268026 -0.031439
v 0.919727 0.268026 -0.207353
v 0.937745 0.268026 -0.390299
v 0.919726 0.268026 -0.573244
v 0.866363 0.268026 -0.749158
v 0.779706 0.268026 -0.911282
v 0.663085 0.268026 -1.053384
v 0.520982 0.268026 -1.170005
v 0.358858 0.268026 -1.256662
v 0.182944 0.268026 -1.310024
v -0.169600 0.319079 -1.242935
v -0.000000 0.319079 -1.259640
v -0.332683 0.319079 -1.193465
v -0.482980 0.319079 -1.113129
v -0.614717 0.319079 -1.005015
v -0.722831 0.319079 -0.873278
v -0.803167 0.319079 -0.722980
v -0.852638 0.319079 -0.559898
v -0.869342 0.319079 -0.390298
v -0.852638 0.319079 -0.220698
v -0.803167 0.319079 -0.057615
v -0.722831 0.319079 0.092683
v -0.614717 0.319079 0.224420
v -0.482980 0.319079 0.332534
v -0.332683 0.319079 0.412869
v -0.169600 0.319079 0.462340
v 0.000000 0.319079 0.479044
v 0.169601 0.319079 0.462340
v 0.332683 0.319079 0.412869
v 0.482981 0.319079 0.332533
v 0.614718 0.319079 0.224419
v 0.722832 0.319079 0.092682
v 0.803167 0.319079 -0.057616
v 0.852638 0.319079 -0.220698
v 0.869342 0.319079 -0.390299
v 0.852637 0.319079 -0.559899
v 0.803167 0.319079 -0.722981
v 0.722831 0.319079 -0.873279
v 0.614717 0.319079 -1.005016
v 0.482979 0.319079 -1.113130
v 0.332682 0.319079 -1.193465
v 0.169599 0.319079 -1.242936
vt 0.6610 0.3683
vt 0.1148 0.5077
vt 0.8872 0.7050
vt 0.1534 0.4632
vt 0.2269 0.4374
vt 0.1787 0.4736
vt 0.5826 0.3536
vt 0.5010 0.3486
vt 0.5010 0.3486
vt 0.2054 0.7886
vt 0.2687 0.8206
vt 0.2687 0.8206
vt 0.5826 0.8591
vt 0.6610 0.8445
vt 0.6610 0.8445
vt 0.6610 0.3683
vt 0.5826 0.3536
vt 0.1534 0.7495
vt 0.2054 0.7886
vt 0.5010 0.8641
vt 0.5826 0.8591
vt 0.7333 0.3921
vt 0.6610 0.3683
vt 0.1148 0.7050
vt 0.1534 0.7495
vt 0.7966 0.4241
vt 0.7333 0.3921
vt 0.0910 0.6566
vt 0.1148 0.7050
vt 0.8486 0.4632
vt 0.7966 0.4241
vt 0.0829 0.6064
vt 0.0910 0.6566
vt 0.8872 0.5077
vt 0.8486 0.4632
vt 0.0910 0.5561
vt 0.0829 0.6064
vt 0.9110 0.5561
vt 0.8872 0.5077
vt 0.1148 0.5077
vt 0.0910 0.5561
vt 0.9191 0.6064
vt 0.9110 0.5561
vt 0.1534 0.4632
vt 0.1148 0.5077
vt 0.9110 0.6566
vt 0.9191 0.6064
vt 0.2054 0.4241
vt 0.1534 0.4632
vt 0.8872 0.7050
vt 0.9110 0.6566
vt 0.2687 0.3921
vt 0.2054 0.4241
vt 0.8486 0.7495
vt 0.8872 0.7050
vt 0.3410 0.3683
vt 0.2687 0.3921
vt 0.4194 0.8591
vt 0.5010 0.8641
vt 0.7966 0.7886
vt 0.8486 0.7495
vt 0.4194 0.3536
vt 0.3410 0.3683
vt 0.3410 0.8445
vt 0.4194 0.8591
vt 0.7333 0.8206
vt 0.7966 0.7886
vt 0.4194 0.3536
vt 0.3410 0.8445
vt 0.7333 0.8206
vt 0.5010 0.3674
vt 0.8886 0.6064
vt 0.5010 0.8453
vt 0.8872 0.7050
vt 0.8811 0.6530
vt 0.9110 0.6566
vt 0.2054 0.4241
vt 0.2857 0.4077
vt 0.8486 0.7495
vt 0.8591 0.6978
vt 0.2687 0.3921
vt 0.3527 0.3856
vt 0.4194 0.8591
vt 0.5010 0.8453
vt 0.5010 0.8641
vt 0.7966 0.7886
vt 0.8233 0.7391
vt 0.3410 0.3683
vt 0.4254 0.3720
vt 0.3527 0.8271
vt 0.4254 0.8407
vt 0.7333 0.8206
vt 0.7751 0.7753
vt 0.4194 0.3536
vt 0.5010 0.3674
vt 0.3410 0.8445
vt 0.2857 0.8050
vt 0.6610 0.8445
vt 0.7163 0.8050
vt 0.5010 0.3486
vt 0.5766 0.3720
vt 0.2054 0.7886
vt 0.2687 0.8206
vt 0.5826 0.8591
vt 0.6493 0.8271
vt 0.5826 0.3536
vt 0.6493 0.3856
vt 0.1787 0.7391
vt 0.2269 0.7753
vt 0.5766 0.8407
vt 0.7333 0.3921
vt 0.6610 0.3683
vt 0.1534 0.7495
vt 0.1429 0.6978
vt 0.7966 0.4241
vt 0.7163 0.4077
vt 0.1148 0.7050
vt 0.1209 0.6530
vt 0.8486 0.4632
vt 0.7751 0.4374
vt 0.0910 0.6566
vt 0.1134 0.6064
vt 0.8872 0.5077
vt 0.8233 0.4736
vt 0.0829 0.6064
vt 0.1209 0.5597
vt 0.9110 0.5561
vt 0.8591 0.5149
vt 0.0910 0.5561
vt 0.1429 0.5149
vt 0.9191 0.6064
vt 0.8811 0.5597
vt 0.1148 0.5077
vt 0.8886 0.6064
vt 0.3410 0.8445
vt 0.4194 0.8591
vt 0.5010 0.8641
vt 0.5826 0.8591
vt 0.6610 0.8445
vt 0.7333 0.8206
vt 0.7966 0.7886
vt 0.8486 0.7495
vt 0.9110 0.6566
vt 0.9191 0.6064
vt 0.9110 0.5561
vt 0.8872 0.5077
vt 0.8486 0.4632
vt 0.7966 0.4241
vt 0.7333 0.3921
vt 0.5826 0.3536
vt 0.5010 0.3486
vt 0.4194 0.3536
vt 0.3410 0.3683
vt 0.2687 0.3921
vt 0.2054 0.4241
vt 0.1534 0.4632
vt 0.0910 0.5561
vt 0.0829 0.6064
vt 0.0910 0.6566
vt 0.1148 0.7050
vt 0.1534 0.7495
vt 0.2054 0.7886
vt 0.2687 0.8206
vt 0.4254 0.8407
vt 0.3527 0.8271
vt 0.2857 0.8050
vt 0.2269 0.7753
vt 0.1787 0.7391
vt 0.1429 0.6978
vt 0.1209 0.6530
vt 0.1134 0.6064
vt 0.1209 0.5597
vt 0.1429 0.5149
vt 0.1787 0.4736
vt 0.2269 0.4374
vt 0.2857 0.4077
vt 0.3527 0.3856
vt 0.4254 0.3720
vt 0.5766 0.3720
vt 0.6493 0.3856
vt 0.7163 0.4077
vt 0.7751 0.4374
vt 0.8233 0.4736
vt 0.8591 0.5149
vt 0.8811 0.5597
vt 0.8811 0.6530
vt 0.8591 0.6978
vt 0.8233 0.7391
vt 0.7751 0.7753
vt 0.7163 0.8050
vt 0.6493 0.8271
vt 0.5766 0.8407
vn 0.0000 -1.0000 0.0000
vn -0.4638 0.8000 0.3806
vn 0.0980 0.0000 0.9952
vn -0.6344 0.0000 -0.7730
vn 0.2903 0.0000 -0.9569
vn 0.2903 0.0000 0.9569
vn -0.7730 0.0000 -0.6344
vn 0.0980 0.0000 -0.9952
vn 0.4714 0.0000 0.8819
vn -0.8819 0.0000 -0.4714
vn 0.6344 0.0000 0.7730
vn -0.9569 0.0000 -0.2903
vn 0.7730 0.0000 0.6344
vn -0.9952 0.0000 -0.0980
vn 0.8819 0.0000 0.4714
vn -0.9952 0.0000 0.0980
vn 0.9569 0.0000 0.2903
vn -0.9569 0.0000 0.2903
vn 0.9952 0.0000 0.0980
vn -0.8819 0.0000 0.4714
vn 0.9952 0.0000 -0.0980
vn -0.7730 0.0000 0.6344
vn 0.9569 0.0000 -0.2903
vn -0.6344 0.0000 0.7730
vn 0.8819 0.0000 -0.4714
vn -0.4714 0.0000 0.8819
vn -0.0980 0.0000 -0.9952
vn 0.7730 0.0000 -0.6344
vn -0.2903 0.0000 0.9569
vn -0.2903 0.0000 -0.9569
vn 0.6344 0.0000 -0.7730
vn -0.0980 0.0000 0.9952
vn -0.4714 0.0000 -0.8819
vn 0.4714 0.0000 -0.8819
vn 0.0000 1.0000 0.0000
vn 0.5741 0.8000 -0.1742
vn -0.3806 0.8000 0.4638
vn 0.5291 0.8000 -0.2828
vn -0.2828 0.8000 0.5291
vn -0.0588 0.8000 -0.5971
vn 0.4638 0.8000 -0.3806
vn -0.1742 0.8000 0.5741
vn -0.1742 0.8000 -0.5741
vn 0.3806 0.8000 -0.4638
vn -0.0588 0.8000 0.5971
vn -0.2828 0.8000 -0.5291
vn 0.2828 0.8000 -0.5291
vn 0.0588 0.8000 0.5971
vn -0.3806 0.8000 -0.4638
vn 0.1742 0.8000 -0.5741
vn 0.1742 0.8000 0.5741
vn -0.4638 0.8000 -0.3806
vn 0.0588 0.8000 -0.5971
vn 0.2828 0.8000 0.5291
vn -0.5291 0.8000 -0.2828
vn 0.3806 0.8000 0.4638
vn -0.5741 0.8000 -0.1742
vn 0.4638 0.8000 0.3806
vn -0.5971 0.8000 -0.0588
vn 0.5291 0.8000 0.2828
vn -0.5971 0.8000 0.0588
vn 0.5741 0.8000 0.1742
vn -0.5741 0.8000 0.1742
vn 0.5971 0.8000 0.0588
vn -0.5291 0.8000 0.2828
vn 0.5971 0.8000 -0.0588
s off
f 105/87/19 97/88/19 113/89/19
f 130/90/20 259/91/20 258/92/20
f 200/93/21 231/94/21 199/95/21
f 187/96/22 218/97/22 186/98/22
f 214/99/23 149/100/23 213/101/23
f 201/102/24 232/103/24 200/93/24
f 188/104/25 123/105/25 187/96/25
f 184/106/26 150/107/26 214/99/26
f 202/108/27 233/109/27 201/102/27
f 189/110/28 220/111/28 188/104/28
f 203/112/29 138/113/29 202/108/29
f 190/114/30 221/115/30 189/110/30
f 204/116/31 139/117/31 203/112/31
f 191/118/32 222/119/32 190/114/32
f 205/120/33 140/121/33 204/116/33
f 192/122/34 223/123/34 191/118/34
f 206/124/35 141/125/35 205/120/35
f 193/126/36 224/127/36 192/122/36
f 207/128/37 142/129/37 206/124/37
f 194/130/38 225/131/38 193/126/38
f 208/132/39 143/133/39 207/128/39
f 195/134/40 226/135/40 194/130/40
f 209/136/41 144/137/41 208/132/41
f 196/138/42 131/139/42 195/134/42
f 210/140/43 145/141/43 209/136/43
f 197/142/44 228/143/44 196/138/44
f 183/144/45 120/145/45 184/106/45
f 211/146/46 146/147/46 210/140/46
f 198/148/47 229/149/47 197/142/47
f 185/150/48 119/151/48 183/144/48
f 212/152/49 147/153/49 211/146/49
f 199/95/50 230/154/50 198/148/50
f 186/98/51 217/155/51 185/150/51
f 213/101/52 148/156/52 212/152/52
f 167/157/53 271/158/53 248/159/53
f 241/160/54 176/161/54 240/162/54
f 227/163/55 260/164/55 259/91/55
f 242/165/56 177/166/56 241/160/56
f 132/167/57 261/168/57 260/164/57
f 215/169/58 152/170/58 216/171/58
f 243/172/59 178/173/59 242/165/59
f 133/174/60 262/175/60 261/168/60
f 215/169/61 249/176/61 151/177/61
f 244/178/62 179/179/62 243/172/62
f 134/180/63 263/181/63 262/175/63
f 121/182/64 250/183/64 249/176/64
f 245/184/65 180/185/65 244/178/65
f 135/186/66 264/187/66 263/181/66
f 219/188/67 250/183/67 122/189/67
f 246/190/68 181/191/68 245/184/68
f 136/192/69 265/193/69 264/187/69
f 219/188/70 252/194/70 155/195/70
f 246/190/71 152/170/71 182/196/71
f 234/197/72 265/193/72 137/198/72
f 124/199/73 253/200/73 252/194/73
f 235/201/74 170/202/74 234/197/74
f 125/203/75 254/204/75 253/200/75
f 236/205/76 171/206/76 235/201/76
f 126/207/77 255/208/77 254/204/77
f 237/209/78 172/210/78 236/205/78
f 127/211/79 256/212/79 255/208/79
f 238/213/80 173/214/80 237/209/80
f 128/215/81 257/216/81 256/212/81
f 239/217/82 174/218/82 238/213/82
f 129/219/83 258/92/83 257/216/83
f 240/162/84 175/220/84 239/217/84
f 89/221/19 88/222/19 87/223/19
f 87/223/19 118/224/19 89/221/19
f 117/225/19 116/226/19 115/227/19
f 115/227/19 114/228/19 113/89/19
f 113/89/19 112/229/19 111/230/19
f 111/230/19 110/231/19 113/89/19
f 109/232/19 108/233/19 107/234/19
f 107/234/19 106/235/19 105/87/19
f 105/87/19 104/236/19 103/237/19
f 103/237/19 102/238/19 105/87/19
f 101/239/19 100/240/19 99/241/19
f 99/241/19 98/242/19 97/88/19
f 97/88/19 96/243/19 95/244/19
f 95/244/19 94/245/19 97/88/19
f 93/246/19 92/247/19 91/248/19
f 91/248/19 90/249/19 89/221/19
f 89/221/19 118/224/19 117/225/19
f 117/225/19 115/227/19 113/89/19
f 113/89/19 110/231/19 109/232/19
f 109/232/19 107/234/19 105/87/19
f 105/87/19 102/238/19 101/239/19
f 101/239/19 99/241/19 105/87/19
f 97/88/19 94/245/19 93/246/19
f 93/246/19 91/248/19 89/221/19
f 89/221/19 117/225/19 113/89/19
f 113/89/19 109/232/19 105/87/19
f 105/87/19 99/241/19 97/88/19
f 97/88/19 93/246/19 89/221/19
f 89/221/19 113/89/19 97/88/19
f 130/90/20 227/163/20 259/91/20
f 200/93/21 232/103/21 231/94/21
f 187/96/22 123/105/22 218/97/22
f 214/99/23 150/107/23 149/100/23
f 201/102/24 233/109/24 232/103/24
f 188/104/25 220/111/25 123/105/25
f 184/106/26 120/145/26 150/107/26
f 202/108/27 138/113/27 233/109/27
f 189/110/28 221/115/28 220/111/28
f 203/112/29 139/117/29 138/113/29
f 190/114/30 222/119/30 221/115/30
f 204/116/31 140/121/31 139/117/31
f 191/118/32 223/123/32 222/119/32
f 205/120/33 141/125/33 140/121/33
f 192/122/34 224/127/34 223/123/34
f 206/124/35 142/129/35 141/125/35
f 193/126/36 225/131/36 224/127/36
f 207/128/37 143/133/37 142/129/37
f 194/130/38 226/135/38 225/131/38
f 208/132/39 144/137/39 143/133/39
f 195/134/40 131/139/40 226/135/40
f 209/136/41 145/141/41 144/137/41
f 196/138/42 228/143/42 131/139/42
f 210/140/43 146/147/43 145/141/43
f 197/142/44 229/149/44 228/143/44
f 183/144/45 119/151/45 120/145/45
f 211/146/46 147/153/46 146/147/46
f 198/148/47 230/154/47 229/149/47
f 185/150/48 217/155/48 119/151/48
f 212/152/49 148/156/49 147/153/49
f 199/95/50 231/94/50 230/154/50
f 186/98/51 218/97/51 217/155/51
f 213/101/52 149/100/52 148/156/52
f 248/159/53 247/250/53 153/251/53
f 153/251/53 154/252/53 251/253/53
f 251/253/53 156/254/53 157/255/53
f 157/255/53 158/256/53 251/253/53
f 159/257/53 160/258/53 161/259/53
f 161/259/53 162/260/53 159/257/53
f 163/261/53 164/262/53 165/263/53
f 165/263/53 166/264/53 167/157/53
f 167/157/53 168/265/53 169/266/53
f 169/266/53 266/267/53 167/157/53
f 267/268/53 268/269/53 269/270/53
f 269/270/53 270/271/53 267/268/53
f 271/158/53 272/272/53 273/273/53
f 273/273/53 274/274/53 275/275/53
f 275/275/53 276/276/53 277/277/53
f 277/277/53 278/278/53 275/275/53
f 248/159/53 153/251/53 251/253/53
f 251/253/53 158/256/53 159/257/53
f 159/257/53 162/260/53 163/261/53
f 163/261/53 165/263/53 167/157/53
f 167/157/53 266/267/53 267/268/53
f 267/268/53 270/271/53 271/158/53
f 271/158/53 273/273/53 248/159/53
f 275/275/53 278/278/53 248/159/53
f 248/159/53 251/253/53 159/257/53
f 159/257/53 163/261/53 167/157/53
f 167/157/53 267/268/53 271/158/53
f 273/273/53 275/275/53 248/159/53
f 248/159/53 159/257/53 167/157/53
f 241/160/54 177/166/54 176/161/54
f 227/163/55 132/167/55 260/164/55
f 242/165/56 178/173/56 177/166/56
f 132/167/57 133/174/57 261/168/57
f 215/169/58 151/177/58 152/170/58
f 243/172/59 179/179/59 178/173/59
f 133/174/60 134/180/60 262/175/60
f 215/169/61 121/182/61 249/176/61
f 244/178/62 180/185/62 179/179/62
f 134/180/63 135/186/63 263/181/63
f 121/182/64 122/189/64 250/183/64
f 245/184/65 181/191/65 180/185/65
f 135/186/66 136/192/66 264/187/66
f 219/188/67 155/195/67 250/183/67
f 246/190/68 182/196/68 181/191/68
f 136/192/69 137/198/69 265/193/69
f 219/188/70 124/199/70 252/194/70
f 246/190/71 216/171/71 152/170/71
f 234/197/72 170/202/72 265/193/72
f 124/199/73 125/203/73 253/200/73
f 235/201/74 171/206/74 170/202/74
f 125/203/75 126/207/75 254/204/75
f 236/205/76 172/210/76 171/206/76
f 126/207/77 127/211/77 255/208/77
f 237/209/78 173/214/78 172/210/78
f 127/211/79 128/215/79 256/212/79
f 238/213/80 174/218/80 173/214/80
f 128/215/81 129/219/81 257/216/81
f 239/217/82 175/220/82 174/218/82
f 129/219/83 130/90/83 258/92/83
f 240/162/84 176/161/84 175/220/84
