# Blender v2.77 (sub 0) OBJ File: ''
# www.blender.org
mtllib circle.mtl
o Cylinder
v -0.287013 0.075000 0.692910
v 0.692910 0.075000 0.287013
v -0.692910 0.075000 -0.287013
v 0.146317 -0.075000 0.735590
v -0.735590 -0.075000 0.146316
v 0.735590 -0.075000 -0.146318
v 0.287013 0.075000 -0.692910
v 0.146317 0.075000 -0.735590
v 0.000000 0.075000 -0.750000
v -0.146316 0.075000 -0.735590
v -0.287012 0.075000 -0.692910
v -0.416676 0.075000 -0.623603
v -0.530329 0.075000 -0.530331
v -0.623601 0.075000 -0.416679
v -0.735590 0.075000 -0.146317
v -0.750000 0.075000 0.000000
v -0.735590 0.075000 0.146318
v -0.692910 0.075000 0.287013
v -0.623603 0.075000 0.416678
v -0.530331 0.075000 0.530329
v -0.416679 0.075000 0.623601
v -0.146317 0.075000 0.735590
v 0.000000 0.075000 0.750000
v 0.146317 0.075000 0.735590
v 0.287013 0.075000 0.692910
v 0.416678 0.075000 0.623603
v 0.530331 0.075000 0.530331
v 0.623603 0.075000 0.416678
v 0.735590 0.075000 0.146318
v 0.750000 0.075000 0.000000
v 0.735590 0.075000 -0.146317
v 0.692910 0.075000 -0.287012
v 0.623603 0.075000 -0.416678
v 0.530331 0.075000 -0.530331
v 0.416678 0.075000 -0.623603
v -0.146316 -0.075000 -0.735590
v 0.000000 -0.075000 -0.750000
v 0.146317 -0.075000 -0.735590
v 0.287013 -0.075000 -0.692910
v 0.416678 -0.075000 -0.623603
v 0.530331 -0.075000 -0.530331
v 0.623603 -0.075000 -0.416678
v 0.692910 -0.075000 -0.287013
v 0.750000 -0.075000 -0.000000
v 0.735590 -0.075000 0.146317
v 0.692910 -0.075000 0.287012
v 0.623603 -0.075000 0.416678
v 0.530331 -0.075000 0.530331
v 0.416678 -0.075000 0.623603
v 0.287013 -0.075000 0.692910
v 0.000000 -0.075000 0.750000
v -0.146317 -0.075000 0.735590
v -0.287013 -0.075000 0.692910
v -0.416679 -0.075000 0.623601
v -0.530331 -0.075000 0.530329
v -0.623603 -0.075000 0.416678
v -0.692910 -0.075000 0.287012
v -0.750000 -0.075000 -0.000002
v -0.735590 -0.075000 -0.146319
v -0.692910 -0.075000 -0.287013
v -0.623601 -0.075000 -0.416679
v -0.530329 -0.075000 -0.530331
v -0.416676 -0.075000 -0.623603
v -0.287012 -0.075000 -0.692910
vt 0.7532 0.0000
vt 0.8015 0.0772
vt 0.7532 0.0772
vt 0.8015 0.0000
vt 0.8470 0.0772
vt 0.8470 0.0000
vt 0.8880 0.0772
vt 0.8880 0.0000
vt 0.9228 0.0772
vt 0.1460 -0.0000
vt 0.1809 0.0772
vt 0.1460 0.0772
vt 0.1809 0.0000
vt 0.2218 0.0772
vt 0.2218 0.0000
vt 0.2673 0.0772
vt 0.2673 0.0000
vt 0.3156 0.0772
vt 0.3156 0.0000
vt 0.3649 0.0772
vt 0.3649 0.0000
vt 0.4132 0.0772
vt 0.4132 0.0000
vt 0.4586 0.0772
vt 0.4586 0.0000
vt 0.4996 0.0772
vt 0.4996 0.0000
vt 0.5344 0.0772
vt 0.9228 0.3187
vt 1.0000 0.2778
vt 1.0000 0.3187
vt 0.9228 0.2778
vt 1.0000 0.2323
vt 0.9228 0.2323
vt 1.0000 0.1840
vt 0.9228 0.1840
vt 1.0000 0.1347
vt 0.9228 0.1347
vt 1.0000 0.0864
vt 0.9228 0.0864
vt 1.0000 0.0409
vt 0.9228 0.0409
vt 1.0000 0.0000
vt 1.0000 0.3187
vt 0.9228 0.3597
vt 0.9228 0.3187
vt 1.0000 0.3597
vt 0.9228 0.4052
vt 1.0000 0.4052
vt 0.9228 0.4535
vt 1.0000 0.4535
vt 0.9228 0.5027
vt 1.0000 0.5027
vt 0.9228 0.5510
vt 1.0000 0.5510
vt 0.9228 0.5965
vt 1.0000 0.5965
vt 0.9228 0.6375
vt 0.5344 0.0000
vt 0.5692 0.0772
vt 0.5344 0.0772
vt 0.5692 0.0000
vt 0.6102 0.0772
vt 0.6102 0.0000
vt 0.6557 0.0772
vt 0.6557 0.0000
vt 0.7040 0.0772
vt 0.7040 0.0000
vt 0.9228 0.0000
vt 0.5344 0.0000
vt 0.9228 0.0000
vt 1.0000 0.6375
vt 0.3066 0.1591
vt 0.8399 0.3800
vt 0.0856 0.6924
vt 0.3831 0.1358
vt 0.8632 0.4566
vt 0.0624 0.6159
vt 0.6190 0.9134
vt 0.5424 0.9366
vt 0.4628 0.9444
vt 0.3831 0.9366
vt 0.3066 0.9134
vt 0.2360 0.8756
vt 0.1741 0.8249
vt 0.1234 0.7630
vt 0.0624 0.6159
vt 0.0546 0.5362
vt 0.0624 0.4566
vt 0.0856 0.3800
vt 0.1234 0.3094
vt 0.1741 0.2476
vt 0.2360 0.1968
vt 0.3831 0.1358
vt 0.4628 0.1280
vt 0.5424 0.1358
vt 0.6190 0.1591
vt 0.6896 0.1968
vt 0.7514 0.2476
vt 0.8022 0.3094
vt 0.8632 0.4566
vt 0.8710 0.5362
vt 0.8632 0.6159
vt 0.8399 0.6924
vt 0.8022 0.7630
vt 0.7514 0.8249
vt 0.6896 0.8756
vt 0.5424 0.9366
vt 0.4628 0.9444
vt 0.3831 0.9366
vt 0.3066 0.9134
vt 0.2360 0.8756
vt 0.1741 0.8249
vt 0.1234 0.7630
vt 0.0856 0.6924
vt 0.0546 0.5362
vt 0.0624 0.4566
vt 0.0856 0.3800
vt 0.1234 0.3094
vt 0.1741 0.2476
vt 0.2360 0.1968
vt 0.3066 0.1591
vt 0.4628 0.1280
vt 0.5424 0.1358
vt 0.6190 0.1591
vt 0.6896 0.1968
vt 0.7514 0.2476
vt 0.8022 0.3094
vt 0.8399 0.3800
vt 0.8710 0.5362
vt 0.8632 0.6159
vt 0.8399 0.6924
vt 0.8022 0.7630
vt 0.7514 0.8249
vt 0.6896 0.8756
vt 0.6190 0.9134
vn 0.0980 0.0000 -0.9952
vn 0.2903 0.0000 -0.9569
vn 0.4714 0.0000 -0.8819
vn 0.6344 0.0000 -0.7730
vn 0.7730 0.0000 -0.6344
vn 0.8819 0.0000 -0.4714
vn 0.9569 0.0000 -0.2903
vn 0.9952 0.0000 -0.0980
vn 0.9952 -0.0000 0.0980
vn 0.9569 -0.0000 0.2903
vn 0.8819 -0.0000 0.4714
vn 0.7730 0.0000 0.6344
vn 0.6344 0.0000 0.7730
vn 0.4714 0.0000 0.8819
vn 0.2903 0.0000 0.9569
vn 0.0980 0.0000 0.9952
vn -0.0980 0.0000 0.9952
vn -0.2903 0.0000 0.9569
vn -0.4714 0.0000 0.8819
vn -0.6344 0.0000 0.7730
vn -0.7730 0.0000 0.6344
vn -0.8819 -0.0000 0.4714
vn -0.9569 -0.0000 0.2903
vn -0.9952 -0.0000 0.0980
vn -0.9952 0.0000 -0.0980
vn -0.9569 0.0000 -0.2903
vn -0.8819 0.0000 -0.4714
vn -0.7730 0.0000 -0.6344
vn -0.6344 0.0000 -0.7730
vn -0.4714 0.0000 -0.8819
vn -0.2903 0.0000 -0.9569
vn -0.0980 0.0000 -0.9952
vn -0.0000 1.0000 0.0000
vn -0.0000 -1.0000 -0.0000
usemtl Material_NONE
s 1
f 9/1/1 38/2/1 37/3/1
f 8/4/2 39/5/2 38/2/2
f 7/6/3 40/7/3 39/5/3
f 35/8/4 41/9/4 40/7/4
f 34/10/5 42/11/5 41/12/5
f 33/13/6 43/14/6 42/11/6
f 32/15/7 6/16/7 43/14/7
f 31/17/8 44/18/8 6/16/8
f 30/19/9 45/20/9 44/18/9
f 29/21/10 46/22/10 45/20/10
f 2/23/11 47/24/11 46/22/11
f 28/25/12 48/26/12 47/24/12
f 27/27/13 49/28/13 48/26/13
f 26/29/14 50/30/14 49/31/14
f 25/32/15 4/33/15 50/30/15
f 24/34/16 51/35/16 4/33/16
f 23/36/17 52/37/17 51/35/17
f 22/38/18 53/39/18 52/37/18
f 1/40/19 54/41/19 53/39/19
f 21/42/20 55/43/20 54/41/20
f 20/44/21 56/45/21 55/46/21
f 19/47/22 57/48/22 56/45/22
f 18/49/23 5/50/23 57/48/23
f 17/51/24 58/52/24 5/50/24
f 16/53/25 59/54/25 58/52/25
f 15/55/26 60/56/26 59/54/26
f 3/57/27 61/58/27 60/56/27
f 14/59/28 62/60/28 61/61/28
f 13/62/29 63/63/29 62/60/29
f 12/64/30 64/65/30 63/63/30
f 11/66/31 36/67/31 64/65/31
f 10/68/32 37/3/32 36/67/32
f 9/1/1 8/4/1 38/2/1
f 8/4/2 7/6/2 39/5/2
f 7/6/3 35/8/3 40/7/3
f 35/8/4 34/69/4 41/9/4
f 34/10/5 33/13/5 42/11/5
f 33/13/6 32/15/6 43/14/6
f 32/15/7 31/17/7 6/16/7
f 31/17/8 30/19/8 44/18/8
f 30/19/9 29/21/9 45/20/9
f 29/21/10 2/23/10 46/22/10
f 2/23/11 28/25/11 47/24/11
f 28/25/12 27/27/12 48/26/12
f 27/27/13 26/70/13 49/28/13
f 26/29/14 25/32/14 50/30/14
f 25/32/15 24/34/15 4/33/15
f 24/34/16 23/36/16 51/35/16
f 23/36/17 22/38/17 52/37/17
f 22/38/18 1/40/18 53/39/18
f 1/40/19 21/42/19 54/41/19
f 21/42/20 20/71/20 55/43/20
f 20/44/21 19/47/21 56/45/21
f 19/47/22 18/49/22 57/48/22
f 18/49/23 17/51/23 5/50/23
f 17/51/24 16/53/24 58/52/24
f 16/53/25 15/55/25 59/54/25
f 15/55/26 3/57/26 60/56/26
f 3/57/27 14/72/27 61/58/27
f 14/59/28 13/62/28 62/60/28
f 13/62/29 12/64/29 63/63/29
f 12/64/30 11/66/30 64/65/30
f 11/66/31 10/68/31 36/67/31
f 10/68/32 9/1/32 37/3/32
usemtl Material.008
f 1/73/33 2/74/33 3/75/33
f 4/76/34 5/77/34 6/78/34
f 7/79/33 8/80/33 9/81/33
f 9/81/33 10/82/33 7/79/33
f 11/83/33 12/84/33 13/85/33
f 13/85/33 14/86/33 3/75/33
f 3/75/33 15/87/33 16/88/33
f 16/88/33 17/89/33 3/75/33
f 18/90/33 19/91/33 1/73/33
f 20/92/33 21/93/33 1/73/33
f 1/73/33 22/94/33 23/95/33
f 23/95/33 24/96/33 25/97/33
f 25/97/33 26/98/33 27/99/33
f 27/99/33 28/100/33 2/74/33
f 2/74/33 29/101/33 30/102/33
f 30/102/33 31/103/33 2/74/33
f 32/104/33 33/105/33 34/106/33
f 34/106/33 35/107/33 7/79/33
f 7/79/33 10/82/33 11/83/33
f 11/83/33 13/85/33 7/79/33
f 3/75/33 17/89/33 18/90/33
f 19/91/33 20/92/33 1/73/33
f 1/73/33 23/95/33 2/74/33
f 25/97/33 27/99/33 2/74/33
f 2/74/33 31/103/33 32/104/33
f 32/104/33 34/106/33 2/74/33
f 7/79/33 13/85/33 3/75/33
f 3/75/33 18/90/33 1/73/33
f 23/95/33 25/97/33 2/74/33
f 2/74/33 34/106/33 7/79/33
f 7/79/33 3/75/33 2/74/33
f 36/108/34 37/109/34 38/110/34
f 38/110/34 39/111/34 40/112/34
f 40/112/34 41/113/34 42/114/34
f 42/114/34 43/115/34 40/112/34
f 6/78/34 44/116/34 45/117/34
f 45/117/34 46/118/34 6/78/34
f 47/119/34 48/120/34 4/76/34
f 49/121/34 50/122/34 4/76/34
f 4/76/34 51/123/34 52/124/34
f 52/124/34 53/125/34 54/126/34
f 54/126/34 55/127/34 56/128/34
f 56/128/34 57/129/34 5/77/34
f 5/77/34 58/130/34 59/131/34
f 59/131/34 60/132/34 61/133/34
f 61/133/34 62/134/34 36/108/34
f 63/135/34 64/136/34 36/108/34
f 36/108/34 38/110/34 6/78/34
f 40/112/34 43/115/34 6/78/34
f 6/78/34 46/118/34 47/119/34
f 48/120/34 49/121/34 4/76/34
f 4/76/34 52/124/34 5/77/34
f 54/126/34 56/128/34 5/77/34
f 5/77/34 59/131/34 36/108/34
f 62/134/34 63/135/34 36/108/34
f 38/110/34 40/112/34 6/78/34
f 6/78/34 47/119/34 4/76/34
f 52/124/34 54/126/34 5/77/34
f 59/131/34 61/133/34 36/108/34
f 36/108/34 6/78/34 5/77/34