# Blender v2.77 (sub 0) OBJ File: 'stick_ruler.blend'
# www.blender.org
mtllib stick.mtl
o Range_5_Cube.001_Cube3_auv
v 0.183747 0.027699 -1.194213
v 0.183747 -0.027699 1.203837
v 0.183747 -0.027698 -1.194213
v 0.183747 -0.027700 5.999937
v 0.183747 -0.027699 3.601886
v 0.183747 0.027698 3.601886
v -0.183747 0.027698 5.999937
v -0.183747 -0.027700 5.999937
v 0.183747 0.027698 5.999937
v -0.183747 0.027698 3.601886
v -0.183747 -0.027699 3.601886
v -0.183747 0.027699 -1.194213
v -0.183747 0.027698 1.203837
v -0.183747 -0.027698 -1.194213
v -0.183747 -0.027699 1.203837
v 0.183747 0.027698 1.203837
v 0.183747 -0.027698 -1.194303
v 0.183747 0.027699 -3.592352
v 0.183747 0.027699 -1.194303
v -0.183747 0.027699 -1.194303
v -0.183747 -0.027698 -1.194303
v -0.183747 0.027699 -3.592352
v 0.183747 0.027699 -5.990403
v -0.183747 0.027699 -5.990403
v -0.183747 -0.027698 -3.592352
v -0.183747 -0.027698 -5.990403
v 0.183747 -0.027698 -3.592352
v 0.183747 -0.027698 -5.990403
vt 0.8606 -0.0039
vt 0.8114 0.3294
vt 0.8114 -0.0039
vt 0.8114 0.9961
vt 0.8114 0.6628
vt 0.8606 0.6628
vt 1.0000 0.0667
vt 0.9508 0.0667
vt 1.0000 0.0000
vt 0.5013 0.9966
vt 0.4493 0.6675
vt 0.5005 0.6675
vt 0.5716 0.9991
vt 0.5710 0.6675
vt 0.6228 0.9991
vt 0.4995 0.0012
vt 0.5001 0.3334
vt 0.4483 0.0012
vt 0.5706 0.0011
vt 0.6219 0.3334
vt 0.5707 0.3334
vt 0.8606 0.3294
vt 0.9098 0.6628
vt 0.8606 0.6628
vt 0.6222 0.6675
vt 0.8606 0.3294
vt 0.8114 0.9961
vt 0.8606 0.6628
vt 0.8606 0.9961
vt 1.0000 0.0667
vt 0.9508 0.0667
vt 1.0000 0.0000
vt 0.5550 0.6705
vt 0.5015 0.3368
vt 0.5527 0.3364
vt 0.4993 0.0027
vt 0.5505 0.0023
vt 0.8606 0.6628
vt 0.9098 0.6628
vt 0.9098 0.9961
vt 0.8606 0.3294
vt 0.9098 0.3294
vt 0.6264 0.3367
vt 0.6776 0.3367
vt 0.6781 0.6708
vt 0.8114 0.6628
vt 0.8114 0.3294
vt 0.8606 0.3294
vt 1.0000 0.1335
vt 0.9508 0.0667
vt 1.0000 0.0667
vt 0.9508 0.0000
vt 0.4501 0.9967
vt 0.6218 0.0010
vt 0.8606 0.9961
vt 0.9098 0.9961
vt 0.8606 -0.0039
vt 0.9098 0.3294
vt 0.4489 0.3334
vt 0.9508 0.0000
vt 0.5038 0.6709
vt 0.8606 0.9961
vt 0.3311 0.4363
vt 0.1561 0.5127
vt 0.3427 0.4363
vt 0.1375 0.4380
vt 0.6259 0.0026
vt 0.8606 0.9961
vt 0.9508 0.1335
vt 0.9098 -0.0039
vt 0.6269 0.6708
vt 0.6771 0.0026
vn 1.0000 0.0000 0.0000
vn 0.0000 0.0000 1.0000
vn 0.0000 1.0000 0.0000
vn 0.0000 -1.0000 -0.0000
vn -1.0000 0.0000 0.0000
vn 0.0000 0.0000 -1.0000
usemtl Cube3_auv
s 1
f 1/1/1 2/2/1 3/3/1
f 4/4/1 5/5/1 6/6/1
f 7/7/2 8/8/2 9/9/2
f 7/10/3 6/11/3 10/12/3
f 8/13/4 11/14/4 4/15/4
f 12/16/3 13/17/3 1/18/3
f 14/19/4 2/20/4 15/21/4
f 13/22/5 11/23/5 10/24/5
f 15/21/4 5/25/4 11/14/4
f 5/5/1 2/2/1 16/26/1
f 17/27/1 18/28/1 19/29/1
f 20/30/2 21/31/2 19/32/2
f 20/33/3 18/34/3 22/35/3
f 22/35/3 23/36/3 24/37/3
f 22/38/5 25/39/5 21/40/5
f 24/41/5 26/42/5 25/39/5
f 25/43/4 27/44/4 17/45/4
f 27/46/1 28/47/1 23/48/1
f 1/49/6 14/50/6 12/51/6
f 9/9/2 8/8/2 4/52/2
f 9/53/3 6/11/3 7/10/3
f 3/54/4 2/20/4 14/19/4
f 7/55/5 10/24/5 8/56/5
f 12/57/5 15/58/5 13/22/5
f 10/12/3 6/11/3 16/59/3
f 13/17/3 16/59/3 1/18/3
f 11/14/4 5/25/4 4/15/4
f 15/21/4 2/20/4 5/25/4
f 19/32/2 21/31/2 17/60/2
f 19/61/3 18/34/3 20/33/3
f 17/27/1 27/46/1 18/28/1
f 20/62/5 22/38/5 21/40/5
f 22/35/3 18/34/3 23/36/3
f 24/41/5 25/39/5 22/38/5
f 23/63/6 28/64/6 26/65/6 24/66/6
f 26/67/4 27/44/4 25/43/4
f 4/4/1 6/6/1 9/68/1
f 3/69/6 14/50/6 1/49/6
f 14/70/5 15/58/5 12/57/5
f 10/12/3 16/59/3 13/17/3
f 10/24/5 11/23/5 8/56/5
f 13/22/5 15/58/5 11/23/5
f 16/26/1 2/2/1 1/1/1
f 6/6/1 5/5/1 16/26/1
f 21/71/4 25/43/4 17/45/4
f 18/28/1 27/46/1 23/48/1
f 26/67/4 28/72/4 27/44/4
