# Blender v2.78 (sub 0) OBJ File: 'ARMADA_MASTER.blend'
# www.blender.org
o Obstacle_-_Station_-_Mesh_Obstacle_-_Station_Mesh_Mesh.001_Station_Mesh_Mesh.001
v 0.789658 -0.050000 1.381704
v 0.611964 -0.050000 1.507356
v -1.330708 -0.050000 0.581408
v -1.255547 0.050000 -0.563273
v 0.090893 0.050000 -1.386813
v -1.167441 0.050000 -0.807399
v 1.384049 0.050000 0.869639
v 1.248814 -0.050000 0.975850
v 1.384049 -0.050000 0.869639
v -1.355723 0.050000 -0.245459
v -1.314918 -0.050000 -0.406330
v -1.355723 -0.050000 -0.245459
v 1.508025 0.050000 0.771591
v 1.508025 -0.050000 0.771591
v -1.379374 0.050000 -0.081701
v -1.379374 -0.050000 -0.081701
v 1.127784 0.050000 -1.200234
v 1.224239 -0.050000 -1.046298
v 1.127784 -0.050000 -1.200234
v 1.619329 0.050000 0.677882
v 1.619329 -0.050000 0.677882
v -1.387286 0.050000 0.083903
v -1.387286 -0.050000 0.083903
v 1.037469 0.050000 -1.305015
v 1.037469 -0.050000 -1.305015
v 1.716551 0.050000 0.584685
v 1.716551 -0.050000 0.584685
v -1.380870 0.050000 0.250316
v -1.380870 -0.050000 0.250316
v 0.950809 0.050000 -1.368828
v 0.950809 -0.050000 -1.368828
v 1.798280 -0.050000 0.488178
v -1.361540 0.050000 0.416497
v -1.361540 -0.050000 0.416497
v 0.865317 0.050000 -1.399860
v 0.865317 -0.050000 -1.399860
v 1.863103 0.050000 0.384536
v 1.863103 -0.050000 0.384536
v -1.330708 0.050000 0.581408
v 0.778511 0.050000 -1.406296
v 0.778511 -0.050000 -1.406296
v 1.909613 -0.050000 0.269933
v -1.289788 0.050000 0.744008
v -1.289788 -0.050000 0.744008
v 0.687904 0.050000 -1.396321
v 0.687904 -0.050000 -1.396321
v 1.936395 0.050000 0.140545
v 1.936395 -0.050000 0.140545
v -1.240192 0.050000 0.903259
v -1.240192 -0.050000 0.903259
v 0.591013 0.050000 -1.378124
v 0.591013 -0.050000 -1.378124
v 1.942039 0.050000 -0.007452
v 1.942039 -0.050000 -0.007452
v -1.183335 0.050000 1.058120
v -1.183335 -0.050000 1.058120
v 0.485350 0.050000 -1.359887
v 0.485350 -0.050000 -1.359887
v 1.906155 0.050000 -0.128701
v 1.906155 -0.050000 -0.128701
v -1.120627 0.050000 1.207552
v -1.120627 -0.050000 1.207552
v 0.368433 0.050000 -1.349799
v 0.368433 -0.050000 -1.349799
v 1.864198 0.050000 -0.232131
v 1.864198 -0.050000 -0.232131
v -1.053483 0.050000 1.350516
v -1.053483 -0.050000 1.350516
v 0.237775 0.050000 -1.356046
v 0.237775 -0.050000 -1.356046
v 1.816686 0.050000 -0.321196
v 1.816686 -0.050000 -0.321196
v -0.944993 0.050000 1.524652
v -0.944993 -0.050000 1.524652
v 0.090893 -0.050000 -1.386813
v 1.764135 0.050000 -0.399351
v 1.764135 -0.050000 -0.399351
v -0.824482 0.050000 1.659729
v -0.824482 -0.050000 1.659729
v -0.074700 0.050000 -1.450286
v -0.074700 -0.050000 -1.450286
v 1.707059 0.050000 -0.470050
v 1.707059 -0.050000 -0.470050
v -0.693097 0.050000 1.758108
v -0.693097 -0.050000 1.758108
v -0.267586 0.050000 -1.559789
v -0.267586 -0.050000 -1.559789
v 1.645977 0.050000 -0.536745
v 1.645977 -0.050000 -0.536745
v -0.551984 0.050000 1.822151
v -0.551984 -0.050000 1.822151
v -0.427987 0.050000 -1.633540
v -0.427987 -0.050000 -1.633540
v 1.581404 0.050000 -0.602893
v 1.581404 -0.050000 -0.602893
v -0.402287 0.050000 1.854219
v -0.402287 -0.050000 1.854219
v -0.560496 0.050000 -1.672261
v -0.560496 -0.050000 -1.672261
v 1.513856 0.050000 -0.671946
v 1.513856 -0.050000 -0.671946
v -0.245153 0.050000 1.856672
v -0.245153 -0.050000 1.856672
v -0.669704 -0.050000 -1.676672
v 1.443850 0.050000 -0.747359
v 1.443850 -0.050000 -0.747360
v -0.081728 0.050000 1.831872
v -0.081728 -0.050000 1.831872
v -0.760201 0.050000 -1.647493
v -0.760201 -0.050000 -1.647493
v 1.371901 0.050000 -0.832586
v 1.371901 -0.050000 -0.832586
v 0.086842 0.050000 1.782178
v 0.086842 -0.050000 1.782178
v -0.836583 0.050000 -1.585446
v -0.836583 -0.050000 -1.585446
v 1.298525 0.050000 -0.931081
v 1.298525 -0.050000 -0.931081
v 0.259412 0.050000 1.709954
v 0.259412 -0.050000 1.709954
v -0.903439 0.050000 -1.491250
v -0.903439 -0.050000 -1.491250
v 1.224239 0.050000 -1.046298
v 0.434834 0.050000 1.617560
v 0.434834 -0.050000 1.617560
v -0.965360 0.050000 -1.365626
v -0.965360 -0.050000 -1.365626
v 0.611964 0.050000 1.507356
v -1.026940 0.050000 -1.209296
v -1.026940 -0.050000 -1.209296
v 0.789658 0.050000 1.381704
v -1.092769 -0.050000 -1.022981
v 0.950206 0.050000 1.228057
v 0.950206 -0.050000 1.228057
v -1.167441 -0.050000 -0.807399
v 1.103729 -0.050000 1.094047
v -1.255547 -0.050000 -0.563273
v 1.248814 0.050000 0.975850
v -1.314918 0.050000 -0.406330
v 1.103729 0.050000 1.094047
v 1.909613 0.050000 0.269933
v 1.798280 0.050000 0.488178
v -0.669704 0.050000 -1.676672
v -1.092769 0.050000 -1.022981
vt 0.2760 0.4895
vt 0.2458 0.4874
vt 0.0708 0.7319
vt 0.1567 0.8595
vt 0.3763 0.8602
vt 0.1838 0.8817
vt 0.8882 0.8753
vt 0.9014 0.8519
vt 0.9014 0.8753
vt 0.8882 0.8013
vt 0.8750 0.8252
vt 0.8750 0.8013
vt 0.8882 0.8969
vt 0.9014 0.8969
vt 0.8882 0.7768
vt 0.8750 0.7768
vt 0.9542 0.5135
vt 0.9410 0.5366
vt 0.9410 0.5135
vt 0.8882 0.9163
vt 0.9014 0.9163
vt 0.8882 0.7520
vt 0.8750 0.7520
vt 0.9014 0.5297
vt 0.9146 0.5135
vt 0.9146 0.5297
vt 0.8882 0.9335
vt 0.9014 0.9335
vt 0.8882 0.7271
vt 0.8750 0.7271
vt 0.9014 0.5445
vt 0.9146 0.5445
vt 0.9014 0.9484
vt 0.8882 0.7021
vt 0.8750 0.7021
vt 0.9014 0.5585
vt 0.9146 0.5585
vt 0.9146 0.5291
vt 0.9278 0.5135
vt 0.9278 0.5291
vt 0.8882 0.6772
vt 0.8750 0.6772
vt 0.9014 0.5722
vt 0.9146 0.5722
vt 0.9278 0.5463
vt 0.8882 0.6527
vt 0.8750 0.6527
vt 0.9014 0.5861
vt 0.9146 0.5861
vt 0.9146 0.5657
vt 0.9278 0.5657
vt 0.8882 0.6286
vt 0.8750 0.6286
vt 0.9014 0.6009
vt 0.9146 0.6009
vt 0.9146 0.5879
vt 0.9278 0.5879
vt 0.8882 0.6052
vt 0.8750 0.6052
vt 0.9014 0.6171
vt 0.9146 0.6171
vt 0.9146 0.6060
vt 0.9278 0.6060
vt 0.8882 0.5825
vt 0.8750 0.5825
vt 0.9014 0.6351
vt 0.9146 0.6351
vt 0.9146 0.6215
vt 0.9278 0.6215
vt 0.8882 0.5608
vt 0.8750 0.5608
vt 0.9014 0.6557
vt 0.9146 0.6557
vt 0.9146 0.6349
vt 0.9278 0.6349
vt 0.8882 0.5342
vt 0.8750 0.5342
vt 0.9014 0.6792
vt 0.9146 0.6792
vt 0.9146 0.6466
vt 0.9278 0.6466
vt 0.8882 0.5135
vt 0.8750 0.5135
vt 0.9014 0.7063
vt 0.9146 0.7063
vt 0.9146 0.6572
vt 0.9278 0.6572
vt 0.8882 0.5318
vt 0.9014 0.5135
vt 0.9014 0.5318
vt 0.9014 0.7387
vt 0.9146 0.7387
vt 0.9278 0.5244
vt 0.9410 0.5135
vt 0.9410 0.5244
vt 0.8882 0.5524
vt 0.9014 0.5524
vt 0.9014 0.7652
vt 0.9146 0.7652
vt 0.9278 0.5358
vt 0.9410 0.5358
vt 0.8882 0.5750
vt 0.9014 0.5750
vt 0.9014 0.7867
vt 0.9146 0.7867
vt 0.9278 0.5477
vt 0.9410 0.5477
vt 0.8882 0.5994
vt 0.9014 0.5994
vt 0.9146 0.8038
vt 0.9278 0.5601
vt 0.9410 0.5601
vt 0.8882 0.6255
vt 0.9014 0.6255
vt 0.9014 0.8174
vt 0.9146 0.8174
vt 0.9278 0.5731
vt 0.9410 0.5731
vt 0.8882 0.6528
vt 0.9014 0.6528
vt 0.9014 0.8281
vt 0.9146 0.8281
vt 0.9542 0.5538
vt 0.9410 0.5685
vt 0.9410 0.5538
vt 0.8882 0.6814
vt 0.9014 0.6814
vt 0.8882 0.9862
vt 0.8750 1.0000
vt 0.8750 0.9862
vt 0.9542 0.5366
vt 0.8882 0.7108
vt 0.9014 0.7108
vt 0.8882 0.9676
vt 0.8750 0.9676
vt 0.8882 0.7408
vt 0.9014 0.7408
vt 0.8882 0.9444
vt 0.8750 0.9444
vt 0.8882 0.7713
vt 0.9014 0.7713
vt 0.8750 0.9167
vt 0.8882 0.7998
vt 0.9014 0.7998
vt 0.8882 0.8847
vt 0.8750 0.8847
vt 0.9014 0.8267
vt 0.8882 0.8485
vt 0.8750 0.8485
vt 0.8882 0.8519
vt 0.8882 0.8252
vt 0.5021 0.6769
vt 0.5057 0.6642
vt 0.4046 0.5097
vt 0.5091 0.6519
vt 0.5121 0.6399
vt 0.4244 0.5127
vt 0.5143 0.6276
vt 0.4425 0.5167
vt 0.5153 0.6012
vt 0.5135 0.5862
vt 0.4739 0.5296
vt 0.5098 0.5696
vt 0.4992 0.5528
vt 0.4872 0.5397
vt 0.4590 0.5222
vt 0.3828 0.5071
vt 0.5155 0.6149
vt 0.4986 0.6906
vt 0.4955 0.7056
vt 0.3592 0.5042
vt 0.3059 0.4960
vt 0.0780 0.7532
vt 0.3336 0.5007
vt 0.4077 0.8364
vt 0.3921 0.8463
vt 0.2168 0.4871
vt 0.1892 0.4887
vt 0.0568 0.6661
vt 0.1633 0.4925
vt 0.1394 0.4986
vt 0.0530 0.6230
vt 0.1178 0.5073
vt 0.0988 0.5186
vt 0.0603 0.5710
vt 0.0826 0.5329
vt 0.0697 0.5503
vt 0.0546 0.5951
vt 0.0544 0.6443
vt 0.0602 0.6881
vt 0.0648 0.7101
vt 0.0868 0.7739
vt 0.0972 0.7936
vt 0.1093 0.8123
vt 0.1231 0.8297
vt 0.1389 0.8455
vt 0.1567 0.8595
vt 0.1838 0.8817
vt 0.3603 0.8793
vt 0.3763 0.8602
vt 0.4931 0.7222
vt 0.2074 0.9014
vt 0.2459 0.9322
vt 0.2619 0.9425
vt 0.3295 0.9255
vt 0.2764 0.9487
vt 0.2898 0.9505
vt 0.3029 0.9475
vt 0.3159 0.9393
vt 0.3441 0.9056
vt 0.4918 0.7408
vt 0.4226 0.8293
vt 0.4863 0.7840
vt 0.4903 0.7655
vt 0.4498 0.8193
vt 0.4717 0.8072
vt 0.4800 0.7975
vt 0.4615 0.8140
vt 0.4367 0.8240
vt 0.2279 0.9184
vt 0.4918 0.7408
vt 0.4903 0.7655
vt 0.4367 0.8240
vt 0.4863 0.7840
vt 0.4800 0.7975
vt 0.4615 0.8140
vt 0.4717 0.8072
vt 0.4498 0.8193
vt 0.4931 0.7222
vt 0.4226 0.8293
vt 0.4955 0.7056
vt 0.4077 0.8364
vt 0.4986 0.6906
vt 0.3592 0.5042
vt 0.3336 0.5007
vt 0.5091 0.6519
vt 0.5057 0.6642
vt 0.4046 0.5097
vt 0.5021 0.6769
vt 0.3828 0.5071
vt 0.3921 0.8463
vt 0.5121 0.6399
vt 0.4244 0.5127
vt 0.5155 0.6149
vt 0.5143 0.6276
vt 0.4425 0.5167
vt 0.5135 0.5862
vt 0.5153 0.6012
vt 0.4739 0.5296
vt 0.4992 0.5528
vt 0.5098 0.5696
vt 0.4872 0.5397
vt 0.4590 0.5222
vt 0.3059 0.4960
vt 0.3603 0.8793
vt 0.3441 0.9056
vt 0.2279 0.9184
vt 0.3295 0.9255
vt 0.3159 0.9393
vt 0.2619 0.9425
vt 0.3029 0.9475
vt 0.2898 0.9505
vt 0.2764 0.9487
vt 0.2459 0.9322
vt 0.2074 0.9014
vt 0.2458 0.4874
vt 0.2760 0.4895
vt 0.0708 0.7319
vt 0.1892 0.4887
vt 0.0568 0.6661
vt 0.0544 0.6443
vt 0.1394 0.4986
vt 0.1633 0.4925
vt 0.0530 0.6230
vt 0.0988 0.5186
vt 0.1178 0.5073
vt 0.0603 0.5710
vt 0.0697 0.5503
vt 0.0826 0.5329
vt 0.0546 0.5951
vt 0.0602 0.6881
vt 0.2168 0.4871
vt 0.0648 0.7101
vt 0.0868 0.7739
vt 0.0780 0.7532
vt 0.1093 0.8123
vt 0.0972 0.7936
vt 0.1389 0.8455
vt 0.1231 0.8297
vt 0.9014 0.5135
vt 0.8882 0.9484
vt 0.9146 0.5135
vt 0.9146 0.5463
vt 0.9278 0.5135
vt 0.9014 0.8038
vt 0.9542 0.5685
vt 0.8882 1.0000
vt 0.8882 0.9167
vt 0.8882 0.8267
vn -0.0000 -1.0000 -0.0000
vn 0.0000 1.0000 0.0000
vn 0.6178 -0.0000 0.7863
vn 0.6177 0.0000 0.7864
vn 0.6202 0.0000 0.7844
vn -0.9693 0.0000 -0.2459
vn 0.6203 0.0000 0.7844
vn -0.9897 -0.0000 -0.1429
vn 0.8474 0.0000 -0.5310
vn 0.8475 -0.0000 -0.5308
vn 0.6441 0.0000 0.7650
vn -0.9989 0.0000 -0.0477
vn 0.7575 0.0000 -0.6529
vn 0.6920 0.0000 0.7219
vn -0.9993 -0.0000 0.0385
vn 0.5929 0.0000 -0.8052
vn 0.7631 0.0000 0.6463
vn -0.9933 0.0000 0.1155
vn 0.3412 0.0000 -0.9400
vn 0.8478 0.0000 0.5303
vn -0.9830 0.0000 0.1838
vn 0.0739 0.0000 -0.9973
vn 0.9266 0.0000 0.3760
vn -0.9698 0.0000 0.2440
vn -0.1094 0.0000 -0.9940
vn 0.9792 0.0000 0.2027
vn -0.9548 0.0000 0.2973
vn -0.1842 0.0000 -0.9829
vn -0.1846 0.0000 -0.9828
vn -0.1704 -0.0000 -0.9854
vn 0.9993 -0.0000 0.0381
vn -0.9387 0.0000 0.3447
vn -0.1701 0.0000 -0.9854
vn 0.9589 0.0000 -0.2838
vn -0.9221 0.0000 0.3870
vn -0.0860 0.0000 -0.9963
vn 0.9267 -0.0000 -0.3759
vn -0.9051 0.0000 0.4251
vn 0.0478 0.0000 -0.9989
vn 0.8823 0.0000 -0.4707
vn -0.8488 0.0000 0.5288
vn 0.2050 0.0000 -0.9788
vn 0.8298 0.0000 -0.5580
vn -0.7462 0.0000 0.6657
vn 0.3579 0.0000 -0.9338
vn 0.7781 0.0000 -0.6282
vn -0.5994 0.0000 0.8005
vn 0.4937 0.0000 -0.8696
vn 0.7375 0.0000 -0.6754
vn -0.4133 0.0000 0.9106
vn 0.4178 0.0000 -0.9086
vn 0.7152 0.0000 -0.6989
vn 0.7156 0.0000 -0.6985
vn -0.2095 0.0000 0.9778
vn 0.2805 0.0000 -0.9599
vn 0.7149 0.0000 -0.6993
vn -0.0156 0.0000 0.9999
vn 0.0404 0.0000 -0.9992
vn 0.7329 0.0000 -0.6803
vn 0.1500 0.0000 0.9887
vn -0.3069 0.0000 -0.9517
vn 0.7641 0.0000 -0.6451
vn 0.2828 0.0000 0.9592
vn -0.6305 0.0000 -0.7762
vn 0.8019 0.0000 -0.5974
vn 0.3861 0.0000 0.9225
vn -0.8155 0.0000 -0.5788
vn 0.8404 0.0000 -0.5420
vn 0.8405 0.0000 -0.5419
vn 0.4660 0.0000 0.8848
vn -0.8970 0.0000 -0.4421
vn 0.5283 0.0000 0.8491
vn -0.9304 0.0000 -0.3665
vn 0.5774 0.0000 0.8165
vn -0.9439 0.0000 -0.3302
vn -0.9429 0.0000 -0.3331
vn 0.6914 0.0000 0.7225
vn -0.9450 -0.0000 -0.3271
vn -0.9405 0.0000 -0.3397
vn 0.6576 0.0000 0.7534
vn -0.9406 0.0000 -0.3395
vn 0.6316 0.0000 0.7753
vn -0.9353 0.0000 -0.3538
s 1
f 1/1/1 2/2/1 3/3/1
f 4/4/2 5/5/2 6/6/2
f 7/7/3 8/8/4 9/9/5
f 10/10/6 11/11/6 12/12/6
f 13/13/7 9/9/5 14/14/7
f 15/15/8 12/12/8 16/16/8
f 17/17/9 18/18/10 19/19/9
f 20/20/11 14/14/11 21/21/11
f 22/22/12 16/16/12 23/23/12
f 24/24/13 19/25/13 25/26/13
f 26/27/14 21/21/14 27/28/14
f 28/29/15 23/23/15 29/30/15
f 30/31/16 25/26/16 31/32/16
f 32/33/17 26/27/17 27/28/17
f 33/34/18 29/30/18 34/35/18
f 35/36/19 31/32/19 36/37/19
f 37/38/20 32/39/20 38/40/20
f 39/41/21 34/35/21 3/42/21
f 40/43/22 36/37/22 41/44/22
f 42/45/23 37/38/23 38/40/23
f 43/46/24 3/42/24 44/47/24
f 45/48/25 41/44/25 46/49/25
f 47/50/26 42/45/26 48/51/26
f 49/52/27 44/47/27 50/53/27
f 51/54/28 46/49/29 52/55/30
f 53/56/31 48/51/31 54/57/31
f 55/58/32 50/53/32 56/59/32
f 57/60/33 52/55/30 58/61/33
f 59/62/34 54/57/34 60/63/34
f 61/64/35 56/59/35 62/65/35
f 63/66/36 58/61/36 64/67/36
f 65/68/37 60/63/37 66/69/37
f 67/70/38 62/65/38 68/71/38
f 69/72/39 64/67/39 70/73/39
f 71/74/40 66/69/40 72/75/40
f 73/76/41 68/71/41 74/77/41
f 5/78/42 70/73/42 75/79/42
f 76/80/43 72/75/43 77/81/43
f 78/82/44 74/77/44 79/83/44
f 80/84/45 75/79/45 81/85/45
f 82/86/46 77/81/46 83/87/46
f 84/88/47 79/89/47 85/90/47
f 86/91/48 81/85/48 87/92/48
f 88/93/49 83/94/49 89/95/49
f 90/96/50 85/90/50 91/97/50
f 92/98/51 87/92/51 93/99/51
f 94/100/52 89/95/53 95/101/52
f 96/102/54 91/97/54 97/103/54
f 98/104/55 93/99/55 99/105/55
f 100/106/56 95/101/52 101/107/56
f 102/108/57 97/103/57 103/109/57
f 104/110/58 98/104/58 99/105/58
f 105/111/59 101/107/59 106/112/59
f 107/113/60 103/109/60 108/114/60
f 109/115/61 104/110/61 110/116/61
f 111/117/62 106/112/62 112/118/62
f 113/119/63 108/114/63 114/120/63
f 115/121/64 110/116/64 116/122/64
f 117/123/65 112/124/65 118/125/65
f 119/126/66 114/120/66 120/127/66
f 121/128/67 116/129/67 122/130/67
f 123/131/68 118/125/69 18/18/10
f 124/132/70 120/127/70 125/133/70
f 126/134/71 122/130/71 127/135/71
f 128/136/72 125/133/72 2/137/72
f 129/138/73 127/135/73 130/139/73
f 131/140/74 2/137/74 1/141/74
f 132/142/75 129/138/76 130/139/76
f 133/143/77 1/141/77 134/144/77
f 6/145/78 132/142/75 135/146/79
f 136/147/80 133/143/80 134/144/80
f 4/148/81 135/146/79 137/149/81
f 138/150/82 136/147/82 8/8/82
f 139/151/83 137/149/83 11/11/83
f 101/152/1 95/153/1 14/154/1
f 89/155/1 83/156/1 21/157/1
f 77/158/1 27/159/1 83/156/1
f 66/160/1 60/161/1 38/162/1
f 54/163/1 48/164/1 60/161/1
f 42/165/1 38/162/1 60/161/1
f 32/166/1 27/159/1 66/160/1
f 21/157/1 14/154/1 89/155/1
f 14/154/1 9/167/1 101/152/1
f 38/162/1 32/166/1 66/160/1
f 60/161/1 48/164/1 42/165/1
f 83/156/1 27/159/1 21/157/1
f 95/153/1 89/155/1 14/154/1
f 66/160/1 27/159/1 72/168/1
f 27/159/1 77/158/1 72/168/1
f 106/169/1 101/152/1 9/167/1
f 112/170/1 106/169/1 8/171/1
f 9/167/1 8/171/1 106/169/1
f 134/172/1 3/3/1 34/173/1
f 8/171/1 136/174/1 112/170/1
f 112/170/1 136/174/1 64/175/1
f 134/172/1 70/176/1 136/174/1
f 125/177/1 120/178/1 56/179/1
f 114/180/1 108/181/1 68/182/1
f 103/183/1 97/184/1 79/185/1
f 91/186/1 85/187/1 97/184/1
f 79/185/1 74/188/1 103/183/1
f 68/182/1 62/189/1 114/180/1
f 56/179/1 50/190/1 125/177/1
f 44/191/1 2/2/1 50/190/1
f 34/173/1 29/192/1 134/172/1
f 23/193/1 16/194/1 70/176/1
f 12/195/1 11/196/1 137/197/1
f 135/198/1 81/199/1 75/200/1
f 12/195/1 137/197/1 70/176/1
f 29/192/1 70/176/1 134/172/1
f 50/190/1 2/2/1 125/177/1
f 74/188/1 68/182/1 108/181/1
f 97/184/1 85/187/1 79/185/1
f 120/178/1 114/180/1 62/189/1
f 136/174/1 70/176/1 64/175/1
f 118/201/1 112/170/1 64/175/1
f 108/181/1 103/183/1 74/188/1
f 62/189/1 56/179/1 120/178/1
f 16/194/1 12/195/1 70/176/1
f 132/202/1 81/199/1 135/198/1
f 127/203/1 122/204/1 93/205/1
f 116/206/1 110/207/1 104/208/1
f 104/208/1 99/209/1 116/206/1
f 93/205/1 87/210/1 127/203/1
f 99/209/1 93/205/1 122/204/1
f 122/204/1 116/206/1 99/209/1
f 137/197/1 135/198/1 75/200/1
f 44/191/1 3/3/1 2/2/1
f 18/211/1 118/201/1 58/212/1
f 25/213/1 19/214/1 46/215/1
f 36/216/1 31/217/1 41/218/1
f 46/215/1 41/218/1 25/213/1
f 52/219/1 46/215/1 19/214/1
f 31/217/1 25/213/1 41/218/1
f 118/201/1 64/175/1 58/212/1
f 130/220/1 81/199/1 132/202/1
f 87/210/1 130/220/1 127/203/1
f 87/210/1 81/199/1 130/220/1
f 19/214/1 18/211/1 52/219/1
f 58/212/1 52/219/1 18/211/1
f 23/193/1 70/176/1 29/192/1
f 137/197/1 75/200/1 70/176/1
f 3/3/1 134/172/1 1/1/1
f 123/221/2 17/222/2 51/223/2
f 24/224/2 30/225/2 40/226/2
f 35/227/2 40/226/2 30/225/2
f 40/226/2 45/228/2 24/224/2
f 17/222/2 45/228/2 51/223/2
f 117/229/2 123/221/2 57/230/2
f 45/228/2 17/222/2 24/224/2
f 123/221/2 51/223/2 57/230/2
f 111/231/2 117/229/2 63/232/2
f 117/229/2 57/230/2 63/232/2
f 105/233/2 111/231/2 138/234/2
f 111/231/2 63/232/2 140/235/2
f 88/236/2 94/237/2 13/238/2
f 100/239/2 105/233/2 7/240/2
f 63/232/2 69/241/2 140/235/2
f 82/242/2 88/236/2 20/243/2
f 71/244/2 76/245/2 26/246/2
f 59/247/2 65/248/2 37/249/2
f 47/250/2 53/251/2 59/247/2
f 37/249/2 141/252/2 59/247/2
f 26/246/2 65/248/2 71/244/2
f 13/238/2 20/243/2 88/236/2
f 138/234/2 7/240/2 105/233/2
f 7/240/2 13/238/2 100/239/2
f 142/253/2 65/248/2 26/246/2
f 47/250/2 59/247/2 141/252/2
f 76/245/2 82/242/2 26/246/2
f 69/241/2 133/254/2 140/235/2
f 80/255/2 86/256/2 129/257/2
f 92/258/2 98/259/2 121/260/2
f 143/261/2 109/262/2 115/263/2
f 115/263/2 98/259/2 143/261/2
f 126/264/2 129/257/2 86/256/2
f 129/257/2 144/265/2 80/255/2
f 115/263/2 121/260/2 98/259/2
f 86/256/2 92/258/2 126/264/2
f 94/237/2 100/239/2 13/238/2
f 37/249/2 65/248/2 142/253/2
f 140/235/2 138/234/2 111/231/2
f 128/266/2 131/267/2 39/268/2
f 20/243/2 26/246/2 82/242/2
f 131/267/2 133/254/2 39/268/2
f 119/269/2 55/270/2 61/271/2
f 107/272/2 113/273/2 67/274/2
f 96/275/2 102/276/2 78/277/2
f 84/278/2 90/279/2 96/275/2
f 73/280/2 78/277/2 102/276/2
f 61/271/2 67/274/2 113/273/2
f 49/281/2 124/282/2 128/266/2
f 39/268/2 43/283/2 128/266/2
f 28/284/2 33/285/2 133/254/2
f 15/286/2 22/287/2 69/241/2
f 139/288/2 10/289/2 4/4/2
f 144/265/2 6/6/2 80/255/2
f 4/4/2 10/289/2 69/241/2
f 22/287/2 28/284/2 69/241/2
f 43/283/2 49/281/2 128/266/2
f 67/274/2 73/280/2 107/272/2
f 84/278/2 96/275/2 78/277/2
f 113/273/2 119/269/2 61/271/2
f 69/241/2 10/289/2 15/286/2
f 28/284/2 133/254/2 69/241/2
f 121/260/2 126/264/2 92/258/2
f 4/4/2 69/241/2 5/5/2
f 55/270/2 124/282/2 49/281/2
f 102/276/2 107/272/2 73/280/2
f 133/254/2 33/285/2 39/268/2
f 6/6/2 5/5/2 80/255/2
f 119/269/2 124/282/2 55/270/2
f 7/7/3 138/150/4 8/8/4
f 10/10/6 139/151/6 11/11/6
f 13/13/7 7/7/3 9/9/5
f 15/15/8 10/10/8 12/12/8
f 17/17/9 123/131/68 18/18/10
f 20/20/11 13/13/11 14/14/11
f 22/22/12 15/15/12 16/16/12
f 24/24/13 17/290/13 19/25/13
f 26/27/14 20/20/14 21/21/14
f 28/29/15 22/22/15 23/23/15
f 30/31/16 24/24/16 25/26/16
f 32/33/17 142/291/17 26/27/17
f 33/34/18 28/29/18 29/30/18
f 35/36/19 30/31/19 31/32/19
f 37/38/20 142/292/20 32/39/20
f 39/41/21 33/34/21 34/35/21
f 40/43/22 35/36/22 36/37/22
f 42/45/23 141/293/23 37/38/23
f 43/46/24 39/41/24 3/42/24
f 45/48/25 40/43/25 41/44/25
f 47/50/26 141/293/26 42/45/26
f 49/52/27 43/46/27 44/47/27
f 51/54/28 45/48/29 46/49/29
f 53/56/31 47/50/31 48/51/31
f 55/58/32 49/52/32 50/53/32
f 57/60/33 51/54/28 52/55/30
f 59/62/34 53/56/34 54/57/34
f 61/64/35 55/58/35 56/59/35
f 63/66/36 57/60/36 58/61/36
f 65/68/37 59/62/37 60/63/37
f 67/70/38 61/64/38 62/65/38
f 69/72/39 63/66/39 64/67/39
f 71/74/40 65/68/40 66/69/40
f 73/76/41 67/70/41 68/71/41
f 5/78/42 69/72/42 70/73/42
f 76/80/43 71/74/43 72/75/43
f 78/82/44 73/76/44 74/77/44
f 80/84/45 5/78/45 75/79/45
f 82/86/46 76/80/46 77/81/46
f 84/88/47 78/82/47 79/89/47
f 86/91/48 80/84/48 81/85/48
f 88/93/49 82/294/49 83/94/49
f 90/96/50 84/88/50 85/90/50
f 92/98/51 86/91/51 87/92/51
f 94/100/52 88/93/53 89/95/53
f 96/102/54 90/96/54 91/97/54
f 98/104/55 92/98/55 93/99/55
f 100/106/56 94/100/52 95/101/52
f 102/108/57 96/102/57 97/103/57
f 104/110/58 143/295/58 98/104/58
f 105/111/59 100/106/59 101/107/59
f 107/113/60 102/108/60 103/109/60
f 109/115/61 143/295/61 104/110/61
f 111/117/62 105/111/62 106/112/62
f 113/119/63 107/113/63 108/114/63
f 115/121/64 109/115/64 110/116/64
f 117/123/65 111/296/65 112/124/65
f 119/126/66 113/119/66 114/120/66
f 121/128/67 115/297/67 116/129/67
f 123/131/68 117/123/69 118/125/69
f 124/132/70 119/126/70 120/127/70
f 126/134/71 121/128/71 122/130/71
f 128/136/72 124/132/72 125/133/72
f 129/138/73 126/134/73 127/135/73
f 131/140/74 128/136/74 2/137/74
f 132/142/75 144/298/75 129/138/76
f 133/143/77 131/140/77 1/141/77
f 6/145/78 144/298/75 132/142/75
f 136/147/80 140/299/80 133/143/80
f 4/148/81 6/145/78 135/146/79
f 138/150/82 140/299/82 136/147/82
f 139/151/83 4/148/83 137/149/83
