# Blender v2.77 (sub 0) OBJ File: 'defense.blend'
# www.blender.org
mtllib defense.mtl
o Cube_Cube.001
v -0.750000 0.000432 1.000000
v -0.750000 0.117219 1.000000
v -0.750000 0.000432 -1.000000
v -0.750000 0.117219 -1.000000
v 0.750000 0.000432 1.000000
v 0.750000 0.117219 1.000000
v 0.750000 0.000432 -1.000000
v 0.750000 0.117219 -1.000000
vt 0.0094 0.9595
vt 0.6064 0.9247
vt 0.6064 0.9595
vt 0.4571 0.8898
vt 0.0094 0.9247
vt 0.0094 0.8898
vt 0.0094 0.9944
vt 0.6064 0.9595
vt 0.6064 0.9944
vt 0.9048 0.8898
vt 0.4571 0.9247
vt 0.4571 0.8898
vt 0.5521 0.0005
vt 0.9998 0.5975
vt 0.5521 0.5975
vt 0.4477 0.5970
vt 0.0000 0.0000
vt 0.4477 0.0000
vt 0.4571 0.9247
vt 0.0094 0.9595
vt 0.9048 0.9247
vt 0.9998 0.0005
vt 0.0000 0.5970
vn -1.0000 0.0000 0.0000
vn 0.0000 0.0000 -1.0000
vn 1.0000 0.0000 0.0000
vn 0.0000 0.0000 1.0000
vn 0.0000 -1.0000 0.0000
vn 0.0000 1.0000 0.0000
usemtl None
s off
f 4/1/1 1/2/1 2/3/1
f 8/4/2 3/5/2 4/6/2
f 6/7/3 7/8/3 8/9/3
f 2/10/4 5/11/4 6/12/4
f 3/13/5 5/14/5 1/15/5
f 8/16/6 2/17/6 6/18/6
f 4/1/1 3/5/1 1/2/1
f 8/4/2 7/19/2 3/5/2
f 6/7/3 5/20/3 7/8/3
f 2/10/4 1/21/4 5/11/4
f 3/13/5 7/22/5 5/14/5
f 8/16/6 4/23/6 2/17/6