# Blender v2.77 (sub 0) OBJ File: 'ARMADA_MASTER.blend'
# www.blender.org
mtllib Maneuvering Tool Guide - 0.mtl
o Maneuvering_Tool_Guide_-_C_-_Next_Plane.015
v -0.177782 0.000000 2.370630
v 0.266070 0.000000 2.458917
v 0.177782 0.000000 2.370629
v 0.122458 0.000000 2.341058
v 0.062428 0.000000 2.322849
v 0.177782 0.200000 2.370629
v -0.060000 0.200861 2.172237
v 0.150000 0.200000 0.808763
v 0.075000 0.200000 0.808763
v -0.062429 0.000000 2.322849
v 0.000000 0.000000 2.316700
v -0.122459 0.000000 2.341058
v -0.226274 0.000000 2.410426
v -0.266070 0.000000 2.458917
v -0.295641 0.000000 2.514241
v 0.295641 0.000000 2.514241
v 0.226274 0.000000 2.410425
v 0.300000 -0.000000 2.528610
v -0.300000 -0.000000 2.528610
v 0.060000 0.200861 2.172237
v -0.122459 0.200000 2.341058
v -0.062429 0.200000 2.322849
v -0.177782 0.200000 2.370630
v -0.226274 0.200000 2.410426
v -0.266070 0.200000 2.458917
v -0.295641 0.200000 2.514241
v 0.300000 0.225000 0.793481
v -0.300000 0.200000 2.528610
v 0.266070 0.200000 2.458917
v 0.295641 0.200000 2.514241
v 0.226274 0.200000 2.410425
v 0.122458 0.200000 2.341058
v 0.062428 0.200000 2.322849
v -0.300000 0.200000 0.808762
v 0.000000 0.200000 0.808763
v 0.300000 0.200000 0.808763
v -0.300000 0.225000 0.793481
v -0.000000 0.233704 2.172237
v 0.060000 0.233704 2.172237
v -0.000000 0.200861 2.172237
v -0.225000 0.200000 0.808762
v -0.060000 0.233704 2.172237
v -0.000000 0.233704 2.316216
v 0.000000 0.200861 2.316216
v 0.000000 0.200000 2.316700
v 0.225000 0.200000 0.808763
v -0.075000 0.200000 0.808762
v -0.150000 0.200000 0.808762
v -0.062429 0.000000 2.322849
v 0.000000 0.000000 2.316700
v -0.266070 0.000000 2.458917
v -0.226274 0.000000 2.410426
v -0.266070 0.200000 2.458917
v -0.226274 0.200000 2.410426
v 0.295641 0.200000 2.514241
v 0.300000 0.200000 2.528610
v 0.300000 0.200000 2.528610
v 0.300000 0.200000 2.528610
v 0.000000 0.200000 0.808763
v 0.075000 0.200000 0.808763
v -0.300000 0.000000 0.776934
v -0.122459 0.000000 2.341058
v -0.177782 0.000000 2.370630
v -0.295641 0.000000 2.514241
v 0.266070 0.000000 2.458917
v 0.295641 0.000000 2.514241
v 0.226274 0.000000 2.410425
v 0.177782 0.000000 2.370629
v 0.122458 0.000000 2.341058
v 0.062428 0.000000 2.322849
v 0.300000 -0.000000 2.528610
v 0.300000 -0.000000 2.528610
v -0.300000 -0.000000 2.528610
v -0.300000 -0.000000 2.528610
v 0.300000 0.000000 0.776934
v 0.300000 -0.000000 0.776934
v -0.300000 0.200000 0.776934
v -0.300000 0.200000 0.776934
v -0.122459 0.200000 2.341058
v -0.062429 0.200000 2.322849
v -0.177782 0.200000 2.370630
v -0.295641 0.200000 2.514241
v 0.300000 0.225000 0.793481
v 0.300000 0.200000 0.776934
v 0.300000 0.200000 0.776934
v -0.300000 0.200000 0.808762
v -0.300000 0.200000 0.808762
v -0.300000 0.200000 2.528610
v -0.300000 0.200000 2.528610
v 0.266070 0.200000 2.458917
v 0.226274 0.200000 2.410425
v 0.177782 0.200000 2.370629
v 0.122458 0.200000 2.341058
v 0.062428 0.200000 2.322849
v -0.300000 0.225000 0.793481
v -0.300000 0.225000 0.793481
v 0.300000 0.200000 0.808763
v -0.000000 0.233704 2.172237
v 0.060000 0.233704 2.172237
v 0.060000 0.233704 2.172237
v -0.000000 0.200861 2.172237
v 0.060000 0.200861 2.172237
v 0.060000 0.200861 2.172237
v -0.060000 0.200861 2.172237
v -0.060000 0.200861 2.172237
v -0.225000 0.200000 0.808762
v -0.060000 0.233704 2.172237
v -0.060000 0.233704 2.172237
v -0.000000 0.233704 2.316216
v -0.000000 0.233704 2.316216
v 0.000000 0.200861 2.316216
v 0.000000 0.200861 2.316216
v 0.000000 0.200000 2.316700
v 0.225000 0.200000 0.808763
v 0.150000 0.200000 0.808763
v -0.075000 0.200000 0.808762
v -0.150000 0.200000 0.808762
v 0.300000 0.200000 0.808763
v 0.300000 0.225000 0.793481
v -0.300000 -0.000000 0.776934
vt 0.9664 0.2167
vt 0.9572 0.0061
vt 0.9664 0.0061
vt 0.6084 0.7306
vt 0.6135 0.6608
vt 0.6135 0.7304
vt 0.6402 0.5584
vt 0.5741 0.5364
vt 0.6423 0.5375
vt 0.5886 0.6622
vt 0.5710 0.7335
vt 0.5710 0.6639
vt 0.5771 0.5174
vt 0.6452 0.5185
vt 0.5886 0.7318
vt 0.6084 0.6609
vt 0.9517 0.8969
vt 0.8821 0.2882
vt 0.9517 0.2879
vt 0.3653 0.6736
vt 0.3851 0.6051
vt 0.3851 0.6748
vt 0.4027 0.6068
vt 0.4027 0.6765
vt 0.5741 0.6422
vt 0.6452 0.6608
vt 0.5771 0.6597
vt 0.4172 0.6089
vt 0.6423 0.6432
vt 0.5721 0.6224
vt 0.6402 0.6235
vt 0.6392 0.6022
vt 0.5710 0.5791
vt 0.6392 0.5802
vt 0.3602 0.6037
vt 0.3653 0.6039
vt 0.5721 0.5573
vt 0.8821 0.9005
vt 0.8122 0.8986
vt 0.8042 0.8918
vt 0.9938 0.0063
vt 0.9840 0.0328
vt 0.9840 0.0068
vt 0.8042 0.3324
vt 0.7346 0.3376
vt 0.7259 0.3322
vt 0.8135 0.8875
vt 0.5710 0.6011
vt 0.7346 0.9411
vt 0.2493 0.3911
vt 0.1659 0.9278
vt 0.1440 0.9257
vt 0.9353 0.1802
vt 0.9468 0.1802
vt 0.9468 0.1592
vt 0.9311 0.0796
vt 0.9311 0.1310
vt 0.9197 0.0801
vt 0.9468 0.1381
vt 0.9353 0.1381
vt 0.9288 0.0193
vt 0.9483 0.0659
vt 0.9094 0.0274
vt 0.9489 0.0805
vt 0.9489 0.1319
vt 0.9375 0.1313
vt 0.9572 0.2167
vt 0.8821 0.2879
vt 0.7346 0.3264
vt 0.4172 0.6786
vt 0.6418 0.7308
vt 0.6367 0.7302
vt 0.6418 0.6608
vt 0.9938 0.2144
vt 0.9840 0.2149
vt 0.8042 0.9414
vt 0.2493 1.0000
vt 0.2478 0.9950
vt 0.2374 0.9755
vt 0.0402 0.9950
vt 0.0386 1.0000
vt 0.0386 0.3911
vt 0.0505 0.9755
vt 0.2234 0.9585
vt 0.0645 0.9585
vt 0.0815 0.9446
vt 0.2064 0.9446
vt 0.1870 0.9342
vt 0.1010 0.9342
vt 0.1220 0.9278
vt 0.9353 0.1592
vt 0.9483 0.0112
vt 0.9840 0.1108
vt 0.9840 0.0848
vt 0.9840 0.0588
vt 0.9197 0.1315
vt 0.0000 0.0000
vt 0.0000 0.0000
vt 0.0000 0.0000
vt 0.9840 0.1626
vt 0.9840 0.1366
vt 0.9939 0.0061
vt 0.6452 0.7564
vt 0.6841 0.7726
vt 0.6841 0.7179
vt 0.9375 0.0800
vt 0.9840 0.1889
vt 0.9840 0.1628
vt 0.9840 0.1368
vt 0.4152 0.5315
vt 0.4196 0.0000
vt 0.4459 0.0000
vt 0.3713 0.5315
vt 0.3503 0.5379
vt 0.2879 0.0000
vt 0.2879 0.6037
vt 0.2894 0.5987
vt 0.2998 0.5793
vt 0.3142 0.0000
vt 0.3406 0.0000
vt 0.3138 0.5623
vt 0.3308 0.5483
vt 0.3669 0.0000
vt 0.4723 0.0000
vt 0.4986 0.0000
vt 0.4986 0.6037
vt 0.4971 0.5987
vt 0.4867 0.5793
vt 0.4727 0.5623
vt 0.3932 0.5294
vt 0.4557 0.5483
vt 0.4362 0.5379
vt 0.3932 0.0000
vn 0.0000 0.5519 -0.8339
vn 0.9569 0.0000 0.2903
vn 0.4714 0.0000 0.8819
vn 0.7730 0.0000 0.6344
vn 0.6344 0.0000 0.7730
vn 0.8819 0.0000 0.4714
vn 1.0000 0.0000 -0.0000
vn -0.8819 0.0000 0.4714
vn -0.7730 0.0000 0.6344
vn -0.4714 0.0000 0.8819
vn -0.6344 0.0000 0.7730
vn -0.2903 0.0000 0.9569
vn 0.0980 0.0000 0.9952
vn -0.9569 0.0000 0.2903
vn 0.2903 0.0000 0.9569
vn 0.0000 0.5216 0.8532
vn -1.0000 -0.0000 0.0000
vn -0.0000 -1.0000 -0.0000
vn 0.0000 0.0000 1.0000
vn -0.9231 0.0000 0.3847
vn 0.0000 1.0000 0.0000
vn 0.9231 0.0000 0.3847
vn -0.0980 0.0000 0.9952
vn 0.0000 0.5215 0.8532
usemtl Material.011
s off
f 78/1/1 83/2/1 84/3/1
f 64/4/2 89/5/2 73/6/2
f 62/7/3 81/8/3 63/9/3
f 53/10/4 52/11/4 54/12/4
f 63/9/5 54/13/5 52/14/5
f 51/15/6 82/16/6 64/4/6
f 76/17/7 57/18/7 72/19/7
f 66/20/8 90/21/8 65/22/8
f 65/22/9 91/23/9 67/24/9
f 93/25/10 68/26/10 92/27/10
f 92/28/11 67/24/11 91/23/11
f 69/29/12 94/30/12 70/31/12
f 50/32/13 80/33/13 49/34/13
f 66/20/14 56/35/14 55/36/14
f 49/34/15 79/37/15 62/7/15
f 76/38/7 85/39/7 27/40/7
f 119/41/16 114/42/16 118/43/16
f 120/44/17 86/45/17 96/46/17
f 97/47/7 76/38/7 27/40/7
f 50/32/13 113/48/13 80/33/13
f 120/44/17 88/49/17 86/45/17
f 75/50/18 5/51/18 11/52/18
f 107/53/19 105/54/19 101/55/19
f 7/56/20 111/57/20 42/58/20
f 101/55/19 103/59/19 100/60/19
f 98/61/21 109/62/21 99/63/21
f 39/64/22 110/65/22 44/66/22
f 78/1/1 95/67/1 83/2/1
f 64/4/2 82/16/2 89/5/2
f 62/7/3 79/37/3 81/8/3
f 63/9/5 81/8/5 54/13/5
f 51/15/4 52/11/4 53/10/4
f 51/15/6 53/10/6 82/16/6
f 76/38/7 97/47/7 57/68/7
f 120/44/17 96/46/17 77/69/17
f 66/20/8 55/36/8 90/21/8
f 65/22/9 90/21/9 91/23/9
f 67/24/11 92/28/11 68/70/11
f 69/29/10 68/26/10 93/25/10
f 69/29/12 93/25/12 94/30/12
f 66/71/14 71/72/14 56/73/14
f 49/34/15 80/33/15 79/37/15
f 119/41/16 37/74/16 87/75/16
f 120/44/17 74/76/17 88/49/17
f 75/50/18 18/77/18 16/78/18
f 75/50/18 16/78/18 2/79/18
f 15/80/18 19/81/18 61/82/18
f 14/83/18 15/80/18 61/82/18
f 61/82/18 75/50/18 11/52/18
f 75/50/18 2/79/18 17/84/18
f 13/85/18 14/83/18 61/82/18
f 1/86/18 13/85/18 61/82/18
f 75/50/18 17/84/18 3/87/18
f 75/50/18 3/87/18 4/88/18
f 12/89/18 1/86/18 61/82/18
f 10/90/18 12/89/18 61/82/18
f 75/50/18 4/88/18 5/51/18
f 11/52/18 10/90/18 61/82/18
f 107/53/19 101/55/19 38/91/19
f 101/55/19 100/60/19 38/91/19
f 98/61/21 108/92/21 109/62/21
f 94/30/23 50/32/23 70/31/23
f 59/93/16 60/94/16 119/41/16
f 115/95/16 114/42/16 119/41/16
f 119/41/16 60/94/16 115/95/16
f 42/58/20 111/57/20 43/96/20
f 94/30/23 113/48/23 50/32/23
f 104/97/19 102/98/19 40/99/19
f 117/100/24 116/101/24 119/102/24
f 102/103/21 104/104/21 112/105/21
f 20/106/22 39/64/22 44/66/22
f 106/107/16 117/108/16 119/41/16
f 116/109/16 59/93/16 119/41/16
f 119/41/16 87/75/16 106/107/16
f 22/110/21 47/111/21 48/112/21
f 33/113/21 32/114/21 36/115/21
f 58/116/21 36/115/21 30/117/21
f 30/117/21 36/115/21 29/118/21
f 33/113/21 46/119/21 8/120/21
f 36/115/21 31/121/21 29/118/21
f 36/115/21 6/122/21 31/121/21
f 33/113/21 8/120/21 9/123/21
f 48/112/21 41/124/21 22/110/21
f 34/125/21 28/126/21 26/127/21
f 34/125/21 26/127/21 25/128/21
f 32/114/21 6/122/21 36/115/21
f 41/124/21 34/125/21 22/110/21
f 34/125/21 25/128/21 24/129/21
f 33/113/21 36/115/21 46/119/21
f 45/130/21 33/113/21 9/123/21
f 34/125/21 24/129/21 23/131/21
f 34/125/21 23/131/21 21/132/21
f 35/133/21 45/130/21 9/123/21
f 35/133/21 47/111/21 45/130/21
f 34/125/21 21/132/21 22/110/21
f 45/130/21 47/111/21 22/110/21
o Maneuvering_Tool_Guide_-_A_-_Start_Plane.013
v 0.126278 0.200000 0.313206
v 0.233338 0.200000 0.241671
v 0.064373 0.200000 0.331984
v -0.000007 0.200000 0.338325
v -0.064387 0.200000 0.331984
v -0.126293 0.200000 0.313205
v -0.183345 0.200000 0.282710
v -0.300000 0.200000 0.210000
v 0.300000 0.200000 0.210000
v 0.183331 0.200000 0.282710
v -0.233352 0.200000 0.241670
v -0.300000 -0.000000 0.210000
v -0.259344 0.200000 0.210000
v 0.259329 0.200000 0.210000
v 0.300000 -0.000000 0.210000
v -0.000007 0.200000 0.210000
v -0.000007 0.200000 0.210000
v 0.259329 0.200000 0.210000
v -0.259344 0.200000 0.210000
vt 0.9853 0.8485
vt 0.9386 0.8732
vt 0.9362 0.8485
vt 0.9386 0.8239
vt 0.9458 0.8002
vt 0.9575 0.7784
vt 0.9732 0.7593
vt 0.9853 0.7494
vt 0.9853 0.9477
vt 0.9732 0.9378
vt 0.9575 0.9187
vt 0.9458 0.8968
vt 0.9362 0.9788
vt 0.8597 0.8641
vt 0.9362 0.7494
vt 0.8597 0.7494
vt 0.8597 0.7649
vt 0.8597 0.9788
vt 0.8597 0.9633
vn 0.0000 1.0000 -0.0000
vn 0.0000 0.0000 -1.0000
usemtl Material.011
s off
f 137/134/25 125/135/25 124/136/25
f 124/136/25 123/137/25 137/134/25
f 121/138/25 130/139/25 137/134/25
f 122/140/25 134/141/25 137/134/25
f 137/134/25 133/142/25 131/143/25
f 131/143/25 127/144/25 137/134/25
f 126/145/25 125/135/25 137/134/25
f 123/137/25 121/138/25 137/134/25
f 122/140/25 137/134/25 130/139/25
f 127/144/25 126/145/25 137/134/25
f 132/146/26 136/147/26 135/148/26
f 129/149/26 135/148/26 138/150/26
f 132/146/26 128/151/26 139/152/26
f 136/147/26 138/150/26 135/148/26
f 132/146/26 139/152/26 136/147/26
o Maneuvering_Tool_Guide_-_B_-_Core_Plane.007
v 0.126278 0.200000 0.313206
v -0.300000 0.000000 0.356164
v 0.300000 -0.000000 0.667157
v -0.300000 0.200000 0.520787
v 0.410000 0.200000 0.283082
v 0.300000 0.200000 0.356164
v 0.233338 0.200000 0.241671
v 0.064373 0.200000 0.331984
v -0.000007 0.200000 0.338325
v -0.064387 0.200000 0.331984
v -0.126293 0.200000 0.313205
v -0.183345 0.200000 0.282710
v -0.300000 -0.000000 0.520787
v -0.409778 -0.000000 0.593972
v -0.300000 -0.000000 0.776934
v -0.300000 -0.000000 0.667157
v -0.410000 0.000000 0.283082
v 0.300000 -0.000000 0.520787
v 0.300000 -0.000000 0.210000
v 0.410000 0.000000 0.283082
v 0.300000 0.000000 0.356164
v -0.300000 0.200000 0.356164
v -0.409778 0.200000 0.593972
v -0.300000 0.200000 0.776934
v -0.300000 0.200000 0.667157
v -0.300000 0.200000 0.210000
v -0.410000 0.200000 0.283082
v 0.300000 0.200000 0.210000
v 0.300000 0.200000 0.520787
v 0.300000 0.200000 0.776934
v 0.300000 0.200000 0.667157
v 0.410000 0.200000 0.593972
v 0.410000 -0.000000 0.593972
v 0.300000 0.200000 0.667157
v 0.300000 0.200000 0.667157
v 0.410000 0.200000 0.593972
v 0.410000 0.200000 0.593972
v 0.183331 0.200000 0.282710
v -0.233352 0.200000 0.241670
v -0.300000 -0.000000 0.520787
v -0.300000 -0.000000 0.520787
v -0.300000 0.000000 0.356164
v -0.300000 0.000000 0.356164
v -0.409778 -0.000000 0.593972
v -0.409778 -0.000000 0.593972
v -0.300000 -0.000000 0.667157
v -0.300000 -0.000000 0.667157
v -0.300000 -0.000000 0.210000
v -0.300000 -0.000000 0.210000
v -0.410000 0.000000 0.283082
v -0.410000 0.000000 0.283082
v 0.410000 0.000000 0.283082
v 0.410000 0.000000 0.283082
v 0.300000 0.000000 0.356164
v 0.300000 0.000000 0.356164
v 0.300000 -0.000000 0.520787
v 0.300000 -0.000000 0.520787
v 0.300000 -0.000000 0.667157
v 0.300000 -0.000000 0.667157
v -0.300000 0.200000 0.520787
v -0.300000 0.200000 0.520787
v -0.300000 0.200000 0.356164
v -0.300000 0.200000 0.356164
v -0.409778 0.200000 0.593972
v -0.409778 0.200000 0.593972
v -0.300000 0.200000 0.667157
v -0.300000 0.200000 0.667157
v -0.300000 0.200000 0.210000
v -0.300000 0.200000 0.210000
v -0.410000 0.200000 0.283082
v -0.410000 0.200000 0.283082
v 0.300000 0.200000 0.210000
v 0.410000 0.200000 0.283082
v 0.410000 0.200000 0.283082
v 0.300000 0.200000 0.356164
v 0.300000 0.200000 0.356164
v 0.300000 0.200000 0.520787
v 0.300000 0.200000 0.520787
v 0.410000 -0.000000 0.593972
v 0.410000 -0.000000 0.593972
v -0.259344 0.200000 0.210000
v 0.259329 0.200000 0.210000
v 0.300000 -0.000000 0.210000
v -0.300000 0.000000 0.776934
v 0.300000 0.000000 0.776934
v 0.300000 0.200000 0.776934
v 0.300000 -0.000000 0.776934
v -0.300000 0.200000 0.776934
vt 0.2493 0.3469
vt 0.2493 0.3911
vt 0.0386 0.3911
vt 0.7209 0.1514
vt 0.7548 0.2119
vt 0.7209 0.2195
vt 0.8771 0.9444
vt 0.8122 0.8986
vt 0.8821 0.9005
vt 0.2191 0.9480
vt 0.2589 0.8995
vt 0.2589 0.9480
vt 0.0597 0.9746
vt 0.0420 0.9262
vt 0.0597 0.9262
vt 0.1128 0.9262
vt 0.1305 0.9746
vt 0.1128 0.9746
vt 0.2855 0.9480
vt 0.2589 0.8995
vt 0.2855 0.8995
vt 0.0951 0.9746
vt 0.0774 0.9262
vt 0.0951 0.9262
vt 0.7887 0.1437
vt 0.7548 0.2195
vt 0.7548 0.1514
vt 0.2191 0.8995
vt 0.1792 0.9480
vt 0.1792 0.8995
vt 0.0951 0.9746
vt 0.1128 0.9262
vt 0.1128 0.9746
vt 0.1040 0.8995
vt 0.0686 0.8995
vt 0.1482 0.8269
vt 0.2545 0.8995
vt 0.2146 0.8995
vt 0.2146 0.7543
vt 0.2545 0.7543
vt 0.0386 0.3469
vt 0.0386 0.2956
vt 0.1792 0.7543
vt 0.1792 0.8995
vt 0.1969 0.7277
vt 0.0386 0.2378
vt 0.0000 0.2122
vt 0.0386 0.1865
vt 0.7548 0.1437
vt 0.8078 0.9368
vt 0.2191 0.8995
vt 0.0420 0.9746
vt 0.1305 0.9262
vt 0.2589 0.9480
vt 0.0774 0.9746
vt 0.7887 0.2119
vt 0.2191 0.9480
vt 0.0951 0.9262
vt 0.2899 0.7543
vt 0.2722 0.7277
vt 0.0001 0.3212
vt 0.1305 0.9351
vt 0.1347 0.9262
vt 0.1347 0.9440
vt 0.1439 0.7543
vt 0.1615 0.7277
vt 0.1792 0.7543
vt 0.1040 0.7543
vt 0.1543 0.7964
vt 0.1716 0.7705
vt 0.1616 0.7826
vt 0.0420 0.8995
vt 0.0420 0.7543
vt 0.0686 0.7543
vt 0.0863 0.9261
vt 0.1792 0.8995
vt 0.1615 0.9262
vt 0.1439 0.8995
vt 0.1497 0.8425
vt 0.1716 0.8834
vt 0.1543 0.8575
vt 0.1616 0.8713
vt 0.1497 0.8114
vt 0.0863 0.7277
vt 0.0597 0.9746
vt 0.0774 0.9262
vt 0.0774 0.9746
vt 0.4172 0.7418
vt 0.4595 0.6783
vt 0.4595 0.7464
vt 0.4595 0.7455
vt 0.4595 0.6755
vt 0.4982 0.6737
vt 0.4172 0.6737
vt 0.1792 0.7642
vt 0.4750 0.6037
vt 0.7209 0.0700
vt 0.7209 0.0000
vt 0.4750 0.6734
vn 0.0000 -1.0000 0.0000
vn -0.5534 0.0000 0.8329
vn 1.0000 -0.0000 0.0000
vn -1.0000 0.0000 0.0000
vn -0.5547 0.0000 -0.8321
vn 0.5534 0.0000 -0.8329
vn 0.5534 0.0000 0.8329
vn -0.5547 0.0000 0.8321
vn -0.5534 0.0000 -0.8329
vn -0.0000 1.0000 0.0000
vn 0.5539 0.0000 -0.8326
vn 0.5539 0.0000 0.8326
usemtl Material.011
s off
f 197/153/27 224/154/27 223/155/27
f 156/156/28 202/157/28 210/158/28
f 198/159/29 225/160/29 226/161/29
f 179/162/30 201/163/30 181/164/30
f 180/165/31 203/166/31 200/167/31
f 192/168/32 211/169/32 212/170/32
f 155/171/30 227/172/30 205/173/30
f 160/174/33 213/175/33 215/176/33
f 186/177/34 204/178/34 184/179/34
f 194/180/29 216/181/29 196/182/29
f 189/183/35 208/184/35 187/185/35
f 143/186/36 164/187/36 148/188/36
f 152/189/27 182/190/27 193/191/27
f 193/191/27 195/192/27 152/189/27
f 197/153/27 185/193/27 152/194/27
f 222/195/27 193/191/27 182/190/27
f 182/190/27 188/196/27 222/195/27
f 222/195/27 191/197/27 193/191/27
f 223/155/27 185/193/27 197/153/27
f 182/198/27 190/199/27 188/200/27
f 156/156/28 141/201/28 202/157/28
f 198/159/29 174/202/29 225/160/29
f 179/162/30 199/203/30 201/163/30
f 180/165/31 183/204/31 203/166/31
f 192/168/32 158/205/32 211/169/32
f 155/171/30 154/206/30 227/172/30
f 160/174/33 159/207/33 213/175/33
f 186/177/34 206/208/34 204/178/34
f 194/180/29 145/209/29 216/181/29
f 189/183/35 209/210/35 208/184/35
f 197/211/27 195/192/27 219/212/27
f 185/193/27 153/213/27 152/194/27
f 220/214/36 165/215/36 178/216/36
f 214/217/36 144/218/36 167/219/36
f 217/220/36 214/217/36 140/221/36
f 167/219/36 146/222/36 214/217/36
f 214/217/36 146/222/36 177/223/36
f 163/224/36 169/225/36 173/226/36
f 173/226/36 217/220/36 148/188/36
f 214/217/36 177/223/36 140/221/36
f 164/187/36 163/224/36 173/226/36
f 143/186/36 162/227/36 164/187/36
f 207/228/36 166/229/36 161/230/36
f 143/186/36 148/188/36 149/231/36
f 207/228/36 161/230/36 178/232/36
f 161/230/36 150/233/36 151/234/36
f 217/220/36 140/221/36 147/235/36
f 217/220/36 147/235/36 148/188/36
f 151/234/36 178/232/36 161/230/36
f 161/230/36 143/186/36 150/233/36
f 173/226/36 148/188/36 164/187/36
f 150/233/36 143/186/36 149/231/36
f 173/226/36 175/236/36 217/220/36
f 171/237/37 157/238/37 168/239/37
f 170/240/38 218/241/38 176/242/38
f 197/211/27 152/189/27 195/192/27
f 171/243/37 172/244/37 157/245/37
f 170/240/38 142/246/38 218/241/38
f 167/219/36 221/247/36 146/222/36
f 201/248/30 208/249/30 187/250/30 181/251/30
