# Blender v2.78 (sub 0) OBJ File: 'ARMADA_MASTER.blend'
# www.blender.org
o Obstacle_-_Roid_5_-_Mesh_Obstacle_-_Roid_2_Mesh_Mesh.003_Roid_2_Mesh_Mesh.003
v 0.409406 -0.050000 -0.784536
v -0.557561 -0.050000 -0.819536
v 0.385466 -0.050000 -0.841332
v 0.498967 0.050000 -0.621954
v -0.646566 0.050000 -0.565361
v -0.710618 0.050000 -0.448936
v -0.489923 -0.050000 -1.065476
v -0.452581 0.050000 -1.171606
v -0.452581 -0.050000 -1.171606
v 0.917157 -0.050000 -0.330869
v 0.968058 0.050000 -0.303224
v 0.968058 -0.050000 -0.303224
v -0.697152 -0.050000 0.860628
v -0.779546 0.050000 0.802572
v -0.779546 -0.050000 0.802572
v -0.523378 -0.050000 -0.946285
v -0.489923 0.050000 -1.065476
v 0.863379 -0.050000 -0.358448
v 0.917157 0.050000 -0.330869
v -0.624687 -0.050000 0.909999
v -0.697152 0.050000 0.860628
v -0.523378 0.050000 -0.946285
v 0.807804 -0.050000 -0.386845
v 0.863379 0.050000 -0.358448
v -0.555740 -0.050000 0.950548
v -0.624687 0.050000 0.909999
v -0.597086 -0.050000 -0.690728
v -0.557561 0.050000 -0.819536
v 0.751517 -0.050000 -0.416939
v 0.807804 0.050000 -0.386845
v -0.483899 -0.050000 0.982145
v -0.555740 0.050000 0.950548
v -0.646566 -0.050000 -0.565361
v -0.597086 0.050000 -0.690728
v 0.695597 -0.050000 -0.449616
v 0.751517 0.050000 -0.416939
v -0.402753 -0.050000 1.004654
v -0.483899 0.050000 0.982145
v -0.710618 -0.050000 -0.448936
v 0.641129 -0.050000 -0.485757
v 0.695597 0.050000 -0.449616
v -0.305891 -0.050000 1.017943
v -0.402753 0.050000 1.004654
v -0.781826 -0.050000 -0.345844
v 0.589194 -0.050000 -0.526243
v 0.641129 0.050000 -0.485757
v -0.186902 -0.050000 1.021878
v -0.305891 0.050000 1.017943
v -0.846648 -0.050000 -0.237472
v -0.781826 0.050000 -0.345844
v 0.540875 -0.050000 -0.571959
v 0.589194 0.050000 -0.526243
v -0.039374 -0.050000 1.016326
v -0.186902 0.050000 1.021878
v -0.904428 -0.050000 -0.125982
v -0.846648 0.050000 -0.237472
v 0.498967 -0.050000 -0.621954
v 0.540875 0.050000 -0.571959
v 0.143104 -0.050000 1.001153
v -0.039374 0.050000 1.016326
v -0.954515 -0.050000 -0.013537
v -0.904428 0.050000 -0.125982
v 0.464314 -0.050000 -0.674368
v 0.366942 -0.050000 0.976225
v 0.143104 0.050000 1.001153
v -0.996254 -0.050000 0.097702
v -0.954515 0.050000 -0.013536
v 0.435075 -0.050000 -0.728721
v 0.464314 0.050000 -0.674368
v 0.512455 -0.050000 0.921696
v 0.366942 0.050000 0.976225
v -1.028990 -0.050000 0.205571
v -0.996254 0.050000 0.097702
v 0.435075 0.050000 -0.728721
v 0.644364 -0.050000 0.847328
v 0.512455 0.050000 0.921696
v -1.052072 0.050000 0.307908
v -1.028990 0.050000 0.205571
v 0.409406 0.050000 -0.784536
v 0.762242 -0.050000 0.756817
v 0.644364 0.050000 0.847328
v -1.064843 -0.050000 0.402551
v -1.052072 -0.050000 0.307908
v 0.361412 -0.050000 -0.898630
v 0.385466 0.050000 -0.841332
v 0.865663 -0.050000 0.653858
v 0.762242 0.050000 0.756817
v -1.066653 -0.050000 0.487338
v -1.064843 0.050000 0.402551
v 0.335401 -0.050000 -0.955951
v 0.361412 0.050000 -0.898630
v 0.954198 0.050000 0.542150
v 0.865663 0.050000 0.653858
v -1.056845 0.050000 0.560105
v -1.066653 0.050000 0.487338
v 0.305592 -0.050000 -1.012817
v 0.335401 0.050000 -0.955951
v 1.027419 -0.050000 0.425387
v 0.954198 -0.050000 0.542150
v -1.034766 -0.050000 0.618691
v -1.056845 -0.050000 0.560105
v 0.270142 -0.050000 -1.068747
v 0.305592 0.050000 -1.012817
v 1.084900 -0.050000 0.307267
v 1.027419 0.050000 0.425387
v -0.999763 -0.050000 0.660932
v -1.034766 0.050000 0.618691
v 0.227207 -0.050000 -1.123261
v 0.270142 0.050000 -1.068747
v 1.126213 -0.050000 0.191485
v 1.084900 0.050000 0.307267
v 0.174947 -0.050000 -1.175883
v 0.227207 0.050000 -1.123261
v 1.150930 -0.050000 0.081739
v 1.126213 0.050000 0.191485
v 0.111518 -0.050000 -1.226130
v 0.174947 0.050000 -1.175883
v 1.158625 -0.050000 -0.018278
v 1.150930 0.050000 0.081739
v -0.046053 -0.050000 -1.313860
v 0.111518 0.050000 -1.226130
v 1.148869 -0.050000 -0.104867
v 1.158625 0.050000 -0.018278
v -0.172048 -0.050000 -1.355530
v -0.046053 0.050000 -1.313860
v 1.121235 -0.050000 -0.174332
v 1.148869 0.050000 -0.104867
v -0.271085 -0.050000 -1.356639
v -0.172048 0.050000 -1.355530
v 1.092668 -0.050000 -0.211066
v 1.121235 0.050000 -0.174331
v -0.347776 -0.050000 -1.322688
v -0.271085 0.050000 -1.356639
v 1.056896 -0.050000 -0.244204
v 1.092668 0.050000 -0.211066
v -0.406736 -0.050000 -1.259176
v -0.347776 0.050000 -1.322688
v 1.014998 -0.050000 -0.274629
v 1.056896 0.050000 -0.244204
v -0.878278 -0.050000 0.735961
v -0.999763 0.050000 0.660932
v -0.406736 0.050000 -1.259176
v 1.014998 0.050000 -0.274629
v -0.878278 0.050000 0.735961
vt 0.5135 0.6607
vt 0.3804 0.6655
vt 0.5102 0.6685
vt 0.5258 0.6383
vt 0.3682 0.6305
vt 0.3594 0.6145
vt 1.0000 0.0880
vt 0.9790 0.0598
vt 1.0000 0.0598
vt 1.0000 0.6106
vt 0.9790 0.5961
vt 1.0000 0.5961
vt 0.0210 0.6721
vt 0.0000 0.6478
vt 0.0210 0.6478
vt 1.0000 0.1189
vt 0.9790 0.0880
vt 1.0000 0.6257
vt 0.9790 0.6106
vt 0.0210 0.6933
vt 0.0000 0.6721
vt 1.0000 0.1516
vt 0.9790 0.1189
vt 1.0000 0.6413
vt 0.9790 0.6257
vt 0.0210 0.7130
vt 0.0000 0.6933
vt 1.0000 0.1853
vt 0.9790 0.1516
vt 1.0000 0.6573
vt 0.9790 0.6413
vt 0.0210 0.7327
vt 0.0000 0.7130
vt 1.0000 0.2192
vt 0.9790 0.1853
vt 1.0000 0.6735
vt 0.9790 0.6573
vt 0.0210 0.7537
vt 0.0000 0.7327
vt 1.0000 0.2522
vt 0.9790 0.2192
vt 1.0000 0.6899
vt 0.9790 0.6735
vt 0.0210 0.7777
vt 0.0000 0.7537
vt 1.0000 0.2828
vt 0.9790 0.2522
vt 1.0000 0.7063
vt 0.9790 0.6899
vt 0.0210 0.8062
vt 0.0000 0.7777
vt 1.0000 0.3140
vt 0.9790 0.2828
vt 1.0000 0.7227
vt 0.9790 0.7063
vt 0.0210 0.8407
vt 0.0000 0.8062
vt 1.0000 0.3454
vt 0.9790 0.3140
vt 1.0000 0.7383
vt 0.9790 0.7227
vt 0.0210 0.8826
vt 0.0000 0.8407
vt 1.0000 0.3762
vt 0.9790 0.3454
vt 1.0000 0.7526
vt 0.9790 0.7383
vt 0.0210 0.9335
vt 0.0000 0.8826
vt 1.0000 0.4060
vt 0.9790 0.3762
vt 1.0000 0.7661
vt 0.9790 0.7526
vt 0.0210 0.9634
vt 0.0000 0.9335
vt 1.0000 0.4342
vt 0.9790 0.4060
vt 1.0000 0.7791
vt 0.9790 0.7661
vt 0.0210 0.8420
vt 0.0421 0.8729
vt 0.0210 0.8729
vt 0.9790 0.4602
vt 0.9790 0.4342
vt 1.0000 0.7917
vt 0.9790 0.7791
vt 0.0210 0.8089
vt 0.0421 0.8420
vt 1.0000 0.4835
vt 1.0000 0.4602
vt 1.0000 0.8045
vt 0.9790 0.7917
vt 0.0210 0.7746
vt 0.0421 0.8089
vt 1.0000 0.5034
vt 0.9790 0.4835
vt 1.0000 0.8177
vt 0.9790 0.8045
vt 0.0421 0.7398
vt 0.0421 0.7746
vt 0.9790 0.5195
vt 0.9790 0.5034
vt 1.0000 0.8317
vt 0.9790 0.8177
vt 0.0210 0.7055
vt 0.0210 0.7398
vt 1.0000 0.5312
vt 1.0000 0.5195
vt 1.0000 0.8467
vt 0.9790 0.8317
vt 0.0210 0.6725
vt 0.0421 0.7055
vt 0.0210 0.5839
vt 0.0000 0.5721
vt 0.0210 0.5721
vt 1.0000 0.8631
vt 0.9790 0.8467
vt 0.0210 0.6418
vt 0.0421 0.6725
vt 1.0000 0.8812
vt 0.9790 0.8631
vt 0.0210 0.6143
vt 0.0421 0.6418
vt 1.0000 0.9014
vt 0.9790 0.8812
vt 0.0210 0.5907
vt 0.0421 0.6143
vt 1.0000 0.9466
vt 0.9790 0.9014
vt 0.0210 0.5721
vt 0.0421 0.5907
vt 1.0000 0.9789
vt 0.9790 0.9466
vt 1.0000 0.5464
vt 0.9790 0.5312
vt 1.0000 0.5312
vt 1.0000 1.0000
vt 0.9790 0.9789
vt 1.0000 0.5573
vt 0.9790 0.5464
vt 1.0000 0.0149
vt 0.9790 0.0000
vt 1.0000 0.0000
vt 1.0000 0.5694
vt 0.9790 0.5573
vt 1.0000 0.0352
vt 0.9790 0.0149
vt 1.0000 0.5823
vt 0.9790 0.5694
vt 0.0210 0.6188
vt 0.0000 0.5839
vt 0.9790 0.0352
vt 0.9790 0.5823
vt 0.0000 0.6188
vt 0.3363 0.4514
vt 0.3196 0.4618
vt 0.3104 0.4857
vt 0.3148 0.4676
vt 0.3117 0.4757
vt 0.3106 0.4973
vt 0.3124 0.5104
vt 0.3156 0.5244
vt 0.3201 0.5393
vt 0.3612 0.4343
vt 0.3499 0.4423
vt 0.3327 0.5701
vt 0.4314 0.4121
vt 0.4151 0.4126
vt 0.3406 0.5854
vt 0.3712 0.4275
vt 0.3258 0.5546
vt 0.3906 0.4176
vt 0.3807 0.4219
vt 0.4017 0.4145
vt 0.4518 0.4129
vt 0.5383 0.6252
vt 0.4769 0.4150
vt 0.5454 0.6196
vt 0.5459 0.4361
vt 0.5277 0.4259
vt 0.5529 0.6146
vt 0.5621 0.4486
vt 0.5763 0.4627
vt 0.5885 0.4781
vt 0.5986 0.4942
vt 0.5606 0.6101
vt 0.6122 0.5264
vt 0.6065 0.5104
vt 0.5760 0.6021
vt 0.6166 0.5553
vt 0.6156 0.5415
vt 0.5969 0.5905
vt 0.6115 0.5767
vt 0.6153 0.5672
vt 0.6076 0.5818
vt 0.6026 0.5863
vt 0.5904 0.5945
vt 0.5834 0.5983
vt 0.5683 0.6060
vt 0.5077 0.4184
vt 0.3496 0.6003
vt 0.3594 0.6145
vt 0.5316 0.6315
vt 0.5211 0.6455
vt 0.3682 0.6305
vt 0.3750 0.6478
vt 0.5258 0.6383
vt 0.3897 0.6994
vt 0.3949 0.7140
vt 0.4508 0.7336
vt 0.4012 0.7260
vt 0.4093 0.7348
vt 0.4199 0.7394
vt 0.4335 0.7393
vt 0.4725 0.7215
vt 0.4812 0.7146
vt 0.4884 0.7073
vt 0.3851 0.6830
vt 0.4943 0.6998
vt 0.4992 0.6921
vt 0.5033 0.6843
vt 0.5170 0.6530
vt 0.5069 0.6764
vt 0.3148 0.4676
vt 0.3196 0.4618
vt 0.3117 0.4757
vt 0.3499 0.4423
vt 0.3612 0.4343
vt 0.3201 0.5393
vt 0.3363 0.4514
vt 0.3104 0.4857
vt 0.3124 0.5104
vt 0.3106 0.4973
vt 0.3156 0.5244
vt 0.3327 0.5701
vt 0.3258 0.5546
vt 0.4151 0.4126
vt 0.3496 0.6003
vt 0.3406 0.5854
vt 0.4518 0.4129
vt 0.5383 0.6252
vt 0.5316 0.6315
vt 0.3712 0.4275
vt 0.3807 0.4219
vt 0.4017 0.4145
vt 0.3906 0.4176
vt 0.4314 0.4121
vt 0.4769 0.4150
vt 0.5077 0.4184
vt 0.5277 0.4259
vt 0.5459 0.4361
vt 0.5621 0.4486
vt 0.5454 0.6196
vt 0.5763 0.4627
vt 0.5885 0.4781
vt 0.5529 0.6146
vt 0.5986 0.4942
vt 0.5683 0.6060
vt 0.5606 0.6101
vt 0.6122 0.5264
vt 0.6156 0.5415
vt 0.5834 0.5983
vt 0.6166 0.5553
vt 0.6153 0.5672
vt 0.6026 0.5863
vt 0.6115 0.5767
vt 0.6076 0.5818
vt 0.5969 0.5905
vt 0.5904 0.5945
vt 0.5760 0.6021
vt 0.5211 0.6455
vt 0.3750 0.6478
vt 0.6065 0.5104
vt 0.5170 0.6530
vt 0.5135 0.6607
vt 0.3804 0.6655
vt 0.3897 0.6994
vt 0.3851 0.6830
vt 0.4725 0.7215
vt 0.4012 0.7260
vt 0.3949 0.7140
vt 0.4335 0.7393
vt 0.4199 0.7394
vt 0.4093 0.7348
vt 0.4508 0.7336
vt 0.4812 0.7146
vt 0.4943 0.6998
vt 0.4884 0.7073
vt 0.5033 0.6843
vt 0.4992 0.6921
vt 0.5102 0.6685
vt 0.5069 0.6764
vt 0.0000 0.9634
vt 0.9790 0.5312
vt 0.0421 0.5721
vt 0.9790 1.0000
vn 0.0000 -1.0000 -0.0000
vn 0.0000 1.0000 0.0000
vn -0.9433 0.0000 -0.3319
vn 0.4773 0.0000 -0.8788
vn -0.5760 0.0000 0.8175
vn -0.9628 -0.0000 -0.2702
vn 0.4563 -0.0000 -0.8898
vn -0.5630 0.0000 0.8264
vn -0.9655 0.0000 -0.2604
vn 0.4550 0.0000 -0.8905
vn -0.5069 0.0000 0.8620
vn -0.9560 0.0000 -0.2934
vn 0.4715 0.0000 -0.8819
vn -0.4026 0.0000 0.9154
vn -0.9302 0.0000 -0.3671
vn 0.5045 0.0000 -0.8634
vn -0.2673 0.0000 0.9636
vn -0.8762 0.0000 -0.4820
vn 0.5529 0.0000 -0.8333
vn -0.1359 0.0000 0.9907
vn -0.8228 0.0000 -0.5683
vn 0.6148 0.0000 -0.7887
vn -0.0331 0.0000 0.9995
vn -0.8582 0.0000 -0.5133
vn 0.6873 0.0000 -0.7264
vn 0.0376 0.0000 0.9993
vn -0.8878 0.0000 -0.4601
vn 0.7664 0.0000 -0.6424
vn 0.0829 0.0000 0.9966
vn -0.9135 0.0000 -0.4069
vn 0.8342 0.0000 -0.5515
vn 0.1107 0.0000 0.9939
vn -0.9363 0.0000 -0.3513
vn 0.8807 0.0000 -0.4737
vn 0.3509 0.0000 0.9364
vn -0.9569 0.0000 -0.2904
vn 0.9085 0.0000 -0.4178
vn 0.4911 0.0000 0.8711
vn -0.9755 0.0000 -0.2200
vn 0.9215 0.0000 -0.3884
vn 0.6090 0.0000 0.7932
vn -0.9910 0.0000 -0.1337
vn 0.9220 0.0000 -0.3871
vn 0.7055 0.0000 0.7087
vn -0.9998 0.0000 -0.0213
vn 0.9106 0.0000 -0.4132
vn 0.7837 0.0000 0.6211
vn -0.9910 0.0000 0.1336
vn 0.8857 0.0000 -0.4643
vn 0.8472 0.0000 0.5313
vn -0.9358 0.0000 0.3527
vn 0.8446 0.0000 -0.5354
vn 0.8992 0.0000 0.4376
vn -0.7700 0.0000 0.6381
vn 0.7856 0.0000 -0.6187
vn 0.9418 0.0000 0.3361
vn 0.7095 0.0000 -0.7047
vn 0.9756 0.0000 0.2197
vn 0.6210 0.0000 -0.7838
vn 0.9971 0.0000 0.0767
vn 0.4864 0.0000 -0.8737
vn 0.4865 0.0000 -0.8737
vn 0.9937 -0.0000 -0.1120
vn 0.3140 0.0000 -0.9494
vn 0.9292 0.0000 -0.3696
vn 0.0112 0.0000 -0.9999
vn 0.7894 0.0000 -0.6139
vn -0.4048 0.0000 -0.9144
vn 0.6796 0.0000 -0.7336
vn -0.7329 0.0000 -0.6804
vn 0.5876 0.0000 -0.8092
vn -0.5255 0.0000 0.8508
vn -0.8859 0.0000 -0.4638
vn 0.5202 0.0000 -0.8540
vn -0.5593 0.0000 0.8290
vn 0.6209 0.0000 -0.7839
s 1
f 1/1/1 2/2/1 3/3/1
f 4/4/2 5/5/2 6/6/2
f 7/7/3 8/8/3 9/9/3
f 10/10/4 11/11/4 12/12/4
f 13/13/5 14/14/5 15/15/5
f 16/16/6 17/17/6 7/7/6
f 18/18/7 19/19/7 10/10/7
f 20/20/8 21/21/8 13/13/8
f 2/22/9 22/23/9 16/16/6
f 23/24/10 24/25/10 18/18/7
f 25/26/11 26/27/11 20/20/11
f 27/28/12 28/29/12 2/22/12
f 29/30/13 30/31/13 23/24/13
f 31/32/14 32/33/14 25/26/14
f 33/34/15 34/35/15 27/28/15
f 35/36/16 36/37/16 29/30/16
f 37/38/17 38/39/17 31/32/17
f 39/40/18 5/41/18 33/34/18
f 40/42/19 41/43/19 35/36/19
f 42/44/20 43/45/20 37/38/20
f 44/46/21 6/47/21 39/40/21
f 45/48/22 46/49/22 40/42/22
f 47/50/23 48/51/23 42/44/23
f 49/52/24 50/53/24 44/46/24
f 51/54/25 52/55/25 45/48/25
f 53/56/26 54/57/26 47/50/26
f 55/58/27 56/59/27 49/52/27
f 57/60/28 58/61/28 51/54/28
f 59/62/29 60/63/29 53/56/29
f 61/64/30 62/65/30 55/58/30
f 63/66/31 4/67/31 57/60/31
f 64/68/32 65/69/32 59/62/32
f 66/70/33 67/71/33 61/64/33
f 68/72/34 69/73/34 63/66/34
f 70/74/35 71/75/35 64/68/35
f 72/76/36 73/77/36 66/70/36
f 1/78/37 74/79/37 68/72/37
f 75/80/38 76/81/38 70/82/38
f 72/76/39 77/83/39 78/84/39
f 3/85/40 79/86/40 1/78/40
f 80/87/41 81/88/41 75/80/41
f 82/89/42 77/83/42 83/90/42
f 84/91/43 85/92/43 3/85/40
f 86/93/44 87/94/44 80/87/44
f 88/95/45 89/96/45 82/89/45
f 90/97/46 91/98/46 84/91/46
f 86/93/47 92/99/47 93/100/47
f 88/95/48 94/101/48 95/102/48
f 96/103/49 97/104/49 90/97/49
f 98/105/50 92/99/50 99/106/50
f 100/107/51 94/101/51 101/108/51
f 102/109/52 103/110/52 96/103/52
f 104/111/53 105/112/53 98/105/53
f 106/113/54 107/114/54 100/115/54
f 108/116/55 109/117/55 102/109/55
f 110/118/56 111/119/56 104/111/56
f 112/120/57 113/121/57 108/116/57
f 114/122/58 115/123/58 110/118/58
f 116/124/59 117/125/59 112/120/59
f 118/126/60 119/127/60 114/122/60
f 120/128/61 121/129/62 116/124/62
f 122/130/63 123/131/63 118/126/63
f 124/132/64 125/133/64 120/128/64
f 126/134/65 127/135/65 122/136/65
f 128/137/66 129/138/66 124/132/66
f 130/139/67 131/140/67 126/134/67
f 132/141/68 133/142/68 128/143/68
f 134/144/69 135/145/69 130/139/69
f 136/146/70 137/147/70 132/141/70
f 138/148/71 139/149/71 134/144/71
f 140/150/72 141/151/72 106/113/72
f 9/9/73 142/152/73 136/146/73
f 12/12/74 143/153/74 138/148/74
f 15/15/75 144/154/75 140/150/75
f 140/155/1 106/156/1 88/157/1
f 100/158/1 101/159/1 106/156/1
f 88/157/1 82/160/1 140/155/1
f 83/161/1 72/162/1 140/155/1
f 66/163/1 13/164/1 15/165/1
f 55/166/1 47/167/1 42/168/1
f 49/169/1 47/167/1 55/166/1
f 72/162/1 66/163/1 15/165/1
f 101/159/1 88/157/1 106/156/1
f 15/165/1 140/155/1 72/162/1
f 20/170/1 61/171/1 42/168/1
f 31/172/1 25/173/1 37/174/1
f 42/168/1 37/174/1 20/170/1
f 53/175/1 45/176/1 59/177/1
f 40/178/1 75/179/1 70/180/1
f 40/178/1 35/181/1 80/182/1
f 86/183/1 35/181/1 99/184/1
f 98/185/1 99/184/1 29/186/1
f 110/187/1 104/188/1 18/189/1
f 118/190/1 114/191/1 138/192/1
f 126/193/1 122/194/1 130/195/1
f 134/196/1 130/195/1 122/194/1
f 12/197/1 138/192/1 114/191/1
f 18/189/1 10/198/1 110/187/1
f 23/199/1 18/189/1 104/188/1
f 138/192/1 134/196/1 118/190/1
f 122/194/1 118/190/1 134/196/1
f 104/188/1 98/185/1 23/199/1
f 80/182/1 35/181/1 86/183/1
f 59/177/1 70/180/1 64/200/1
f 37/174/1 25/173/1 20/170/1
f 13/164/1 61/171/1 20/170/1
f 82/160/1 83/161/1 140/155/1
f 61/171/1 13/164/1 66/163/1
f 42/168/1 61/171/1 55/166/1
f 40/178/1 80/182/1 75/179/1
f 114/191/1 10/198/1 12/197/1
f 10/198/1 114/191/1 110/187/1
f 29/186/1 23/199/1 98/185/1
f 99/184/1 35/181/1 29/186/1
f 49/169/1 53/175/1 47/167/1
f 44/201/1 39/202/1 45/176/1
f 59/177/1 40/178/1 70/180/1
f 59/177/1 45/176/1 40/178/1
f 39/202/1 51/203/1 45/176/1
f 63/204/1 33/205/1 27/206/1
f 57/207/1 51/203/1 39/202/1
f 53/175/1 44/201/1 45/176/1
f 53/175/1 49/169/1 44/201/1
f 57/207/1 39/202/1 33/205/1
f 7/208/1 9/209/1 120/210/1
f 136/211/1 132/212/1 128/213/1
f 128/213/1 124/214/1 136/211/1
f 120/210/1 116/215/1 7/208/1
f 112/216/1 108/217/1 16/218/1
f 102/219/1 96/220/1 16/218/1
f 90/221/1 2/2/1 16/218/1
f 90/221/1 16/218/1 96/220/1
f 112/216/1 16/218/1 116/215/1
f 124/214/1 9/209/1 136/211/1
f 9/209/1 124/214/1 120/210/1
f 63/204/1 57/207/1 33/205/1
f 68/222/1 63/204/1 27/206/1
f 7/208/1 116/215/1 16/218/1
f 102/219/1 16/218/1 108/217/1
f 2/2/1 90/221/1 84/223/1
f 1/1/1 68/222/1 27/206/1
f 2/2/1 84/223/1 3/3/1
f 2/2/1 1/1/1 27/206/1
f 107/224/2 141/225/2 94/226/2
f 14/227/2 21/228/2 73/229/2
f 141/225/2 144/230/2 95/231/2
f 95/231/2 94/226/2 141/225/2
f 77/232/2 89/233/2 144/230/2
f 73/229/2 78/234/2 14/227/2
f 62/235/2 67/236/2 48/237/2
f 50/238/2 56/239/2 60/240/2
f 6/6/2 52/241/2 58/242/2
f 67/236/2 26/243/2 48/237/2
f 89/233/2 95/231/2 144/230/2
f 144/230/2 78/234/2 77/232/2
f 26/243/2 32/244/2 43/245/2
f 38/246/2 43/245/2 32/244/2
f 48/237/2 54/247/2 62/235/2
f 60/240/2 65/248/2 52/241/2
f 71/249/2 76/250/2 65/248/2
f 81/251/2 87/252/2 46/253/2
f 93/254/2 92/255/2 41/256/2
f 105/257/2 30/258/2 36/259/2
f 115/260/2 119/261/2 19/262/2
f 123/263/2 127/264/2 139/265/2
f 131/266/2 135/267/2 127/264/2
f 139/265/2 143/268/2 123/263/2
f 11/269/2 19/262/2 119/261/2
f 19/262/2 24/270/2 115/260/2
f 135/267/2 139/265/2 127/264/2
f 119/261/2 143/268/2 11/269/2
f 92/255/2 105/257/2 36/259/2
f 76/250/2 81/251/2 46/253/2
f 54/247/2 60/240/2 56/239/2
f 26/243/2 43/245/2 48/237/2
f 144/230/2 14/227/2 78/234/2
f 56/239/2 62/235/2 54/247/2
f 5/5/2 69/271/2 34/272/2
f 21/228/2 67/236/2 73/229/2
f 65/248/2 76/250/2 46/253/2
f 111/273/2 30/258/2 105/257/2
f 143/268/2 119/261/2 123/263/2
f 24/270/2 111/273/2 115/260/2
f 87/252/2 93/254/2 41/256/2
f 21/228/2 26/243/2 67/236/2
f 34/272/2 74/274/2 79/275/2
f 24/270/2 30/258/2 111/273/2
f 92/255/2 36/259/2 41/256/2
f 28/276/2 34/272/2 79/275/2
f 17/277/2 22/278/2 121/279/2
f 142/280/2 8/281/2 129/282/2
f 133/283/2 137/284/2 142/280/2
f 125/285/2 129/282/2 8/281/2
f 117/286/2 121/279/2 22/278/2
f 109/287/2 113/288/2 22/278/2
f 97/289/2 103/290/2 22/278/2
f 85/291/2 91/292/2 28/276/2
f 79/275/2 85/291/2 28/276/2
f 103/290/2 109/287/2 22/278/2
f 121/279/2 125/285/2 17/277/2
f 133/283/2 142/280/2 129/282/2
f 22/278/2 28/276/2 97/289/2
f 87/252/2 41/256/2 46/253/2
f 65/248/2 46/253/2 52/241/2
f 8/281/2 17/277/2 125/285/2
f 113/288/2 117/286/2 22/278/2
f 91/292/2 97/289/2 28/276/2
f 60/240/2 52/241/2 50/238/2
f 52/241/2 6/6/2 50/238/2
f 34/272/2 69/271/2 74/274/2
f 5/5/2 4/4/2 69/271/2
f 58/242/2 4/4/2 6/6/2
f 7/7/3 17/17/3 8/8/3
f 10/10/4 19/19/4 11/11/4
f 13/13/5 21/21/5 14/14/5
f 16/16/6 22/23/9 17/17/6
f 18/18/7 24/25/10 19/19/7
f 20/20/8 26/27/8 21/21/8
f 2/22/9 28/29/9 22/23/9
f 23/24/10 30/31/10 24/25/10
f 25/26/11 32/33/11 26/27/11
f 27/28/12 34/35/12 28/29/12
f 29/30/13 36/37/13 30/31/13
f 31/32/14 38/39/14 32/33/14
f 33/34/15 5/41/15 34/35/15
f 35/36/16 41/43/16 36/37/16
f 37/38/17 43/45/17 38/39/17
f 39/40/18 6/47/18 5/41/18
f 40/42/19 46/49/19 41/43/19
f 42/44/20 48/51/20 43/45/20
f 44/46/21 50/53/21 6/47/21
f 45/48/22 52/55/22 46/49/22
f 47/50/23 54/57/23 48/51/23
f 49/52/24 56/59/24 50/53/24
f 51/54/25 58/61/25 52/55/25
f 53/56/26 60/63/26 54/57/26
f 55/58/27 62/65/27 56/59/27
f 57/60/28 4/67/28 58/61/28
f 59/62/29 65/69/29 60/63/29
f 61/64/30 67/71/30 62/65/30
f 63/66/31 69/73/31 4/67/31
f 64/68/32 71/75/32 65/69/32
f 66/70/33 73/77/33 67/71/33
f 68/72/34 74/79/34 69/73/34
f 70/74/35 76/293/35 71/75/35
f 72/76/36 78/84/36 73/77/36
f 1/78/37 79/86/37 74/79/37
f 75/80/38 81/88/38 76/81/38
f 72/76/39 83/90/39 77/83/39
f 3/85/40 85/92/43 79/86/40
f 80/87/41 87/94/41 81/88/41
f 82/89/42 89/96/42 77/83/42
f 84/91/43 91/98/43 85/92/43
f 86/93/44 93/100/44 87/94/44
f 88/95/45 95/102/45 89/96/45
f 90/97/46 97/104/46 91/98/46
f 86/93/47 99/106/47 92/99/47
f 88/95/48 101/108/48 94/101/48
f 96/103/49 103/110/49 97/104/49
f 98/105/50 105/112/50 92/99/50
f 100/107/51 107/294/51 94/101/51
f 102/109/52 109/117/52 103/110/52
f 104/111/53 111/119/53 105/112/53
f 106/113/54 141/151/54 107/114/54
f 108/116/55 113/121/55 109/117/55
f 110/118/56 115/123/56 111/119/56
f 112/120/57 117/125/57 113/121/57
f 114/122/58 119/127/58 115/123/58
f 116/124/59 121/129/76 117/125/59
f 118/126/60 123/131/60 119/127/60
f 120/128/61 125/133/61 121/129/62
f 122/130/63 127/295/63 123/131/63
f 124/132/64 129/138/64 125/133/64
f 126/134/65 131/140/65 127/135/65
f 128/137/66 133/296/66 129/138/66
f 130/139/67 135/145/67 131/140/67
f 132/141/68 137/147/68 133/142/68
f 134/144/69 139/149/69 135/145/69
f 136/146/70 142/152/70 137/147/70
f 138/148/71 143/153/71 139/149/71
f 140/150/72 144/154/72 141/151/72
f 9/9/73 8/8/73 142/152/73
f 12/12/74 11/11/74 143/153/74
f 15/15/75 14/14/75 144/154/75
