# Blender v2.78 (sub 0) OBJ File: 'ARMADA_MASTER.blend'
# www.blender.org
o Obstacle_-_Roid_2_-_Mesh_Obstacle_-_Roid_4_Mesh_Mesh.005_Roid_4_Mesh_Mesh.005
v 0.553596 -0.050000 0.146570
v -0.958617 -0.050000 0.111724
v -0.987070 -0.050000 0.006452
v 0.509219 0.050000 0.349348
v 0.553596 0.050000 0.146570
v -0.938651 0.050000 0.210739
v -0.915372 -0.050000 0.395054
v -0.924971 0.050000 0.304761
v -0.924971 -0.050000 0.304761
v 0.287911 -0.050000 -1.476835
v 0.354743 0.050000 -1.489152
v 0.354743 -0.050000 -1.489152
v 1.486068 -0.050000 1.509815
v 1.450707 0.050000 1.559340
v 1.450707 -0.050000 1.559340
v -0.907654 -0.050000 0.482880
v -0.915372 0.050000 0.395054
v 0.219659 -0.050000 -1.455887
v 0.287911 0.050000 -1.476835
v 1.475740 -0.050000 1.425279
v 1.486068 0.050000 1.509815
v -0.899613 -0.050000 0.569501
v -0.907654 0.050000 0.482880
v 0.149619 -0.050000 -1.427423
v 0.219659 0.050000 -1.455887
v 1.427604 -0.050000 1.353064
v 1.475740 0.050000 1.425279
v -0.889046 -0.050000 0.656180
v -0.899613 0.050000 0.569501
v 0.077427 -0.050000 -1.392560
v 0.149619 0.050000 -1.427423
v 1.349052 -0.050000 1.289649
v 1.427604 0.050000 1.353064
v -0.677838 -0.050000 1.182876
v -0.721225 0.050000 1.134663
v -0.721225 -0.050000 1.134663
v -0.873749 -0.050000 0.744182
v -0.889046 0.050000 0.656180
v 0.002717 -0.050000 -1.352413
v 0.077427 0.050000 -1.392560
v 1.247481 -0.050000 1.231516
v 1.349052 0.050000 1.289649
v -0.628258 -0.050000 1.221891
v -0.677838 0.050000 1.182876
v -0.851522 -0.050000 0.834768
v -0.873749 0.050000 0.744182
v -0.074877 -0.050000 -1.308097
v 0.002717 0.050000 -1.352413
v 1.130285 -0.050000 1.175144
v 1.247481 0.050000 1.231516
v -0.572170 -0.050000 1.253048
v -0.628258 0.050000 1.221891
v -0.820161 -0.050000 0.929201
v -0.851522 0.050000 0.834768
v -0.155721 -0.050000 -1.260728
v -0.074877 0.050000 -1.308097
v 1.004859 -0.050000 1.117016
v 1.130285 0.050000 1.175144
v -0.509263 -0.050000 1.277684
v -0.572170 0.050000 1.253048
v -0.777463 -0.050000 1.028745
v -0.820161 0.050000 0.929201
v -0.240180 -0.050000 -1.211423
v -0.155721 0.050000 -1.260728
v 0.878599 -0.050000 1.053612
v 1.004859 0.050000 1.117016
v -0.439222 -0.050000 1.297141
v -0.509263 0.050000 1.277684
v -0.777463 0.050000 1.028745
v -0.328619 -0.050000 -1.161296
v -0.240180 0.050000 -1.211423
v 0.758899 -0.050000 0.981410
v 0.878599 0.050000 1.053612
v -0.361732 -0.050000 1.312753
v -0.439222 0.050000 1.297141
v -0.421405 -0.050000 -1.111465
v -0.328619 0.050000 -1.161296
v 0.653153 -0.050000 0.896895
v 0.758899 0.050000 0.981410
v -0.276479 -0.050000 1.325863
v -0.361732 0.050000 1.312753
v -0.518903 -0.050000 -1.063043
v -0.421405 0.050000 -1.111465
v 0.568758 -0.050000 0.796545
v 0.653153 0.050000 0.896895
v -0.183151 -0.050000 1.337806
v -0.276479 0.050000 1.325863
v -0.611809 -0.050000 -1.012337
v -0.518903 0.050000 -1.063043
v 0.513109 -0.050000 0.676842
v 0.568758 0.050000 0.796545
v -0.081433 -0.050000 1.349923
v -0.183151 0.050000 1.337806
v -0.700368 -0.050000 -0.957192
v -0.611809 0.050000 -1.012337
v 0.493600 -0.050000 0.534265
v 0.513109 0.050000 0.676842
v 0.028990 -0.050000 1.363554
v -0.081433 0.050000 1.349923
v -0.782943 -0.050000 -0.896843
v -0.700368 0.050000 -0.957192
v 0.509219 -0.050000 0.349348
v 0.493600 0.050000 0.534265
v 0.148430 -0.050000 1.380033
v 0.028990 0.050000 1.363554
v -0.857900 -0.050000 -0.830527
v -0.782943 0.050000 -0.896843
v 0.277203 -0.050000 1.400703
v 0.148430 0.050000 1.380033
v -0.923603 -0.050000 -0.757480
v -0.857900 0.050000 -0.830527
v 0.616919 -0.050000 -0.067834
v 0.402747 -0.050000 1.420983
v 0.277203 0.050000 1.400703
v -0.978417 -0.050000 -0.676940
v -0.923603 0.050000 -0.757480
v 0.689377 -0.050000 -0.287628
v 0.616919 0.050000 -0.067834
v 0.531157 -0.050000 1.447852
v 0.402747 0.050000 1.420983
v -1.020708 -0.050000 -0.588141
v -0.978417 0.050000 -0.676940
v 0.761159 -0.050000 -0.506577
v 0.689377 0.050000 -0.287628
v 0.660222 -0.050000 1.478723
v 0.531157 0.050000 1.447852
v -1.048839 -0.050000 -0.490321
v -1.020708 0.050000 -0.588141
v 0.822451 -0.050000 -0.718443
v 0.761159 0.050000 -0.506577
v 0.787728 -0.050000 1.511010
v 0.660222 0.050000 1.478723
v -1.061176 -0.050000 -0.382715
v -1.048839 0.050000 -0.490321
v 0.863445 -0.050000 -0.916992
v 0.822451 0.050000 -0.718443
v 0.911460 -0.050000 1.542127
v 0.787728 0.050000 1.511010
v -1.056083 -0.050000 -0.264559
v -1.061176 0.050000 -0.382715
v 0.874328 -0.050000 -1.095988
v 0.863445 0.050000 -0.916992
v 1.029207 -0.050000 1.569484
v 0.911460 0.050000 1.542127
v -1.031927 -0.050000 -0.135092
v -1.056083 0.050000 -0.264559
v 0.845287 0.050000 -1.249194
v 0.874328 0.050000 -1.095988
v 1.138756 -0.050000 1.590495
v 1.029207 0.050000 1.569484
v -1.031927 0.050000 -0.135092
v 0.766514 -0.050000 -1.370377
v 0.845287 -0.050000 -1.249194
v 1.237893 -0.050000 1.602573
v 1.138756 0.050000 1.590495
v -0.987070 0.050000 0.006453
v 0.628194 -0.050000 -1.453298
v 0.766514 0.050000 -1.370377
v 1.324406 -0.050000 1.603132
v 1.237893 0.050000 1.602573
v -0.938651 -0.050000 0.210739
v -0.958617 0.050000 0.111724
v 0.420518 -0.050000 -1.491723
v 0.628194 0.050000 -1.453298
v 1.396081 -0.050000 1.589583
v 1.324406 0.050000 1.603132
v 0.420518 0.050000 -1.491723
v 1.396081 0.050000 1.589583
vt 0.5359 0.4911
vt 0.3195 0.4961
vt 0.3154 0.5111
vt 0.5296 0.4621
vt 0.5359 0.4911
vt 0.3224 0.4819
vt 0.9623 0.5183
vt 0.9811 0.5376
vt 0.9623 0.5376
vt 1.0000 0.4682
vt 0.9811 0.4543
vt 1.0000 0.4543
vt 0.0189 0.7817
vt 0.0377 0.7955
vt 0.0189 0.7955
vt 0.9623 0.4996
vt 0.9811 0.5183
vt 1.0000 0.4836
vt 0.9811 0.4682
vt 0.0189 0.7637
vt 0.0377 0.7817
vt 0.9623 0.4812
vt 0.9811 0.4996
vt 1.0000 0.5006
vt 0.9811 0.4836
vt 0.9623 0.9809
vt 0.9811 1.0000
vt 0.9623 1.0000
vt 0.9623 0.4625
vt 0.9811 0.4812
vt 1.0000 0.5189
vt 0.9811 0.5006
vt 0.9623 0.9572
vt 0.9811 0.9809
vt 0.9623 0.3305
vt 0.9811 0.3456
vt 0.9623 0.3456
vt 0.9623 0.4429
vt 0.9811 0.4625
vt 1.0000 0.5384
vt 0.9811 0.5189
vt 0.9623 0.9297
vt 0.9811 0.9572
vt 0.9623 0.3166
vt 0.9811 0.3305
vt 0.9623 0.4219
vt 0.9811 0.4429
vt 1.0000 0.5591
vt 0.9811 0.5384
vt 0.9623 0.8994
vt 0.9811 0.9297
vt 0.9623 0.3034
vt 0.9811 0.3166
vt 0.9623 0.3991
vt 0.9811 0.4219
vt 1.0000 0.5809
vt 0.9811 0.5591
vt 0.9623 0.8674
vt 0.9811 0.8994
vt 0.9623 0.2907
vt 0.9811 0.3034
vt 0.9623 0.3738
vt 0.9811 0.3991
vt 1.0000 0.6036
vt 0.9811 0.5809
vt 0.9623 0.8344
vt 0.9811 0.8674
vt 0.9623 0.2782
vt 0.9811 0.2907
vt 0.9811 0.3738
vt 1.0000 0.6271
vt 0.9811 0.6036
vt 0.9623 0.8015
vt 0.9811 0.8344
vt 0.9623 0.2656
vt 0.9811 0.2782
vt 1.0000 0.6514
vt 0.9811 0.6271
vt 0.9623 0.7697
vt 0.9811 0.8015
vt 0.9623 0.2524
vt 0.9811 0.2656
vt 1.0000 0.6763
vt 0.9811 0.6514
vt 0.9623 0.7398
vt 0.9811 0.7697
vt 0.9623 0.2386
vt 0.9811 0.2524
vt 1.0000 0.7007
vt 0.9811 0.6763
vt 0.9623 0.7129
vt 0.9811 0.7398
vt 0.9623 0.2236
vt 0.9811 0.2386
vt 1.0000 0.7251
vt 0.9811 0.7007
vt 1.0000 0.0302
vt 0.9811 0.0000
vt 1.0000 0.0000
vt 0.9623 0.2073
vt 0.9811 0.2236
vt 1.0000 0.7491
vt 0.9811 0.7251
vt 1.0000 0.0725
vt 0.9811 0.0302
vt 0.9623 0.1894
vt 0.9811 0.2073
vt 1.0000 0.7727
vt 0.9811 0.7491
vt 1.0000 0.1211
vt 0.9811 0.0725
vt 0.9623 0.1694
vt 0.9811 0.1894
vt 1.0000 0.7957
vt 0.9811 0.7727
vt 1.0000 0.1737
vt 0.9811 0.1211
vt 0.9623 0.1499
vt 0.9811 0.1694
vt 1.0000 0.8178
vt 0.9811 0.7957
vt 1.0000 0.2283
vt 0.9811 0.1737
vt 0.9623 0.1287
vt 0.9811 0.1499
vt 1.0000 0.8390
vt 0.9811 0.8178
vt 1.0000 0.2826
vt 0.9811 0.2283
vt 0.9623 0.1066
vt 0.9811 0.1287
vt 1.0000 0.8590
vt 0.9811 0.8390
vt 1.0000 0.3345
vt 0.9811 0.2826
vt 0.9623 0.0845
vt 0.9811 0.1066
vt 0.9623 0.6927
vt 0.9811 0.7129
vt 0.9623 0.7129
vt 1.0000 0.3819
vt 0.9811 0.3345
vt 0.9623 0.0630
vt 0.9811 0.0845
vt 0.9623 0.6683
vt 0.9811 0.6927
vt 1.0000 0.4225
vt 0.9811 0.3819
vt 0.9623 0.0430
vt 0.9811 0.0630
vt 0.9623 0.6393
vt 0.9811 0.6683
vt 0.9811 0.4543
vt 0.9811 0.4225
vt 0.9623 0.0253
vt 0.9811 0.0430
vt 0.9623 0.6053
vt 0.9811 0.6393
vt 0.0189 0.7953
vt 0.0000 0.7637
vt 0.0189 0.7637
vt 0.9623 0.0107
vt 0.9811 0.0253
vt 0.9623 0.5806
vt 0.9811 0.6053
vt 0.0189 0.8332
vt 0.0000 0.7953
vt 0.9623 0.0000
vt 0.9811 0.0107
vt 0.9623 0.5582
vt 0.9811 0.5806
vt 0.0189 0.8785
vt 0.0000 0.8332
vt 0.0189 0.8065
vt 0.0377 0.8151
vt 0.0189 0.8151
vt 0.9811 0.5582
vt 0.0189 0.8909
vt 0.0000 0.8785
vt 0.0377 0.8065
vt 0.3597 0.3428
vt 0.3535 0.3497
vt 0.3668 0.3372
vt 0.3454 0.3648
vt 0.3393 0.3791
vt 0.4049 0.3242
vt 0.3348 0.3926
vt 0.5273 0.4356
vt 0.4171 0.3223
vt 0.3295 0.4181
vt 0.3316 0.4056
vt 0.3279 0.4306
vt 0.3838 0.3292
vt 0.3748 0.3327
vt 0.3938 0.3264
vt 0.4305 0.3206
vt 0.5301 0.4152
vt 0.4450 0.3189
vt 0.4608 0.3169
vt 0.3268 0.4429
vt 0.5296 0.4621
vt 0.4779 0.3146
vt 0.5381 0.3981
vt 0.4964 0.3116
vt 0.3257 0.4555
vt 0.3090 0.5314
vt 0.3565 0.6490
vt 0.3243 0.4684
vt 0.5143 0.3087
vt 0.5502 0.3837
vt 0.3056 0.5499
vt 0.3446 0.6404
vt 0.3048 0.5668
vt 0.3066 0.5822
vt 0.3167 0.6089
vt 0.3106 0.5962
vt 0.3245 0.6204
vt 0.3339 0.6309
vt 0.3691 0.6569
vt 0.3824 0.6642
vt 0.5450 0.5218
vt 0.5327 0.3049
vt 0.5871 0.2914
vt 0.5694 0.2958
vt 0.6005 0.3522
vt 0.5512 0.3004
vt 0.5653 0.3716
vt 0.3964 0.6711
vt 0.5553 0.5532
vt 0.6040 0.2875
vt 0.6184 0.3439
vt 0.6338 0.2827
vt 0.6196 0.2844
vt 0.6497 0.3275
vt 0.6565 0.2846
vt 0.6462 0.2826
vt 0.6610 0.3184
vt 0.6693 0.2960
vt 0.6643 0.2889
vt 0.6679 0.3081
vt 0.6352 0.3358
vt 0.5824 0.3613
vt 0.4344 0.6925
vt 0.4460 0.6992
vt 0.5656 0.5845
vt 0.4571 0.7056
vt 0.4678 0.7113
vt 0.5744 0.6149
vt 0.4781 0.7163
vt 0.4881 0.7204
vt 0.5802 0.6433
vt 0.4979 0.7234
vt 0.5075 0.7252
vt 0.5169 0.7255
vt 0.5466 0.7200
vt 0.5818 0.6689
vt 0.5664 0.7082
vt 0.5777 0.6908
vt 0.4223 0.6854
vt 0.4097 0.6782
vt 0.3224 0.4819
vt 0.3454 0.3648
vt 0.3535 0.3497
vt 0.3668 0.3372
vt 0.3597 0.3428
vt 0.3748 0.3327
vt 0.3838 0.3292
vt 0.3938 0.3264
vt 0.4049 0.3242
vt 0.4171 0.3223
vt 0.4305 0.3206
vt 0.5273 0.4356
vt 0.3393 0.3791
vt 0.3316 0.4056
vt 0.3348 0.3926
vt 0.3279 0.4306
vt 0.3295 0.4181
vt 0.3257 0.4555
vt 0.3268 0.4429
vt 0.3243 0.4684
vt 0.4450 0.3189
vt 0.4608 0.3169
vt 0.5301 0.4152
vt 0.4779 0.3146
vt 0.5381 0.3981
vt 0.3195 0.4961
vt 0.4964 0.3116
vt 0.5502 0.3837
vt 0.5512 0.3004
vt 0.5694 0.2958
vt 0.5824 0.3613
vt 0.5143 0.3087
vt 0.3056 0.5499
vt 0.3090 0.5314
vt 0.3446 0.6404
vt 0.3154 0.5111
vt 0.6005 0.3522
vt 0.6040 0.2875
vt 0.6196 0.2844
vt 0.6352 0.3358
vt 0.6338 0.2827
vt 0.6462 0.2826
vt 0.6497 0.3275
vt 0.6565 0.2846
vt 0.6643 0.2889
vt 0.6679 0.3081
vt 0.6693 0.2960
vt 0.6610 0.3184
vt 0.6184 0.3439
vt 0.5327 0.3049
vt 0.3048 0.5668
vt 0.3339 0.6309
vt 0.3106 0.5962
vt 0.3066 0.5822
vt 0.3167 0.6089
vt 0.3245 0.6204
vt 0.3691 0.6569
vt 0.3565 0.6490
vt 0.3964 0.6711
vt 0.3824 0.6642
vt 0.5450 0.5218
vt 0.5653 0.3716
vt 0.5871 0.2914
vt 0.4097 0.6782
vt 0.5553 0.5532
vt 0.4223 0.6854
vt 0.4571 0.7056
vt 0.4460 0.6992
vt 0.5744 0.6149
vt 0.4344 0.6925
vt 0.5656 0.5845
vt 0.4781 0.7163
vt 0.4678 0.7113
vt 0.5802 0.6433
vt 0.4979 0.7234
vt 0.4881 0.7204
vt 0.5169 0.7255
vt 0.5075 0.7252
vt 0.5664 0.7082
vt 0.5466 0.7200
vt 0.5777 0.6908
vt 0.5818 0.6689
vt 0.0377 0.7637
vt 0.9811 0.7129
vt 0.9811 0.8590
vt 1.0000 0.4543
vt 0.9811 0.0000
vt 0.0000 0.8909
vn -0.0000 -1.0000 -0.0000
vn 0.0000 1.0000 0.0000
vn -0.9944 0.0000 0.1057
vn -0.1812 0.0000 -0.9834
vn 0.8138 0.0000 0.5811
vn -0.9962 0.0000 0.0876
vn -0.9962 0.0000 0.0875
vn -0.2934 0.0000 -0.9560
vn 0.9926 0.0000 -0.1213
vn -0.9957 0.0000 0.0924
vn -0.3765 0.0000 -0.9264
vn 0.8321 0.0000 -0.5546
vn -0.9927 0.0000 0.1210
vn -0.4349 0.0000 -0.9005
vn 0.6282 0.0000 -0.7781
vn -0.7433 0.0000 0.6689
vn -0.9852 0.0000 0.1713
vn -0.4733 0.0000 -0.8809
vn 0.4967 0.0000 -0.8679
vn -0.6184 0.0000 0.7859
vn -0.9712 0.0000 0.2383
vn -0.4959 0.0000 -0.8684
vn 0.4335 0.0000 -0.9012
vn -0.4856 0.0000 0.8742
vn -0.9490 0.0000 0.3152
vn -0.5053 -0.0000 -0.8630
vn -0.5055 -0.0000 -0.8628
vn 0.4205 0.0000 -0.9073
vn -0.3647 0.0000 0.9311
vn -0.9190 0.0000 0.3942
vn -0.5042 -0.0000 -0.8636
vn -0.5044 0.0000 -0.8635
vn 0.4488 0.0000 -0.8936
vn 0.4488 0.0000 -0.8937
vn -0.2676 0.0000 0.9635
vn -0.8832 0.0000 0.4690
vn -0.4931 0.0000 -0.8700
vn 0.5165 0.0000 -0.8563
vn -0.1975 0.0000 0.9803
vn -0.4731 0.0000 -0.8810
vn 0.6243 0.0000 -0.7812
vn -0.1520 0.0000 0.9884
vn -0.4448 0.0000 -0.8956
vn 0.7653 0.0000 -0.6436
vn -0.1269 -0.0000 0.9919
vn -0.4791 0.0000 -0.8778
vn 0.9068 0.0000 -0.4216
vn -0.1184 -0.0000 0.9930
vn -0.1183 0.0000 0.9930
vn -0.5286 0.0000 -0.8489
vn 0.9908 0.0000 -0.1356
vn -0.1225 0.0000 0.9925
vn -0.5901 0.0000 -0.8074
vn 0.9965 0.0000 0.0842
vn -0.1367 0.0000 0.9906
vn -0.6626 0.0000 -0.7490
vn 0.9769 0.0000 0.2138
vn -0.1583 -0.0000 0.9874
vn -0.1585 0.0000 0.9874
vn -0.7435 0.0000 -0.6687
vn 0.9590 0.0000 0.2832
vn -0.1595 0.0000 0.9872
vn -0.1590 0.0000 0.9873
vn -0.8267 0.0000 -0.5626
vn 0.9497 0.0000 0.3131
vn -0.2048 0.0000 0.9788
vn -0.9028 0.0000 -0.4300
vn 0.9502 0.0000 0.3115
vn 0.9502 0.0000 0.3116
vn -0.2326 -0.0000 0.9726
vn -0.9610 0.0000 -0.2764
vn 0.9606 0.0000 0.2779
vn -0.2447 0.0000 0.9696
vn -0.2455 0.0000 0.9694
vn -0.9935 0.0000 -0.1139
vn 0.9793 0.0000 0.2022
vn -0.2439 0.0000 0.9698
vn -0.2440 0.0000 0.9698
vn -0.9991 0.0000 0.0431
vn 0.9982 0.0000 0.0607
vn -0.2263 0.0000 0.9741
vn -0.9830 0.0000 0.1834
vn 0.9825 0.0000 -0.1862
vn -0.1884 0.0000 0.9821
vn -0.9533 -0.0000 0.3021
vn 0.8384 0.0000 -0.5450
vn -0.1209 0.0000 0.9927
vn -0.9654 -0.0000 0.2609
vn 0.5142 0.0000 -0.8577
vn -0.0065 0.0000 1.0000
vn -0.9803 -0.0000 0.1977
vn 0.1819 0.0000 -0.9833
vn 0.1857 0.0000 0.9826
vn -0.9896 0.0000 0.1440
vn -0.0390 0.0000 -0.9992
vn 0.4844 0.0000 0.8749
s 1
f 1/1/1 2/2/1 3/3/1
f 4/4/2 5/5/2 6/6/2
f 7/7/3 8/8/3 9/9/3
f 10/10/4 11/11/4 12/12/4
f 13/13/5 14/14/5 15/15/5
f 16/16/6 17/17/7 7/7/7
f 18/18/8 19/19/8 10/10/8
f 20/20/9 21/21/9 13/13/9
f 22/22/10 23/23/10 16/16/6
f 24/24/11 25/25/11 18/18/11
f 26/26/12 27/27/12 20/28/12
f 28/29/13 29/30/13 22/22/13
f 30/31/14 31/32/14 24/24/14
f 32/33/15 33/34/15 26/26/15
f 34/35/16 35/36/16 36/37/16
f 37/38/17 38/39/17 28/29/17
f 39/40/18 40/41/18 30/31/18
f 41/42/19 42/43/19 32/33/19
f 43/44/20 44/45/20 34/35/20
f 45/46/21 46/47/21 37/38/21
f 47/48/22 48/49/22 39/40/22
f 49/50/23 50/51/23 41/42/23
f 51/52/24 52/53/24 43/44/24
f 53/54/25 54/55/25 45/46/25
f 55/56/26 56/57/27 47/48/22
f 57/58/28 58/59/28 49/50/28
f 59/60/29 60/61/29 51/52/29
f 61/62/30 62/63/30 53/54/30
f 63/64/31 64/65/32 55/56/26
f 65/66/33 66/67/33 57/58/34
f 67/68/35 68/69/35 59/60/35
f 36/37/36 69/70/36 61/62/36
f 70/71/37 71/72/37 63/64/31
f 72/73/38 73/74/38 65/66/38
f 74/75/39 75/76/39 67/68/39
f 76/77/40 77/78/40 70/71/40
f 78/79/41 79/80/41 72/73/41
f 80/81/42 81/82/42 74/75/42
f 82/83/43 83/84/43 76/77/43
f 84/85/44 85/86/44 78/79/44
f 86/87/45 87/88/45 80/81/45
f 88/89/46 89/90/46 82/83/46
f 90/91/47 91/92/47 84/85/47
f 92/93/48 93/94/49 86/87/45
f 94/95/50 95/96/50 88/89/50
f 96/97/51 97/98/51 90/99/51
f 98/100/52 99/101/52 92/93/48
f 100/102/53 101/103/53 94/95/53
f 102/104/54 103/105/54 96/97/54
f 104/106/55 105/107/55 98/100/55
f 106/108/56 107/109/56 100/102/56
f 1/110/57 4/111/57 102/104/57
f 108/112/58 109/113/59 104/106/59
f 110/114/60 111/115/60 106/108/60
f 112/116/61 5/117/61 1/110/61
f 113/118/62 114/119/63 108/112/58
f 115/120/64 116/121/64 110/114/64
f 117/122/65 118/123/65 112/116/65
f 119/124/66 120/125/66 113/118/66
f 121/126/67 122/127/67 115/120/67
f 123/128/68 124/129/69 117/122/65
f 125/130/70 126/131/70 119/124/70
f 127/132/71 128/133/71 121/126/71
f 129/134/72 130/135/72 123/128/72
f 131/136/73 132/137/74 125/130/70
f 133/138/75 134/139/75 127/140/75
f 135/141/76 136/142/76 129/134/76
f 137/143/77 138/144/78 131/136/73
f 139/145/79 140/146/79 133/138/79
f 141/147/80 142/148/80 135/141/80
f 143/149/81 144/150/81 137/143/81
f 145/151/82 146/152/82 139/145/82
f 141/147/83 147/153/83 148/154/83
f 149/155/84 150/156/84 143/149/84
f 3/157/85 151/158/85 145/151/85
f 152/159/86 147/160/86 153/161/86
f 154/162/87 155/163/87 149/155/87
f 2/164/88 156/165/88 3/157/88
f 157/166/89 158/167/89 152/159/89
f 159/168/90 160/169/90 154/162/90
f 161/170/91 162/171/91 2/164/91
f 163/172/92 164/173/92 157/166/92
f 165/174/93 166/175/93 159/176/93
f 9/9/94 6/177/94 161/170/94
f 12/178/95 167/179/95 163/172/95
f 15/15/96 168/180/96 165/174/96
f 34/181/1 36/182/1 43/183/1
f 61/184/1 53/185/1 74/186/1
f 45/187/1 96/188/1 80/189/1
f 28/190/1 96/188/1 37/191/1
f 22/192/1 96/188/1 28/190/1
f 53/185/1 80/189/1 74/186/1
f 43/183/1 36/182/1 61/184/1
f 59/193/1 51/194/1 61/184/1
f 74/186/1 67/195/1 61/184/1
f 86/196/1 96/188/1 90/197/1
f 92/198/1 86/196/1 90/197/1
f 67/195/1 59/193/1 61/184/1
f 43/183/1 61/184/1 51/194/1
f 45/187/1 80/189/1 53/185/1
f 80/189/1 96/188/1 86/196/1
f 98/199/1 92/198/1 90/197/1
f 16/200/1 96/188/1 22/192/1
f 102/201/1 96/188/1 16/200/1
f 104/202/1 98/199/1 84/203/1
f 108/204/1 104/202/1 84/203/1
f 102/201/1 16/200/1 7/205/1
f 3/3/1 145/206/1 94/207/1
f 102/201/1 7/205/1 9/208/1
f 113/209/1 108/204/1 78/210/1
f 98/199/1 90/197/1 84/203/1
f 145/206/1 139/211/1 100/212/1
f 133/213/1 127/214/1 115/215/1
f 121/216/1 115/215/1 127/214/1
f 110/217/1 106/218/1 133/213/1
f 100/212/1 94/207/1 145/206/1
f 88/219/1 82/220/1 112/221/1
f 94/207/1 88/219/1 3/3/1
f 115/215/1 110/217/1 133/213/1
f 139/211/1 106/218/1 100/212/1
f 119/222/1 113/209/1 78/210/1
f 137/223/1 131/224/1 57/225/1
f 125/226/1 119/222/1 72/227/1
f 133/213/1 106/218/1 139/211/1
f 82/220/1 76/228/1 112/221/1
f 76/228/1 117/229/1 112/221/1
f 96/188/1 45/187/1 37/191/1
f 143/230/1 137/223/1 49/231/1
f 154/232/1 149/233/1 32/234/1
f 165/235/1 159/236/1 26/237/1
f 13/238/1 15/239/1 20/240/1
f 26/237/1 20/240/1 165/235/1
f 41/241/1 32/234/1 149/233/1
f 57/225/1 49/231/1 137/223/1
f 49/231/1 41/241/1 143/230/1
f 20/240/1 15/239/1 165/235/1
f 159/236/1 32/234/1 26/237/1
f 131/224/1 125/226/1 65/242/1
f 159/236/1 154/232/1 32/234/1
f 65/242/1 57/225/1 131/224/1
f 41/241/1 149/233/1 143/230/1
f 55/243/1 47/244/1 123/245/1
f 39/246/1 30/247/1 129/248/1
f 24/249/1 18/250/1 135/251/1
f 10/252/1 12/253/1 163/254/1
f 163/254/1 157/255/1 141/256/1
f 152/257/1 153/258/1 157/255/1
f 141/256/1 135/251/1 163/254/1
f 129/248/1 123/245/1 47/244/1
f 123/245/1 117/229/1 63/259/1
f 153/258/1 141/256/1 157/255/1
f 10/252/1 163/254/1 135/251/1
f 30/247/1 135/251/1 129/248/1
f 63/259/1 55/243/1 123/245/1
f 72/227/1 65/242/1 125/226/1
f 78/210/1 72/227/1 119/222/1
f 47/244/1 39/246/1 129/248/1
f 10/252/1 135/251/1 18/250/1
f 135/251/1 30/247/1 24/249/1
f 70/260/1 117/229/1 76/228/1
f 84/203/1 78/210/1 108/204/1
f 102/201/1 9/208/1 161/261/1
f 63/259/1 117/229/1 70/260/1
f 88/219/1 112/221/1 3/3/1
f 1/1/1 102/201/1 161/261/1
f 2/2/1 1/1/1 161/261/1
f 112/221/1 1/1/1 3/3/1
f 69/262/2 35/263/2 52/264/2
f 44/265/2 52/264/2 35/263/2
f 60/266/2 68/267/2 69/262/2
f 75/268/2 81/269/2 69/262/2
f 87/270/2 93/271/2 103/272/2
f 81/269/2 87/270/2 62/273/2
f 52/264/2 60/266/2 69/262/2
f 62/273/2 69/262/2 81/269/2
f 46/274/2 54/275/2 103/272/2
f 29/276/2 38/277/2 103/272/2
f 17/278/2 23/279/2 4/4/2
f 23/279/2 29/276/2 103/272/2
f 54/275/2 62/273/2 87/270/2
f 68/267/2 75/268/2 69/262/2
f 87/270/2 103/272/2 54/275/2
f 38/277/2 46/274/2 103/272/2
f 8/280/2 17/278/2 4/4/2
f 99/281/2 105/282/2 97/283/2
f 105/282/2 109/284/2 91/285/2
f 6/6/2 8/280/2 4/4/2
f 162/286/2 6/6/2 5/5/2
f 109/284/2 114/287/2 91/285/2
f 99/281/2 97/283/2 93/271/2
f 114/287/2 85/288/2 91/285/2
f 132/289/2 138/290/2 73/291/2
f 120/292/2 85/288/2 114/287/2
f 146/293/2 151/294/2 107/295/2
f 156/296/2 162/286/2 5/5/2
f 138/290/2 66/297/2 73/291/2
f 150/298/2 155/299/2 50/300/2
f 160/301/2 166/302/2 42/303/2
f 168/304/2 14/305/2 27/306/2
f 21/307/2 27/306/2 14/305/2
f 33/308/2 42/303/2 166/302/2
f 50/300/2 58/309/2 150/298/2
f 33/308/2 166/302/2 168/304/2
f 168/304/2 27/306/2 33/308/2
f 155/299/2 42/303/2 50/300/2
f 126/310/2 85/288/2 120/292/2
f 140/311/2 146/293/2 111/312/2
f 128/313/2 134/314/2 122/315/2
f 116/316/2 122/315/2 140/311/2
f 107/295/2 111/312/2 146/293/2
f 95/317/2 101/318/2 156/296/2
f 83/319/2 89/320/2 118/321/2
f 89/320/2 95/317/2 118/321/2
f 111/312/2 116/316/2 140/311/2
f 134/314/2 140/311/2 122/315/2
f 132/289/2 79/322/2 126/310/2
f 42/303/2 155/299/2 160/301/2
f 58/309/2 144/323/2 150/298/2
f 151/294/2 101/318/2 107/295/2
f 101/318/2 151/294/2 156/296/2
f 77/324/2 83/319/2 124/325/2
f 66/297/2 144/323/2 58/309/2
f 138/290/2 144/323/2 66/297/2
f 71/326/2 77/324/2 124/325/2
f 48/327/2 56/328/2 136/329/2
f 64/330/2 71/326/2 130/331/2
f 73/291/2 79/322/2 132/289/2
f 79/322/2 85/288/2 126/310/2
f 56/328/2 64/330/2 130/331/2
f 31/332/2 40/333/2 142/334/2
f 19/335/2 25/336/2 142/334/2
f 167/337/2 11/338/2 19/335/2
f 158/339/2 164/340/2 147/341/2
f 148/342/2 147/341/2 164/340/2
f 136/329/2 142/334/2 40/333/2
f 124/325/2 130/331/2 71/326/2
f 118/321/2 124/325/2 83/319/2
f 142/334/2 167/337/2 19/335/2
f 164/340/2 167/337/2 148/342/2
f 25/336/2 31/332/2 142/334/2
f 105/282/2 91/285/2 97/283/2
f 93/271/2 97/283/2 103/272/2
f 40/333/2 48/327/2 136/329/2
f 148/342/2 167/337/2 142/334/2
f 130/331/2 136/329/2 56/328/2
f 95/317/2 156/296/2 118/321/2
f 23/279/2 103/272/2 4/4/2
f 5/5/2 118/321/2 156/296/2
f 7/7/3 17/17/3 8/8/3
f 10/10/4 19/19/4 11/11/4
f 13/13/5 21/21/5 14/14/5
f 16/16/6 23/23/10 17/17/7
f 18/18/8 25/25/8 19/19/8
f 20/20/9 27/343/9 21/21/9
f 22/22/10 29/30/10 23/23/10
f 24/24/11 31/32/11 25/25/11
f 26/26/12 33/34/12 27/27/12
f 28/29/13 38/39/13 29/30/13
f 30/31/14 40/41/14 31/32/14
f 32/33/15 42/43/15 33/34/15
f 34/35/16 44/45/16 35/36/16
f 37/38/17 46/47/17 38/39/17
f 39/40/18 48/49/18 40/41/18
f 41/42/19 50/51/19 42/43/19
f 43/44/20 52/53/20 44/45/20
f 45/46/21 54/55/21 46/47/21
f 47/48/22 56/57/27 48/49/22
f 49/50/23 58/59/23 50/51/23
f 51/52/24 60/61/24 52/53/24
f 53/54/25 62/63/25 54/55/25
f 55/56/26 64/65/32 56/57/27
f 57/58/28 66/67/28 58/59/28
f 59/60/29 68/69/29 60/61/29
f 61/62/30 69/70/30 62/63/30
f 63/64/31 71/72/37 64/65/32
f 65/66/33 73/74/34 66/67/33
f 67/68/35 75/76/35 68/69/35
f 36/37/36 35/36/36 69/70/36
f 70/71/37 77/78/37 71/72/37
f 72/73/38 79/80/38 73/74/38
f 74/75/39 81/82/39 75/76/39
f 76/77/40 83/84/40 77/78/40
f 78/79/41 85/86/41 79/80/41
f 80/81/42 87/88/42 81/82/42
f 82/83/43 89/90/43 83/84/43
f 84/85/44 91/92/44 85/86/44
f 86/87/45 93/94/49 87/88/45
f 88/89/46 95/96/46 89/90/46
f 90/91/47 97/344/47 91/92/47
f 92/93/48 99/101/52 93/94/49
f 94/95/50 101/103/50 95/96/50
f 96/97/51 103/105/51 97/98/51
f 98/100/52 105/107/52 99/101/52
f 100/102/53 107/109/53 101/103/53
f 102/104/54 4/111/54 103/105/54
f 104/106/55 109/113/55 105/107/55
f 106/108/56 111/115/56 107/109/56
f 1/110/57 5/117/57 4/111/57
f 108/112/58 114/119/63 109/113/59
f 110/114/60 116/121/60 111/115/60
f 112/116/61 118/123/61 5/117/61
f 113/118/62 120/125/62 114/119/63
f 115/120/64 122/127/64 116/121/64
f 117/122/65 124/129/69 118/123/65
f 119/124/66 126/131/66 120/125/66
f 121/126/67 128/133/67 122/127/67
f 123/128/68 130/135/68 124/129/69
f 125/130/70 132/137/74 126/131/70
f 127/132/71 134/345/71 128/133/71
f 129/134/72 136/142/72 130/135/72
f 131/136/73 138/144/78 132/137/74
f 133/138/75 140/146/75 134/139/75
f 135/141/76 142/148/76 136/142/76
f 137/143/77 144/150/77 138/144/78
f 139/145/79 146/152/79 140/146/79
f 141/147/80 148/154/80 142/148/80
f 143/149/81 150/156/81 144/150/81
f 145/151/82 151/158/82 146/152/82
f 141/147/83 153/346/83 147/153/83
f 149/155/84 155/163/84 150/156/84
f 3/157/85 156/165/85 151/158/85
f 152/159/86 158/167/86 147/160/86
f 154/162/87 160/169/87 155/163/87
f 2/164/88 162/171/88 156/165/88
f 157/166/89 164/173/89 158/167/89
f 159/168/90 166/347/90 160/169/90
f 161/170/91 6/177/91 162/171/91
f 163/172/92 167/179/92 164/173/92
f 165/174/93 168/180/93 166/175/93
f 9/9/94 8/8/94 6/177/94
f 12/178/95 11/348/95 167/179/95
f 15/15/96 14/14/96 168/180/96
