# Blender v2.78 (sub 0) OBJ File: 'ARMADA_MASTER.blend'
# www.blender.org
o Circle_Circle.007
v 0.000000 0.000000 -0.375000
v -0.143506 0.000000 -0.346455
v -0.265165 0.000000 -0.265165
v -0.346455 0.000000 -0.143506
v -0.375000 0.000000 0.000000
v -0.346455 0.000000 0.143506
v -0.265165 0.000000 0.265165
v -0.143506 0.000000 0.346455
v -0.000000 0.000000 0.375000
v 0.143506 0.000000 0.346455
v 0.265165 0.000000 0.265165
v 0.346455 0.000000 0.143506
v 0.375000 0.000000 -0.000000
v 0.346455 0.000000 -0.143506
v 0.265165 0.000000 -0.265165
v 0.143506 0.000000 -0.346455
v 0.000000 0.100000 -0.375000
v -0.143506 0.100000 -0.346455
v -0.265165 0.100000 -0.265165
v -0.346455 0.100000 -0.143506
v -0.375000 0.100000 0.000000
v -0.346455 0.100000 0.143506
v -0.265165 0.100000 0.265165
v -0.143506 0.100000 0.346455
v -0.000000 0.100000 0.375000
v 0.143506 0.100000 0.346455
v 0.265165 0.100000 0.265165
v 0.346455 0.100000 0.143506
v 0.375000 0.100000 -0.000000
v 0.346455 0.100000 -0.143506
v 0.265165 0.100000 -0.265165
v 0.143506 0.100000 -0.346455
v 0.000000 0.000000 -0.385000
v -0.147333 0.000000 -0.355693
v -0.272236 0.000000 -0.272236
v -0.355693 0.000000 -0.147333
v -0.385000 0.000000 0.000000
v -0.355693 0.000000 0.147333
v -0.272236 0.000000 0.272236
v -0.147333 0.000000 0.355693
v -0.000000 0.000000 0.385000
v 0.147333 0.000000 0.355693
v 0.272236 0.000000 0.272236
v 0.355693 0.000000 0.147333
v 0.385000 0.000000 -0.000000
v 0.355693 0.000000 -0.147333
v 0.272236 0.000000 -0.272236
v 0.147333 0.000000 -0.355693
v 0.000000 0.100000 -0.385000
v -0.147333 0.100000 -0.355693
v -0.272236 0.100000 -0.272236
v -0.355693 0.100000 -0.147333
v -0.385000 0.100000 0.000000
v -0.355693 0.100000 0.147333
v -0.272236 0.100000 0.272236
v -0.147333 0.100000 0.355693
v -0.000000 0.100000 0.385000
v 0.147333 0.100000 0.355693
v 0.272236 0.100000 0.272236
v 0.355693 0.100000 0.147333
v 0.385000 0.100000 -0.000000
v 0.355693 0.100000 -0.147333
v 0.272236 0.100000 -0.272236
v 0.147333 0.100000 -0.355693
v -0.143506 0.000000 -0.346455
v 0.000000 0.000000 -0.375000
v -0.265165 0.000000 -0.265165
v -0.346455 0.000000 -0.143506
v -0.375000 0.000000 0.000000
v -0.346455 0.000000 0.143506
v -0.265165 0.000000 0.265165
v -0.143506 0.000000 0.346455
v -0.000000 0.000000 0.375000
v 0.143506 0.000000 0.346455
v 0.265165 0.000000 0.265165
v 0.346455 0.000000 0.143506
v 0.375000 0.000000 -0.000000
v 0.346455 0.000000 -0.143506
v 0.265165 0.000000 -0.265165
v 0.143506 0.000000 -0.346455
v -0.143506 0.100000 -0.346455
v 0.000000 0.100000 -0.375000
v -0.265165 0.100000 -0.265165
v -0.346455 0.100000 -0.143506
v -0.375000 0.100000 0.000000
v -0.346455 0.100000 0.143506
v -0.265165 0.100000 0.265165
v -0.143506 0.100000 0.346455
v -0.000000 0.100000 0.375000
v 0.143506 0.100000 0.346455
v 0.265165 0.100000 0.265165
v 0.346455 0.100000 0.143506
v 0.375000 0.100000 -0.000000
v 0.346455 0.100000 -0.143506
v 0.265165 0.100000 -0.265165
v 0.143506 0.100000 -0.346455
v -0.147333 0.000000 -0.355693
v 0.000000 0.000000 -0.385000
v -0.272236 0.000000 -0.272236
v -0.355693 0.000000 -0.147333
v -0.385000 0.000000 0.000000
v -0.355693 0.000000 0.147333
v -0.272236 0.000000 0.272236
v -0.147333 0.000000 0.355693
v -0.000000 0.000000 0.385000
v 0.147333 0.000000 0.355693
v 0.272236 0.000000 0.272236
v 0.355693 0.000000 0.147333
v 0.385000 0.000000 -0.000000
v 0.355693 0.000000 -0.147333
v 0.272236 0.000000 -0.272236
v 0.147333 0.000000 -0.355693
v -0.147333 0.100000 -0.355693
v 0.000000 0.100000 -0.385000
v -0.272236 0.100000 -0.272236
v -0.355693 0.100000 -0.147333
v -0.385000 0.100000 0.000000
v -0.355693 0.100000 0.147333
v -0.272236 0.100000 0.272236
v -0.147333 0.100000 0.355693
v -0.000000 0.100000 0.385000
v 0.147333 0.100000 0.355693
v 0.272236 0.100000 0.272236
v 0.355693 0.100000 0.147333
v 0.385000 0.100000 -0.000000
v 0.355693 0.100000 -0.147333
v 0.272236 0.100000 -0.272236
v 0.147333 0.100000 -0.355693
vn 0.5556 0.0000 -0.8315
vn -0.5556 0.0000 0.8315
vn 0.1951 0.0000 -0.9808
vn 0.1951 0.0000 0.9808
vn -0.1951 0.0000 0.9808
vn -0.1951 0.0000 -0.9808
vn 0.5556 0.0000 0.8315
vn -0.5556 0.0000 -0.8315
vn 0.8315 0.0000 0.5556
vn -0.8315 0.0000 -0.5556
vn 0.9808 0.0000 0.1951
vn -0.9808 0.0000 -0.1951
vn 0.9808 0.0000 -0.1951
vn -0.9808 0.0000 0.1951
vn 0.8315 0.0000 -0.5556
vn -0.8315 0.0000 0.5556
vn 0.0000 -1.0000 0.0000
vn 0.0000 1.0000 -0.0000
s off
f 71//1 88//1 72//1
f 79//2 96//2 80//2
f 72//3 89//3 73//3
f 66//4 18//4 65//4
f 80//5 17//5 66//5
f 73//6 26//6 74//6
f 65//7 19//7 67//7
f 74//8 27//8 75//8
f 67//9 84//9 68//9
f 75//10 92//10 76//10
f 68//11 85//11 69//11
f 76//12 93//12 77//12
f 69//13 22//13 70//13
f 77//14 30//14 78//14
f 70//15 23//15 71//15
f 78//16 31//16 79//16
f 56//2 103//2 104//2
f 64//1 111//1 112//1
f 57//5 104//5 105//5
f 113//6 98//6 97//6
f 114//3 112//3 98//3
f 122//4 105//4 106//4
f 115//8 97//8 99//8
f 123//7 106//7 107//7
f 52//10 99//10 100//10
f 60//9 107//9 108//9
f 53//12 100//12 101//12
f 61//11 108//11 109//11
f 118//14 101//14 102//14
f 126//13 109//13 110//13
f 119//16 102//16 103//16
f 127//15 110//15 111//15
f 1//17 34//17 33//17
f 2//17 35//17 34//17
f 4//17 35//17 3//17
f 5//17 36//17 4//17
f 5//17 38//17 37//17
f 6//17 39//17 38//17
f 8//17 39//17 7//17
f 9//17 40//17 8//17
f 9//17 42//17 41//17
f 10//17 43//17 42//17
f 12//17 43//17 11//17
f 13//17 44//17 12//17
f 13//17 46//17 45//17
f 14//17 47//17 46//17
f 16//17 47//17 15//17
f 1//17 48//17 16//17
f 82//18 50//18 81//18
f 81//18 51//18 83//18
f 20//18 51//18 116//18
f 21//18 116//18 117//18
f 21//18 54//18 86//18
f 86//18 55//18 87//18
f 24//18 55//18 120//18
f 25//18 120//18 121//18
f 25//18 58//18 90//18
f 90//18 59//18 91//18
f 28//18 59//18 124//18
f 29//18 124//18 125//18
f 29//18 62//18 94//18
f 94//18 63//18 95//18
f 32//18 63//18 128//18
f 82//18 128//18 49//18
f 71//1 23//1 88//1
f 79//2 31//2 96//2
f 72//3 88//3 89//3
f 66//4 17//4 18//4
f 80//5 96//5 17//5
f 73//6 89//6 26//6
f 65//7 18//7 19//7
f 74//8 26//8 27//8
f 67//9 19//9 84//9
f 75//10 27//10 92//10
f 68//11 84//11 85//11
f 76//12 92//12 93//12
f 69//13 85//13 22//13
f 77//14 93//14 30//14
f 70//15 22//15 23//15
f 78//16 30//16 31//16
f 56//2 119//2 103//2
f 64//1 127//1 111//1
f 57//5 56//5 104//5
f 113//6 114//6 98//6
f 114//3 64//3 112//3
f 122//4 57//4 105//4
f 115//8 113//8 97//8
f 123//7 122//7 106//7
f 52//10 115//10 99//10
f 60//9 123//9 107//9
f 53//12 52//12 100//12
f 61//11 60//11 108//11
f 118//14 53//14 101//14
f 126//13 61//13 109//13
f 119//16 118//16 102//16
f 127//15 126//15 110//15
f 1//17 2//17 34//17
f 2//17 3//17 35//17
f 4//17 36//17 35//17
f 5//17 37//17 36//17
f 5//17 6//17 38//17
f 6//17 7//17 39//17
f 8//17 40//17 39//17
f 9//17 41//17 40//17
f 9//17 10//17 42//17
f 10//17 11//17 43//17
f 12//17 44//17 43//17
f 13//17 45//17 44//17
f 13//17 14//17 46//17
f 14//17 15//17 47//17
f 16//17 48//17 47//17
f 1//17 33//17 48//17
f 82//18 49//18 50//18
f 81//18 50//18 51//18
f 20//18 83//18 51//18
f 21//18 20//18 116//18
f 21//18 117//18 54//18
f 86//18 54//18 55//18
f 24//18 87//18 55//18
f 25//18 24//18 120//18
f 25//18 121//18 58//18
f 90//18 58//18 59//18
f 28//18 91//18 59//18
f 29//18 28//18 124//18
f 29//18 125//18 62//18
f 94//18 62//18 63//18
f 32//18 95//18 63//18
f 82//18 32//18 128//18
