# Blender v2.78 (sub 0) OBJ File: 'ARMADA_MASTER.blend'
# www.blender.org
o Obstacle_-_Double_Token_-_Mesh_Cylinder1_Cylinder1_auv
v 0.356217 0.050000 0.000000
v 0.354502 0.050000 -0.034915
v 0.354502 0.050000 0.034915
v 0.349372 0.050000 0.069495
v 0.349372 0.050000 -0.069495
v 0.340878 0.050000 0.103404
v 0.340878 0.050000 -0.103404
v 0.329102 0.050000 0.136318
v 0.329102 0.050000 -0.136318
v 0.314155 0.050000 0.167919
v 0.314155 0.050000 -0.167919
v 0.296183 0.050000 0.197904
v 0.296183 0.050000 -0.197903
v 0.275359 0.050000 0.225982
v 0.275359 0.050000 -0.225982
v 0.251883 0.050000 0.251883
v 0.251883 0.050000 -0.251883
v 0.225982 0.050000 0.275359
v 0.225982 0.050000 -0.275359
v 0.197904 0.050000 0.296183
v 0.197904 0.050000 -0.296183
v 0.167919 0.050000 0.314155
v 0.167919 0.050000 -0.314155
v 0.136318 0.050000 0.329102
v 0.136318 0.050000 -0.329102
v 0.103404 0.050000 0.340878
v 0.103404 0.050000 -0.340878
v 0.069495 0.050000 0.349372
v 0.069495 0.050000 -0.349372
v 0.034915 0.050000 0.354502
v 0.034915 0.050000 -0.354502
v -0.000000 0.050000 0.356217
v -0.000000 0.050000 -0.356217
v -0.034915 0.050000 0.354502
v -0.034915 0.050000 -0.354502
v -0.069495 0.050000 0.349372
v -0.069495 0.050000 -0.349372
v -0.103404 0.050000 0.340878
v -0.103404 0.050000 -0.340878
v -0.136318 0.050000 0.329102
v -0.136318 0.050000 -0.329102
v -0.167919 0.050000 0.314155
v -0.167919 0.050000 -0.314155
v -0.197904 0.050000 0.296183
v -0.197904 0.050000 -0.296183
v -0.225982 0.050000 0.275359
v -0.225982 0.050000 -0.275359
v -0.251883 0.050000 0.251883
v -0.251883 0.050000 -0.251883
v -0.275359 0.050000 0.225982
v -0.275359 0.050000 -0.225982
v -0.296183 0.050000 0.197904
v -0.296183 0.050000 -0.197903
v -0.314155 0.050000 0.167919
v -0.314155 0.050000 -0.167919
v -0.329102 0.050000 0.136318
v -0.329102 0.050000 -0.136318
v -0.340878 0.050000 0.103404
v -0.340878 0.050000 -0.103404
v -0.349372 0.050000 0.069495
v -0.349372 0.050000 -0.069495
v -0.354502 0.050000 0.034915
v -0.354502 0.050000 -0.034915
v -0.356217 0.050000 0.000000
v 0.373160 -0.050000 0.036753
v 0.373160 -0.050000 -0.036753
v 0.374965 -0.050000 -0.000000
v 0.367760 -0.050000 0.073152
v 0.367760 -0.050000 -0.073152
v 0.358819 -0.050000 0.108846
v 0.358819 -0.050000 -0.108846
v 0.346423 -0.050000 0.143493
v 0.346423 -0.050000 -0.143493
v 0.330689 -0.050000 0.176757
v 0.330689 -0.050000 -0.176757
v 0.311772 -0.050000 0.208319
v 0.311772 -0.050000 -0.208320
v 0.289852 -0.050000 0.237875
v 0.289852 -0.050000 -0.237875
v 0.265140 -0.050000 0.265140
v 0.265140 -0.050000 -0.265140
v 0.237875 -0.050000 0.289852
v 0.237875 -0.050000 -0.289852
v 0.208319 -0.050000 0.311772
v 0.208319 -0.050000 -0.311772
v 0.176757 -0.050000 0.330689
v 0.176757 -0.050000 -0.330689
v 0.143493 -0.050000 0.346423
v 0.143493 -0.050000 -0.346423
v 0.108846 -0.050000 0.358819
v 0.108846 -0.050000 -0.358819
v 0.073152 -0.050000 0.367760
v 0.073152 -0.050000 -0.367760
v 0.036753 -0.050000 0.373160
v 0.036753 -0.050000 -0.373160
v -0.000000 -0.050000 0.374965
v -0.000000 -0.050000 -0.374965
v -0.036753 -0.050000 0.373160
v -0.036753 -0.050000 -0.373160
v -0.073152 -0.050000 0.367760
v -0.073152 -0.050000 -0.367760
v -0.108846 -0.050000 0.358819
v -0.108846 -0.050000 -0.358819
v -0.143493 -0.050000 0.346423
v -0.143493 -0.050000 -0.346423
v -0.176757 -0.050000 0.330689
v -0.176757 -0.050000 -0.330689
v -0.208319 -0.050000 0.311772
v -0.208319 -0.050000 -0.311772
v -0.237875 -0.050000 0.289852
v -0.237875 -0.050000 -0.289852
v -0.265140 -0.050000 0.265140
v -0.265140 -0.050000 -0.265140
v -0.289852 -0.050000 0.237875
v -0.289852 -0.050000 -0.237875
v -0.311772 -0.050000 0.208319
v -0.311772 -0.050000 -0.208320
v -0.330689 -0.050000 0.176757
v -0.330689 -0.050000 -0.176757
v -0.346423 -0.050000 0.143493
v -0.346423 -0.050000 -0.143493
v -0.358819 -0.050000 0.108846
v -0.358819 -0.050000 -0.108846
v -0.367760 -0.050000 0.073152
v -0.367760 -0.050000 -0.073152
v -0.373160 -0.050000 0.036753
v -0.373160 -0.050000 -0.036753
v -0.374965 -0.050000 -0.000000
v 0.036753 -0.050000 0.373160
v -0.000000 -0.050000 0.374965
v -0.208319 -0.050000 0.311772
v -0.237875 -0.050000 0.289852
v 0.289852 -0.050000 0.237875
v 0.265140 -0.050000 0.265140
v -0.073152 -0.050000 0.367760
v -0.108846 -0.050000 0.358819
v 0.358819 -0.050000 0.108846
v 0.346423 -0.050000 0.143493
v -0.136318 0.050000 0.329102
v -0.167919 0.050000 0.314155
v -0.311772 -0.050000 0.208319
v -0.330689 -0.050000 0.176757
v -0.329102 0.050000 0.136318
v -0.340878 0.050000 0.103404
v -0.367760 -0.050000 0.073152
v -0.373160 -0.050000 0.036753
v 0.225982 0.050000 0.275359
v 0.197904 0.050000 0.296183
v -0.354502 0.050000 -0.034915
v -0.356217 0.050000 0.000000
v 0.103404 0.050000 0.340878
v 0.069495 0.050000 0.349372
v 0.314155 0.050000 0.167919
v 0.296183 0.050000 0.197904
v -0.000000 0.050000 0.356217
v -0.034915 0.050000 0.354502
v 0.208319 -0.050000 -0.311772
v 0.176757 -0.050000 -0.330689
v 0.356217 0.050000 0.000000
v 0.354502 0.050000 -0.034915
v 0.073152 -0.050000 -0.367760
v 0.036753 -0.050000 -0.373160
v 0.311772 -0.050000 -0.208320
v 0.289852 -0.050000 -0.237875
v 0.367760 -0.050000 -0.073152
v 0.358819 -0.050000 -0.108846
v -0.208319 -0.050000 -0.311772
v -0.237875 -0.050000 -0.289852
v -0.073152 -0.050000 -0.367760
v -0.108846 -0.050000 -0.358819
v -0.311772 -0.050000 -0.208320
v -0.330689 -0.050000 -0.176757
v -0.367760 -0.050000 -0.073152
v -0.373160 -0.050000 -0.036753
v -0.136318 0.050000 -0.329102
v -0.167919 0.050000 -0.314155
v -0.000000 0.050000 -0.356217
v -0.034915 0.050000 -0.354502
v -0.251883 0.050000 -0.251883
v -0.275359 0.050000 -0.225982
v -0.329102 0.050000 -0.136318
v -0.340878 0.050000 -0.103404
v 0.251883 0.050000 -0.251883
v 0.225982 0.050000 -0.275359
v 0.208319 -0.050000 0.311772
v 0.176757 -0.050000 0.330689
v 0.136318 0.050000 -0.329102
v 0.103404 0.050000 -0.340878
v 0.329102 0.050000 -0.136318
v 0.314155 0.050000 -0.167919
v 0.073152 -0.050000 0.367760
v 0.349372 0.050000 -0.069495
v 0.311772 -0.050000 0.208319
v 0.354502 0.050000 0.034915
v 0.367760 -0.050000 0.073152
v 0.373160 -0.050000 0.036753
v -0.176757 -0.050000 0.330689
v -0.036753 -0.050000 0.373160
v -0.289852 -0.050000 0.237875
v -0.358819 -0.050000 0.108846
v -0.197904 0.050000 0.296183
v -0.069495 0.050000 0.349372
v -0.275359 0.050000 0.225982
v -0.296183 0.050000 0.197904
v 0.167919 0.050000 0.314155
v -0.349372 0.050000 0.069495
v 0.034915 0.050000 0.354502
v 0.275359 0.050000 0.225982
v 0.349372 0.050000 0.069495
v 0.340878 0.050000 0.103404
v 0.143493 -0.050000 -0.346423
v -0.000000 -0.050000 -0.374965
v 0.265140 -0.050000 -0.265140
v 0.346423 -0.050000 -0.143493
v -0.265140 -0.050000 -0.265140
v 0.373160 -0.050000 -0.036753
v 0.374965 -0.050000 -0.000000
v -0.143493 -0.050000 -0.346423
v -0.346423 -0.050000 -0.143493
v -0.265140 -0.050000 0.265140
v -0.225982 0.050000 -0.275359
v -0.103404 0.050000 -0.340878
v -0.314155 0.050000 -0.167919
v 0.167919 0.050000 -0.314155
v -0.143493 -0.050000 0.346423
v 0.034915 0.050000 -0.354502
v 0.275359 0.050000 -0.225982
v 0.340878 0.050000 -0.103404
v 0.237875 -0.050000 0.289852
v 0.108846 -0.050000 0.358819
v -0.346423 -0.050000 0.143493
v 0.330689 -0.050000 0.176757
v -0.225982 0.050000 0.275359
v -0.103404 0.050000 0.340878
v -0.314155 0.050000 0.167919
v -0.374965 -0.050000 -0.000000
v -0.354502 0.050000 0.034915
v 0.136318 0.050000 0.329102
v 0.251883 0.050000 0.251883
v 0.329102 0.050000 0.136318
v 0.237875 -0.050000 -0.289852
v 0.108846 -0.050000 -0.358819
v 0.330689 -0.050000 -0.176757
v -0.176757 -0.050000 -0.330689
v -0.036753 -0.050000 -0.373160
v -0.289852 -0.050000 -0.237875
v -0.358819 -0.050000 -0.108846
v -0.197904 0.050000 -0.296183
v -0.069495 0.050000 -0.349372
v -0.296183 0.050000 -0.197903
v 0.143493 -0.050000 0.346423
v -0.349372 0.050000 -0.069495
v 0.197904 0.050000 -0.296183
v 0.069495 0.050000 -0.349372
v 0.296183 0.050000 -0.197903
v -0.251883 0.050000 0.251883
vt 0.5614 0.2922
vt 0.5601 0.3178
vt 0.5601 0.2666
vt 0.5564 0.2412
vt 0.5564 0.3431
vt 0.5501 0.2163
vt 0.5501 0.3680
vt 0.5415 0.1922
vt 0.5415 0.3921
vt 0.5306 0.1691
vt 0.5306 0.4153
vt 0.5174 0.1471
vt 0.5174 0.4372
vt 0.5021 0.1265
vt 0.5021 0.4578
vt 0.4849 0.1075
vt 0.4849 0.4768
vt 0.4659 0.0903
vt 0.4659 0.4940
vt 0.4453 0.0750
vt 0.4453 0.5093
vt 0.4233 0.0618
vt 0.4233 0.5225
vt 0.4002 0.0509
vt 0.4002 0.5334
vt 0.3761 0.0423
vt 0.3761 0.5420
vt 0.3512 0.0360
vt 0.3512 0.5483
vt 0.3258 0.0323
vt 0.3258 0.5520
vt 0.3002 0.0310
vt 0.3002 0.5533
vt 0.2747 0.0323
vt 0.2747 0.5520
vt 0.2493 0.0360
vt 0.2493 0.5483
vt 0.2244 0.0423
vt 0.2244 0.5420
vt 0.2003 0.0509
vt 0.2003 0.5334
vt 0.1771 0.0618
vt 0.1771 0.5225
vt 0.1552 0.0750
vt 0.1552 0.5093
vt 0.1346 0.0903
vt 0.1346 0.4940
vt 0.1156 0.1075
vt 0.1156 0.4768
vt 0.0984 0.1265
vt 0.0984 0.4578
vt 0.0831 0.1471
vt 0.0831 0.4372
vt 0.0699 0.1691
vt 0.0699 0.4153
vt 0.0590 0.1922
vt 0.0590 0.3921
vt 0.0504 0.2163
vt 0.0504 0.3680
vt 0.0441 0.2412
vt 0.0441 0.3431
vt 0.0404 0.2666
vt 0.0404 0.3178
vt 0.0391 0.2922
vt 0.4421 0.6577
vt 0.4421 0.7089
vt 0.4409 0.6833
vt 0.4459 0.6323
vt 0.4459 0.7342
vt 0.4521 0.6075
vt 0.4521 0.7591
vt 0.4608 0.5834
vt 0.4608 0.7832
vt 0.4717 0.5602
vt 0.4717 0.8064
vt 0.4849 0.5382
vt 0.4849 0.8284
vt 0.5002 0.5176
vt 0.5002 0.8490
vt 0.5174 0.4986
vt 0.5174 0.8679
vt 0.5363 0.4814
vt 0.5363 0.8852
vt 0.5569 0.4662
vt 0.5569 0.9004
vt 0.5789 0.4530
vt 0.5789 0.9136
vt 0.6021 0.4420
vt 0.6021 0.9246
vt 0.6262 0.4334
vt 0.6262 0.9332
vt 0.6511 0.4272
vt 0.6511 0.9394
vt 0.6764 0.4234
vt 0.6764 0.9432
vt 0.7020 0.4222
vt 0.7020 0.9444
vt 0.7276 0.4234
vt 0.7276 0.9432
vt 0.7530 0.4272
vt 0.7530 0.9394
vt 0.7778 0.4334
vt 0.7778 0.9332
vt 0.8019 0.4420
vt 0.8019 0.9246
vt 0.8251 0.4530
vt 0.8251 0.9136
vt 0.8471 0.4662
vt 0.8471 0.9004
vt 0.8677 0.4814
vt 0.8677 0.8852
vt 0.8867 0.4986
vt 0.8867 0.8679
vt 0.9039 0.5176
vt 0.9039 0.8490
vt 0.9191 0.5382
vt 0.9191 0.8284
vt 0.9323 0.5602
vt 0.9323 0.8064
vt 0.9433 0.5834
vt 0.9433 0.7832
vt 0.9519 0.6075
vt 0.9519 0.7591
vt 0.9581 0.6323
vt 0.9581 0.7342
vt 0.9619 0.6577
vt 0.9619 0.7089
vt 0.9632 0.6833
vt 0.0794 0.9230
vt 0.0794 0.9070
vt 0.0868 0.9230
vt 0.0719 0.9230
vt 0.0645 0.9070
vt 0.0719 0.9070
vt 0.0645 0.9230
vt 0.0573 0.9230
vt 0.0503 0.9070
vt 0.0573 0.9070
vt 0.0503 0.9230
vt 0.0435 0.9230
vt 0.0371 0.9070
vt 0.0435 0.9070
vt 0.0371 0.9230
vt 0.0311 0.9230
vt 0.0256 0.9070
vt 0.0311 0.9070
vt 0.0256 0.9230
vt 0.1305 0.8961
vt 0.1360 0.8801
vt 0.1360 0.8961
vt 0.1245 0.8801
vt 0.1305 0.8801
vt 0.1245 0.8961
vt 0.1181 0.8961
vt 0.1113 0.8801
vt 0.1181 0.8801
vt 0.1113 0.8961
vt 0.1043 0.8961
vt 0.0971 0.8801
vt 0.1043 0.8801
vt 0.0971 0.8961
vt 0.0897 0.8961
vt 0.0822 0.8801
vt 0.0897 0.8801
vt 0.0822 0.8961
vt 0.0748 0.8961
vt 0.0674 0.8801
vt 0.0748 0.8801
vt 0.0674 0.8961
vt 0.0602 0.8961
vt 0.0532 0.8801
vt 0.0602 0.8801
vt 0.0532 0.8961
vt 0.0464 0.8961
vt 0.0400 0.8801
vt 0.0464 0.8801
vt 0.0400 0.8961
vt 0.0340 0.8961
vt 0.0285 0.8801
vt 0.0340 0.8801
vt 0.0285 0.8961
vt 0.1276 0.9757
vt 0.1331 0.9597
vt 0.1331 0.9757
vt 0.1216 0.9597
vt 0.1276 0.9597
vt 0.1216 0.9757
vt 0.1152 0.9757
vt 0.1084 0.9597
vt 0.1152 0.9597
vt 0.1084 0.9757
vt 0.1014 0.9757
vt 0.0942 0.9597
vt 0.1014 0.9597
vt 0.0942 0.9757
vt 0.0868 0.9757
vt 0.0794 0.9597
vt 0.0868 0.9597
vt 0.0794 0.9757
vt 0.0719 0.9757
vt 0.0645 0.9597
vt 0.0719 0.9597
vt 0.0645 0.9757
vt 0.0573 0.9757
vt 0.0503 0.9597
vt 0.0573 0.9597
vt 0.0503 0.9757
vt 0.0435 0.9757
vt 0.0371 0.9597
vt 0.0435 0.9597
vt 0.0371 0.9757
vt 0.0311 0.9757
vt 0.0256 0.9597
vt 0.0311 0.9597
vt 0.0256 0.9757
vt 0.1305 0.9487
vt 0.1360 0.9327
vt 0.1360 0.9487
vt 0.1245 0.9327
vt 0.1305 0.9327
vt 0.1245 0.9487
vt 0.1181 0.9487
vt 0.1113 0.9327
vt 0.1181 0.9327
vt 0.1113 0.9487
vt 0.1043 0.9487
vt 0.0971 0.9327
vt 0.1043 0.9327
vt 0.0971 0.9487
vt 0.0897 0.9487
vt 0.0822 0.9327
vt 0.0897 0.9327
vt 0.0822 0.9487
vt 0.0748 0.9487
vt 0.0674 0.9327
vt 0.0748 0.9327
vt 0.0674 0.9487
vt 0.0602 0.9487
vt 0.0532 0.9327
vt 0.0602 0.9327
vt 0.0532 0.9487
vt 0.0464 0.9487
vt 0.0400 0.9327
vt 0.0464 0.9327
vt 0.0400 0.9487
vt 0.0340 0.9487
vt 0.0285 0.9327
vt 0.0340 0.9327
vt 0.0285 0.9487
vt 0.1276 0.9230
vt 0.1331 0.9070
vt 0.1331 0.9230
vt 0.1216 0.9070
vt 0.1276 0.9070
vt 0.1216 0.9230
vt 0.1152 0.9230
vt 0.1084 0.9070
vt 0.1152 0.9070
vt 0.1084 0.9230
vt 0.1014 0.9230
vt 0.0942 0.9070
vt 0.1014 0.9070
vt 0.0942 0.9230
vt 0.0868 0.9070
vn -0.0000 1.0000 0.0000
vn -0.0000 -1.0000 -0.0000
vn 0.9829 0.1843 0.0000
vn 0.9781 0.1843 -0.0963
vn 0.9781 0.1843 0.0963
vn 0.9640 0.1843 0.1918
vn 0.9406 0.1843 0.2853
vn 0.9081 0.1843 0.3761
vn 0.8668 0.1843 0.4633
vn 0.8172 0.1843 0.5461
vn 0.7598 0.1843 0.6235
vn 0.6950 0.1843 0.6950
vn 0.6235 0.1843 0.7598
vn 0.5461 0.1843 0.8172
vn 0.4633 0.1843 0.8668
vn 0.3761 0.1843 0.9081
vn 0.2853 0.1843 0.9406
vn 0.1918 0.1843 0.9640
vn 0.0963 0.1843 0.9781
vn 0.0000 0.1843 0.9829
vn -0.0963 0.1843 0.9781
vn -0.1918 0.1843 0.9640
vn -0.2853 0.1843 0.9406
vn -0.3761 0.1843 0.9081
vn -0.4633 0.1843 0.8668
vn -0.5461 0.1843 0.8172
vn -0.6235 0.1843 0.7598
vn -0.6950 0.1843 0.6950
vn -0.7598 0.1843 0.6235
vn -0.8172 0.1843 0.5461
vn -0.8668 0.1843 0.4633
vn -0.9081 0.1843 0.3761
vn -0.9406 0.1843 0.2853
vn -0.9640 0.1843 0.1918
vn -0.9781 0.1843 0.0963
vn -0.9829 0.1843 0.0000
vn -0.9781 0.1843 -0.0963
vn -0.9640 0.1843 -0.1918
vn -0.9406 0.1843 -0.2853
vn -0.9081 0.1843 -0.3761
vn -0.8668 0.1843 -0.4633
vn -0.8172 0.1843 -0.5461
vn -0.7598 0.1843 -0.6235
vn -0.6950 0.1843 -0.6950
vn -0.6235 0.1843 -0.7598
vn -0.5461 0.1843 -0.8172
vn -0.4633 0.1843 -0.8668
vn -0.3761 0.1843 -0.9081
vn -0.2853 0.1843 -0.9406
vn -0.1918 0.1843 -0.9640
vn -0.0963 0.1843 -0.9781
vn 0.0000 0.1843 -0.9829
vn 0.0963 0.1843 -0.9781
vn 0.1918 0.1843 -0.9640
vn 0.2853 0.1843 -0.9406
vn 0.3761 0.1843 -0.9081
vn 0.4633 0.1843 -0.8668
vn 0.5461 0.1843 -0.8172
vn 0.6235 0.1843 -0.7598
vn 0.6950 0.1843 -0.6950
vn 0.7598 0.1843 -0.6235
vn 0.8172 0.1843 -0.5461
vn 0.8668 0.1843 -0.4633
vn 0.9081 0.1843 -0.3761
vn 0.9406 0.1843 -0.2853
vn 0.9640 0.1843 -0.1918
s 1
f 159/1/1 160/2/1 3/3/1
f 3/3/1 160/2/1 209/4/1
f 209/4/1 5/5/1 6/6/1
f 6/6/1 7/7/1 240/8/1
f 240/8/1 189/9/1 153/10/1
f 153/10/1 11/11/1 154/12/1
f 154/12/1 13/13/1 14/14/1
f 14/14/1 15/15/1 239/16/1
f 239/16/1 183/17/1 147/18/1
f 147/18/1 19/19/1 148/20/1
f 148/20/1 21/21/1 22/22/1
f 22/22/1 23/23/1 238/24/1
f 238/24/1 187/25/1 151/26/1
f 151/26/1 27/27/1 152/28/1
f 152/28/1 29/29/1 30/30/1
f 30/30/1 31/31/1 155/32/1
f 155/32/1 177/33/1 156/34/1
f 156/34/1 178/35/1 36/36/1
f 36/36/1 37/37/1 38/38/1
f 38/38/1 222/39/1 139/40/1
f 139/40/1 175/41/1 140/42/1
f 140/42/1 43/43/1 44/44/1
f 44/44/1 45/45/1 46/46/1
f 46/46/1 221/47/1 256/48/1
f 256/48/1 179/49/1 203/50/1
f 203/50/1 51/51/1 52/52/1
f 52/52/1 53/53/1 54/54/1
f 54/54/1 223/55/1 143/56/1
f 143/56/1 181/57/1 144/58/1
f 144/58/1 59/59/1 60/60/1
f 60/60/1 61/61/1 62/62/1
f 62/62/1 149/63/1 150/64/1
f 149/63/1 62/62/1 61/61/1
f 61/61/1 60/60/1 59/59/1
f 59/59/1 144/58/1 181/57/1
f 181/57/1 143/56/1 223/55/1
f 223/55/1 54/54/1 53/53/1
f 53/53/1 52/52/1 51/51/1
f 51/51/1 203/50/1 179/49/1
f 179/49/1 256/48/1 221/47/1
f 221/47/1 46/46/1 45/45/1
f 45/45/1 44/44/1 43/43/1
f 43/43/1 140/42/1 175/41/1
f 175/41/1 139/40/1 222/39/1
f 222/39/1 38/38/1 37/37/1
f 37/37/1 36/36/1 178/35/1
f 178/35/1 156/34/1 177/33/1
f 177/33/1 155/32/1 31/31/1
f 31/31/1 30/30/1 29/29/1
f 29/29/1 152/28/1 27/27/1
f 27/27/1 151/26/1 187/25/1
f 187/25/1 238/24/1 23/23/1
f 23/23/1 22/22/1 21/21/1
f 21/21/1 148/20/1 19/19/1
f 19/19/1 147/18/1 183/17/1
f 183/17/1 239/16/1 15/15/1
f 15/15/1 14/14/1 13/13/1
f 13/13/1 154/12/1 11/11/1
f 11/11/1 153/10/1 189/9/1
f 189/9/1 240/8/1 7/7/1
f 7/7/1 6/6/1 5/5/1
f 5/5/1 209/4/1 160/2/1
f 65/65/2 216/66/2 217/67/2
f 195/68/2 165/69/2 65/65/2
f 137/70/2 166/71/2 195/68/2
f 138/72/2 214/73/2 137/70/2
f 232/74/2 243/75/2 138/72/2
f 193/76/2 163/77/2 232/74/2
f 133/78/2 164/79/2 193/76/2
f 134/80/2 81/81/2 133/78/2
f 229/82/2 241/83/2 134/80/2
f 185/84/2 157/85/2 229/82/2
f 86/86/2 158/87/2 185/84/2
f 88/88/2 211/89/2 86/86/2
f 230/90/2 242/91/2 88/88/2
f 191/92/2 161/93/2 230/90/2
f 129/94/2 162/95/2 191/92/2
f 130/96/2 212/97/2 129/94/2
f 198/98/2 245/99/2 130/96/2
f 135/100/2 169/101/2 198/98/2
f 136/102/2 170/103/2 135/100/2
f 104/104/2 218/105/2 136/102/2
f 197/106/2 244/107/2 104/104/2
f 131/108/2 167/109/2 197/106/2
f 132/110/2 168/111/2 131/108/2
f 112/112/2 113/113/2 132/110/2
f 199/114/2 246/115/2 112/112/2
f 141/116/2 171/117/2 199/114/2
f 142/118/2 172/119/2 141/116/2
f 120/120/2 219/121/2 142/118/2
f 200/122/2 247/123/2 120/120/2
f 145/124/2 173/125/2 200/122/2
f 146/126/2 174/127/2 145/124/2
f 128/128/2 174/127/2 146/126/2
f 173/125/2 145/124/2 174/127/2
f 247/123/2 200/122/2 173/125/2
f 219/121/2 120/120/2 247/123/2
f 172/119/2 142/118/2 219/121/2
f 171/117/2 141/116/2 172/119/2
f 246/115/2 199/114/2 171/117/2
f 113/113/2 112/112/2 246/115/2
f 168/111/2 132/110/2 113/113/2
f 167/109/2 131/108/2 168/111/2
f 244/107/2 197/106/2 167/109/2
f 218/105/2 104/104/2 244/107/2
f 170/103/2 136/102/2 218/105/2
f 169/101/2 135/100/2 170/103/2
f 245/99/2 198/98/2 169/101/2
f 212/97/2 130/96/2 245/99/2
f 162/95/2 129/94/2 212/97/2
f 161/93/2 191/92/2 162/95/2
f 242/91/2 230/90/2 161/93/2
f 211/89/2 88/88/2 242/91/2
f 158/87/2 86/86/2 211/89/2
f 157/85/2 185/84/2 158/87/2
f 241/83/2 229/82/2 157/85/2
f 81/81/2 134/80/2 241/83/2
f 164/79/2 133/78/2 81/81/2
f 163/77/2 193/76/2 164/79/2
f 243/75/2 232/74/2 163/77/2
f 214/73/2 138/72/2 243/75/2
f 166/71/2 137/70/2 214/73/2
f 165/69/2 195/68/2 166/71/2
f 216/66/2 65/65/2 165/69/2
f 1/129/3 67/130/3 2/131/4
f 194/132/5 67/130/3 1/129/3
f 194/132/5 68/133/6 196/134/5
f 4/135/6 68/133/6 194/132/5
f 210/136/7 68/133/6 4/135/6
f 210/136/7 72/137/8 70/138/7
f 8/139/8 72/137/8 210/136/7
f 10/140/9 72/137/8 8/139/8
f 10/140/9 76/141/10 74/142/9
f 12/143/10 76/141/10 10/140/9
f 208/144/11 76/141/10 12/143/10
f 208/144/11 80/145/12 78/146/11
f 16/147/12 80/145/12 208/144/11
f 18/148/13 80/149/12 16/150/12
f 18/148/13 84/151/14 82/152/13
f 20/153/14 84/151/14 18/148/13
f 205/154/15 84/151/14 20/153/14
f 205/154/15 251/155/16 186/156/15
f 24/157/16 251/155/16 205/154/15
f 26/158/17 251/155/16 24/157/16
f 26/158/17 92/159/18 90/160/17
f 28/161/18 92/159/18 26/158/17
f 207/162/19 92/159/18 28/161/18
f 207/162/19 96/163/20 94/164/19
f 32/165/20 96/163/20 207/162/19
f 34/166/21 96/163/20 32/165/20
f 34/166/21 100/167/22 98/168/21
f 202/169/22 100/167/22 34/166/21
f 234/170/23 100/167/22 202/169/22
f 234/170/23 225/171/24 102/172/23
f 40/173/24 225/171/24 234/170/23
f 42/174/25 225/171/24 40/173/24
f 42/174/25 108/175/26 106/176/25
f 201/177/26 108/175/26 42/174/25
f 233/178/27 108/175/26 201/177/26
f 233/178/27 220/179/28 110/180/27
f 48/181/28 220/179/28 233/178/27
f 50/182/29 220/183/28 48/184/28
f 50/182/29 116/185/30 114/186/29
f 204/187/30 116/185/30 50/182/29
f 235/188/31 116/185/30 204/187/30
f 235/188/31 231/189/32 118/190/31
f 56/191/32 231/189/32 235/188/31
f 58/192/33 231/189/32 56/191/32
f 58/192/33 124/193/34 122/194/33
f 206/195/34 124/193/34 58/192/33
f 237/196/35 124/193/34 206/195/34
f 237/196/35 236/197/36 126/198/35
f 64/199/36 236/197/36 237/196/35
f 63/200/37 236/197/36 64/199/36
f 63/200/37 125/201/38 127/202/37
f 252/203/38 125/201/38 63/200/37
f 182/204/39 125/201/38 252/203/38
f 182/204/39 121/205/40 123/206/39
f 57/207/40 121/205/40 182/204/39
f 55/208/41 121/205/40 57/207/40
f 55/208/41 117/209/42 119/210/41
f 250/211/42 117/209/42 55/208/41
f 180/212/43 117/209/42 250/211/42
f 180/212/43 215/213/44 115/214/43
f 49/215/44 215/213/44 180/212/43
f 47/216/45 215/217/44 49/218/44
f 47/216/45 109/219/46 111/220/45
f 248/221/46 109/219/46 47/216/45
f 176/222/47 109/219/46 248/221/46
f 176/222/47 105/223/48 107/224/47
f 41/225/48 105/223/48 176/222/47
f 39/226/49 105/223/48 41/225/48
f 39/226/49 101/227/50 103/228/49
f 249/229/50 101/227/50 39/226/49
f 35/230/51 101/227/50 249/229/50
f 35/230/51 97/231/52 99/232/51
f 33/233/52 97/231/52 35/230/51
f 226/234/53 97/231/52 33/233/52
f 226/234/53 93/235/54 95/236/53
f 254/237/54 93/235/54 226/234/53
f 188/238/55 93/235/54 254/237/54
f 188/238/55 89/239/56 91/240/55
f 25/241/56 89/239/56 188/238/55
f 224/242/57 89/239/56 25/241/56
f 224/242/57 85/243/58 87/244/57
f 253/245/58 85/243/58 224/242/57
f 184/246/59 85/243/58 253/245/58
f 184/246/59 213/247/60 83/248/59
f 17/249/60 213/247/60 184/246/59
f 227/250/61 213/251/60 17/252/60
f 227/250/61 77/253/62 79/254/61
f 255/255/62 77/253/62 227/250/61
f 190/256/63 77/253/62 255/255/62
f 190/256/63 73/257/64 75/258/63
f 9/259/64 73/257/64 190/256/63
f 228/260/65 73/257/64 9/259/64
f 228/260/65 69/261/66 71/262/65
f 192/263/66 69/261/66 228/260/65
f 2/131/4 67/130/3 66/264/4
f 2/131/4 69/261/66 192/263/66
f 196/134/5 67/130/3 194/132/5
f 70/138/7 68/133/6 210/136/7
f 74/142/9 72/137/8 10/140/9
f 78/146/11 76/141/10 208/144/11
f 82/152/13 80/149/12 18/148/13
f 186/156/15 84/151/14 205/154/15
f 90/160/17 251/155/16 26/158/17
f 94/164/19 92/159/18 207/162/19
f 98/168/21 96/163/20 34/166/21
f 102/172/23 100/167/22 234/170/23
f 106/176/25 225/171/24 42/174/25
f 110/180/27 108/175/26 233/178/27
f 114/186/29 220/183/28 50/182/29
f 118/190/31 116/185/30 235/188/31
f 122/194/33 231/189/32 58/192/33
f 126/198/35 124/193/34 237/196/35
f 127/202/37 236/197/36 63/200/37
f 123/206/39 125/201/38 182/204/39
f 119/210/41 121/205/40 55/208/41
f 115/214/43 117/209/42 180/212/43
f 111/220/45 215/217/44 47/216/45
f 107/224/47 109/219/46 176/222/47
f 103/228/49 105/223/48 39/226/49
f 99/232/51 101/227/50 35/230/51
f 95/236/53 97/231/52 226/234/53
f 91/240/55 93/235/54 188/238/55
f 87/244/57 89/239/56 224/242/57
f 83/248/59 85/243/58 184/246/59
f 79/254/61 213/251/60 227/250/61
f 75/258/63 77/253/62 190/256/63
f 71/262/65 73/257/64 228/260/65
f 66/264/4 69/261/66 2/131/4
